<svg width="70" height="69" viewBox="0 0 70 69" fill="none" xmlns="http://www.w3.org/2000/svg">
<path fill-rule="evenodd" clip-rule="evenodd" d="M35 69C54.3171 69 70 53.5411 70 34.5C70 15.4589 54.3171 7.1526e-07 35 7.1526e-07C15.6829 7.1526e-07 -1.43051e-06 15.4589 -1.43051e-06 34.5C-1.43051e-06 53.5411 15.6829 69 35 69ZM35 66.125C52.7071 66.125 67.0833 51.9541 67.0833 34.5C67.0833 17.0459 52.7071 2.875 35 2.875C17.2929 2.875 2.91667 17.0459 2.91667 34.5C2.91667 51.9541 17.2929 66.125 35 66.125ZM20.9183 33.0625L34.3583 22.2439L32.3779 20.125L14.5833 34.5L32.41 48.875L34.3525 46.7101L20.9242 35.9375H55.4167V33.0625H20.9183V33.0625Z" fill="#FF0000"/>
</svg>
