<svg  width="32" height="32" viewBox="0 0 32 32" fill="none" xmlns="http://www.w3.org/2000/svg">
<path d="M16 29.3333C8.648 29.3333 2.66667 23.352 2.66667 16C2.66667 8.648 8.648 2.66667 16 2.66667C23.352 2.66667 29.3333 8.648 29.3333 16C29.3333 23.352 23.352 29.3333 16 29.3333ZM16 32C24.836 32 32 24.836 32 16C32 7.164 24.836 -9.53674e-07 16 -9.53674e-07C7.164 -9.53674e-07 -9.53674e-07 7.164 -9.53674e-07 16C-9.53674e-07 24.836 7.164 32 16 32ZM13.3333 16L19.3333 10L17.2973 8L9.33333 16L17.2973 24L19.3333 22L13.3333 16V16Z" fill="#b23838"/>
</svg>
