<svg width="70" height="69" viewBox="0 0 70 69" fill="none" xmlns="http://www.w3.org/2000/svg">
<path fill-rule="evenodd" clip-rule="evenodd" d="M35 0C15.6829 0 0 15.4589 0 34.5C0 53.5411 15.6829 69 35 69C54.3171 69 70 53.5411 70 34.5C70 15.4589 54.3171 0 35 0ZM35 2.875C17.2929 2.875 2.91667 17.0459 2.91667 34.5C2.91667 51.9541 17.2929 66.125 35 66.125C52.7071 66.125 67.0833 51.9541 67.0833 34.5C67.0833 17.0459 52.7071 2.875 35 2.875ZM49.0817 35.9375L35.6417 46.7561L37.6221 48.875L55.4167 34.5L37.59 20.125L35.6475 22.2899L49.0758 33.0625H14.5833V35.9375H49.0817V35.9375Z" fill="#FF0000"/>
</svg>
