<svg width="33" height="33" viewBox="0 0 33 33" fill="none" xmlns="http://www.w3.org/2000/svg">
<path fill-rule="evenodd" clip-rule="evenodd" d="M15.125 2.75H28.875L33 6.875V9.625H28.875V16.5H33V22H23.375V16.5H27.5V9.625H15.125V33H6.875V9.625H5.5V12.375H0V2.75H6.875V0H15.125V2.75ZM33 33H17.875V27.5H23.375V23.375H33V33ZM13.75 9.625H8.25V31.625H13.75V9.625ZM31.625 28.875H24.75V31.625H31.625V28.875ZM23.375 28.875H19.25V31.625H23.375V28.875ZM12.375 27.5L9.625 28.875V30.25L12.375 28.875V27.5ZM31.625 24.75H24.75V27.5H31.625V24.75ZM12.375 23.375L9.625 24.75V26.125L12.375 24.75V23.375ZM12.375 19.25L9.625 20.625V22L12.375 20.625V19.25ZM31.625 17.875H24.75V20.625H31.625V17.875ZM12.375 15.125L9.625 16.5V17.875L12.375 16.5V15.125ZM12.375 11L9.625 12.375V13.75L12.375 12.375V11ZM13.75 1.375H8.25V4.125H1.375V11H4.125V8.25H31.625V7.44425L28.3057 4.125H13.75V1.375Z" fill="#F8F8F8"/>
</svg>
