<?xml version="1.0" encoding="UTF-8" standalone="no"?><!DOCTYPE svg PUBLIC "-//W3C//DTD SVG 1.1//EN" "http://www.w3.org/Graphics/SVG/1.1/DTD/svg11.dtd"><svg width="100%" height="100%" viewBox="0 0 2536 2591" version="1.1" xmlns="http://www.w3.org/2000/svg" xmlns:xlink="http://www.w3.org/1999/xlink" xml:space="preserve" xmlns:serif="http://www.serif.com/" style="fill-rule:evenodd;clip-rule:evenodd;stroke-linecap:round;stroke-linejoin:round;stroke-miterlimit:1.5;"><g><path d="M1447.13,2364.34c597.563,-0 1081.98,-484.417 1081.98,-1081.98c0,-597.562 -484.42,-1081.98 -1081.98,-1081.98c-597.562,-0 -1081.98,484.419 -1081.98,1081.98c0,597.567 484.422,1081.98 1081.98,1081.98Z" style="fill:none;fill-rule:nonzero;stroke:#000;stroke-width:12.5px;"/><rect x="1411.9" y="1702.15" width="755.971" height="888.271" style="fill:#fff;fill-rule:nonzero;stroke:#fff;stroke-width:0.02px;"/><rect x="1644.09" y="0.009" width="755.971" height="888.268" style="fill:#fff;fill-rule:nonzero;stroke:#fff;stroke-width:0.02px;"/><path d="M1528.02,5.597l0.008,-0l0,0.022c-0.004,0.001 -0.004,0.002 -0.004,0.003c-0,0.002 -0.004,0.002 -0.004,0.003c-0,0 -0.004,0.001 -0.004,0.001c-0.005,-0 -0.005,-0 -0.005,-0.001c-0.004,0 -0.004,-0 -0.004,-0.001c-0.004,-0 -0.004,-0.001 -0.004,-0.002c0,-0.001 -0.004,-0.002 -0.004,-0.003l-0,-0.022l0.008,-0l0,0.017c0,0.002 0,0.003 0.004,0.004l0,0.001c0.005,-0 0.005,-0 0.005,-0.001c0.004,-0.001 0.004,-0.002 0.004,-0.004l-0,-0.017Zm0.012,-0l0.009,-0l-0,0.028l-0.009,0l0,-0.028Z" style="fill-rule:nonzero;"/><path d="M1562.94,2340.27l25.308,113.296l-107.067,-0c0.034,-13.563 0.096,-54.842 0.179,-55.759c4.196,-44.966 48.413,-35 81.58,-57.537Zm36.437,5.287l-1.737,-0.05l-9.255,13.688l0.234,3.483l7.662,7.775l-8.587,13.809l3.229,69.304l15.554,-0l2.879,-69.238l-8.587,-13.812l7.658,-7.779l0.238,-3.475l-9.288,-13.705Zm-0.85,-169.645c27.967,-0 50.758,27.175 51.771,55.125c-1.271,-0.321 -2.629,-0.484 -4.05,-0.484l-95.446,0c-1.417,0 -2.775,0.163 -4.05,0.484c1.017,-27.95 23.804,-55.125 51.775,-55.125Zm-47.725,60.404c-3.854,-0 -7.004,1.525 -7.004,5.837c-0,19.863 109.458,19.675 109.458,0c0,-4.312 -3.154,-5.837 -7.008,-5.837l-95.446,-0Zm83.263,103.954c33.166,22.537 77.375,12.571 81.57,57.537c0.088,0.917 0.15,42.196 0.188,55.759l-107.071,-0l25.313,-113.296Zm-34.817,-13.725c-0.171,0.012 -0.338,0.012 -0.504,0.012c-6.188,0.042 -9.267,-0.058 -12.625,-1.479c-3.25,-1.379 -4.825,-4.575 -9.296,-8.875c-3.804,-3.658 -10.625,-7.396 -12.288,-11.383c-2.025,-4.85 -1.545,-10.138 -2.404,-17.2c-3.525,1.942 -7.304,-8.15 -8.05,-11.467c-1.108,-4.875 -4.625,-13.191 -5.725,-18.766c-0.175,-0.871 -0.266,-1.692 -0.291,-2.446c14.712,7.304 41.4,7.812 50.479,7.804c9.016,-0.008 35.6,-0.554 50.337,-7.804c-0.029,0.758 -0.125,1.575 -0.296,2.446c-1.095,5.575 -4.62,13.891 -5.725,18.766c-0.741,3.275 -4.437,13.184 -7.929,11.525c-0.775,6.85 -0.35,12 -2.316,16.775c-1.655,4.004 -8.43,7.784 -12.205,11.479c-4.45,4.359 -6.02,7.555 -9.25,8.984c-3.229,1.412 -6.195,1.608 -11.912,1.629Z" style="fill:#b23838;"/><path d="M2002.71,2340.24l25.345,113.8l-107.229,-0c0.034,-13.621 0.096,-55.084 0.179,-56.009c4.205,-45.166 48.488,-35.154 81.705,-57.791Zm36.491,5.312l-1.737,-0.054l-9.271,13.75l0.233,3.496l7.675,7.812l-8.6,13.871l3.234,69.613l15.579,-0l2.879,-69.546l-8.6,-13.875l7.675,-7.813l0.233,-3.491l-9.3,-13.763Zm-0.85,-170.408c28.013,-0 50.838,27.296 51.846,55.371c-1.267,-0.317 -2.633,-0.484 -4.054,-0.484l-95.592,0c-1.416,0 -2.779,0.167 -4.054,0.484c1.017,-28.075 23.842,-55.371 51.854,-55.371Zm-47.8,60.675c-3.858,-0 -7.012,1.533 -7.012,5.867c-0,19.95 109.625,19.758 109.625,-0c-0,-4.334 -3.159,-5.867 -7.021,-5.867l-95.592,-0Zm83.392,104.421c33.217,22.637 77.492,12.625 81.696,57.791c0.087,0.925 0.15,42.388 0.183,56.009l-107.233,-0l25.354,-113.8Zm-34.871,-13.788c-0.171,0.013 -0.337,0.013 -0.504,0.013c-6.2,0.041 -9.279,-0.059 -12.646,-1.484c-3.25,-1.387 -4.833,-4.595 -9.308,-8.916c-3.809,-3.675 -10.642,-7.429 -12.309,-11.434c-2.025,-4.875 -1.545,-10.183 -2.404,-17.279c-3.533,1.95 -7.316,-8.183 -8.066,-11.516c-1.109,-4.9 -4.63,-13.25 -5.73,-18.85c-0.175,-0.875 -0.266,-1.7 -0.295,-2.455c14.737,7.334 41.466,7.846 50.558,7.838c9.029,-0.013 35.65,-0.558 50.412,-7.838c-0.029,0.759 -0.125,1.58 -0.295,2.455c-1.1,5.6 -4.63,13.95 -5.73,18.85c-0.745,3.291 -4.45,13.241 -7.945,11.579c-0.775,6.879 -0.35,12.05 -2.321,16.846c-1.654,4.025 -8.442,7.816 -12.225,11.533c-4.454,4.379 -6.025,7.587 -9.259,9.025c-3.237,1.417 -6.208,1.612 -11.933,1.633Z" style="fill:#b23838;"/><path d="M2221.21,435.756l-39.52,-87.784l-39.5,87.784l79.02,0Zm-79.004,10.596l39.484,87.713l39.483,-87.713l-78.967,0Zm58.671,-267.609l-19.187,-42.608l-19.175,42.608l38.362,0Zm-5.767,-38.554l17.355,38.554l33.204,0l-50.559,-38.554Zm20.167,70.576l-67.175,0l-8.292,18.411l41.88,93.042l41.887,-93.042l-8.3,-18.411Zm-75.967,116.254l32.95,-0l-32.95,-73.2l0,73.2Zm0,89.362l35.455,-78.767l-35.455,-0l0,78.767Zm84.759,-78.767l-35.446,-0l35.446,78.767l-0,-78.767Zm-0,-83.795l-32.942,73.2l32.942,-0l-0,-73.2Zm-102.763,-122.795l0,47.719l29.621,0l22.592,-50.206l-39.4,0l-12.813,2.487Zm-16.55,47.719l0,-44.503l-229.329,44.503l229.329,0Zm83.604,366.272l35.709,-0l-0,-79.35l-35.709,79.35Zm-49.05,-0l35.721,-0l-35.721,-79.359l0,79.359Zm-10.587,-0l-0,-102.879l-0.5,-1.113l0.5,-1.121l-0,-209.605l-0.5,-1.121l0.5,-1.111l-0,-17.3l-7.417,0l0,334.25l7.417,-0Zm227.687,25.746l-17.8,-18.596l-44.545,-0l62.345,65.1l0,-46.504Zm-1.42,97.933l-111.609,-116.529l-44.537,-0l111.608,116.529l44.538,-0Zm-95.217,-0l-111.608,-116.529l-44.55,-0l111.616,116.529l44.542,-0Zm-95.229,-0l-111.609,-116.529l-44.545,-0l111.616,116.529l44.538,-0Zm-95.217,-0l-62.358,-65.104l-0,46.508l17.816,18.596l44.542,-0Zm-232.1,-149.408l-0.246,0.012l-16.371,0l-0.008,4.971c0,2.25 1.083,4.512 4.238,6.633c3.179,2.15 8.445,4.163 10.275,4.929c10.35,4.384 13.912,18.459 4.245,28.759c-9.1,7.837 -20.025,6.416 -27.112,2.579c-7.971,-4.317 -10.529,-12.325 -11.604,-11.458c-3.792,3.025 -1.229,16.187 7.896,24.579c13.675,12.596 40.604,10.812 51.991,-9.092c5.092,-8.912 5.85,-20.146 1.95,-29.7c-5.929,-14.567 -15.441,-15.304 -23.729,-20.571c-0.75,-0.475 -1.221,-1.029 -1.525,-1.641Zm-17.308,-38.763c-3.279,0 -5.967,2.679 -5.967,5.958l0,18.875c0,3.292 2.688,5.967 5.967,5.967l17.062,0c3.279,0 5.959,-2.675 5.959,-5.967l-0,-18.875c-0,-3.279 -2.68,-5.958 -5.959,-5.958l-17.062,0Zm-8.892,-301.78l8.892,0l284.837,-55.271l0,-0.209l1.075,-0l26.721,-5.184l0.425,-0.082l0.567,0l48.083,-0.018l1.783,-0l1.413,1.084l78.275,59.68l2.758,0l22.75,16.016l-22.75,16.006l0,-0.009l0,0.009l-31.191,0l-0,17.309l0.5,1.102l-0.5,1.112l-0,209.623l0.5,1.112l-0.5,1.1l-0,102.892l129.308,-0l-0,130.837l-364.558,0l-0,-130.837l105.341,-0l0,-334.25l-269.304,0l0,261.787l-14.012,0l-0,-261.787l-10.413,0l-22.737,-16.006l22.737,-16.016Z" style="fill:#b23838;"/><path d="M1761.54,2270.44l40.979,183.446l-173.358,-0c0.054,-21.959 0.158,-88.796 0.291,-90.28c6.796,-72.812 78.388,-56.675 132.088,-93.166Zm59,8.562l-2.809,-0.079l-14.987,22.163l0.375,5.637l12.408,12.588l-13.904,22.362l5.229,112.213l25.184,-0l4.662,-112.109l-13.904,-22.362l12.4,-12.596l0.383,-5.629l-15.037,-22.188Zm-1.375,-274.691c45.287,-0 82.187,44.004 83.825,89.258c-2.054,-0.513 -4.259,-0.783 -6.559,-0.783l-154.541,-0c-2.292,-0 -4.496,0.27 -6.559,0.783c1.646,-45.254 38.546,-89.258 83.834,-89.258Zm-77.275,97.808c-6.242,-0 -11.342,2.471 -11.342,9.454c0,32.158 177.233,31.854 177.233,0c0,-6.983 -5.108,-9.454 -11.35,-9.454l-154.541,-0Zm134.816,168.321c53.7,36.491 125.288,20.354 132.08,93.166c0.141,1.484 0.241,68.321 0.3,90.28l-173.367,-0l40.987,-183.446Zm-56.379,-22.221c-0.275,0.021 -0.541,0.021 -0.812,0.021c-10.021,0.066 -15,-0.096 -20.446,-2.396c-5.254,-2.233 -7.808,-7.408 -15.046,-14.375c-6.158,-5.921 -17.204,-11.971 -19.896,-18.429c-3.279,-7.854 -2.504,-16.413 -3.891,-27.85c-5.713,3.141 -11.83,-13.196 -13.038,-18.563c-1.792,-7.9 -7.487,-21.362 -9.267,-30.391c-0.283,-1.409 -0.433,-2.742 -0.479,-3.959c23.829,11.829 67.038,12.65 81.742,12.638c14.6,-0.017 57.637,-0.9 81.5,-12.638c-0.042,1.225 -0.2,2.55 -0.475,3.959c-1.779,9.029 -7.483,22.491 -9.267,30.391c-1.204,5.3 -7.191,21.342 -12.846,18.659c-1.254,11.091 -0.566,19.429 -3.745,27.158c-2.684,6.487 -13.65,12.604 -19.767,18.592c-7.204,7.058 -9.742,12.233 -14.971,14.545c-5.233,2.288 -10.033,2.6 -19.296,2.638Z" style="fill:#b23838;"/><rect x="14.977" y="812.706" width="755.97" height="888.267" style="fill:#fff;fill-rule:nonzero;stroke:#fff;stroke-width:0.02px;"/><path d="M-0,771.469l0.019,-0c0.002,-0 0.003,0.004 0.004,0.004c0.001,0 0.002,0.004 0.002,0.004c0.001,0.004 0.001,0.004 0.001,0.004c0,0.005 -0,0.009 -0.001,0.009c-0.001,0.004 -0.002,0.004 -0.003,0.004c-0.001,-0 -0.002,0.004 -0.004,0.004l-0.018,0l-0,-0.029Zm0.009,0.008l-0,0.013l0.008,-0c0,-0.004 0,-0.004 0,-0.009c0,0 -0,-0.004 -0.001,-0.004l-0.007,0Zm0.022,0.021l-0,-0.029l0.021,-0c0.001,-0 0.002,0.004 0.003,0.004c0.001,0 0.001,0.004 0.001,0.004c0,0 0,0.004 -0.001,0.004c-0,0 -0.001,0 -0.002,0.005l-0.003,-0l0.003,-0c0.001,0.004 0.001,0.004 0.001,0.004l0.005,0.008l-0.01,0l-0.005,-0.008c-0,-0 -0.001,-0.004 -0.001,-0.004l-0.003,-0l-0,0.012l-0.009,0Zm0.009,-0.017l0.007,0c0,-0.004 0.001,-0.004 0.001,-0.004l-0.001,0c-0.001,0 -0.002,-0.004 -0.004,-0.004l-0.003,0l-0,0.008Zm0.039,0.013l-0.01,-0l-0.001,0.004l-0.009,0l0.01,-0.029l0.01,-0l0.011,0.029l-0.01,0l-0.001,-0.004Zm-0.002,-0.008l-0.003,-0.009l-0.003,0.009l0.006,-0Zm0.015,-0.017l0.022,-0l0,0.008l-0.013,0l0,0.004l0.011,0l0,0.005l-0.011,-0l0,0.012l-0.009,0l0,-0.029Zm0.025,-0l0.026,-0l0,0.008l-0.009,0l0,0.021l-0.008,0l-0,-0.021l-0.009,0l-0,-0.008Zm0.029,0.021l0.009,-0c0.001,0.004 0.002,0.004 0.004,0.004c0.001,-0 0.002,-0 0.003,-0.004l0.001,-0c0,-0 -0,-0 -0.001,-0.004l-0.004,-0c-0.004,-0 -0.007,-0 -0.009,-0.005c-0.001,0 -0.002,-0.004 -0.002,-0.004c-0,0 0,-0.004 0.001,-0.004c0.001,0 0.002,-0.004 0.004,-0.004l0.015,-0c0.002,0.004 0.003,0.004 0.004,0.008l-0.009,0c0,0 -0,0 -0.001,-0.004l-0.005,0c-0.001,0 -0.001,0.004 -0.001,0.004l0.004,0c0.003,0.004 0.006,0.004 0.008,0.004c0.001,0 0.003,0 0.003,0.005c0.001,-0 0.002,-0 0.002,0.004c-0,-0 -0.001,0.004 -0.002,0.004c-0.001,-0 -0.002,0.004 -0.004,0.004l-0.007,0c-0.005,0 -0.008,0 -0.01,-0.004c-0.002,-0 -0.003,-0.004 -0.003,-0.004Z" style="fill-rule:nonzero;"/><path d="M226.413,940.311l326.367,-0c15.204,-0 27.642,12.445 27.642,27.641l-0,339.85c-0,15.204 -12.446,27.642 -27.642,27.642l-326.367,-0c-15.196,-0 -27.64,-12.438 -27.64,-27.642l-0,-339.85c-0,-15.204 12.436,-27.641 27.64,-27.641Zm109.312,340.416c1.075,0 1.922,-0.316 2.551,-0.937c0.647,-0.646 0.956,-1.584 0.956,-2.85c-0,-1.35 -0.31,-2.379 -0.92,-3.109c-0.601,-0.712 -1.43,-1.075 -2.45,-1.075c-0.993,0 -1.823,0.33 -2.478,1.005c-0.665,0.662 -0.993,1.666 -0.993,3.02c-0,1.413 0.309,2.425 0.938,3.034c0.638,0.612 1.43,0.912 2.396,0.912Zm-4.428,11.988c2.16,-0.079 4.036,-0.509 5.64,-1.284c1.594,-0.775 2.915,-1.795 3.962,-3.07c1.057,-1.267 1.832,-2.767 2.351,-4.463c0.51,-1.712 0.765,-3.533 0.765,-5.483c0,-3.125 -0.701,-5.475 -2.113,-7.034c-1.421,-1.566 -3.462,-2.35 -6.14,-2.35c-1.03,0 -2.041,0.171 -3.016,0.5c-0.993,0.33 -1.859,0.83 -2.606,1.496c-0.747,0.663 -1.366,1.484 -1.831,2.45c-0.446,0.984 -0.683,2.113 -0.683,3.396c0,1.267 0.191,2.363 0.565,3.3c0.373,0.921 0.874,1.692 1.512,2.313c0.629,0.6 1.366,1.066 2.205,1.375c0.838,0.312 1.704,0.475 2.633,0.475c0.637,-0 1.211,-0.075 1.703,-0.221c0.483,-0.134 0.92,-0.317 1.294,-0.534c0.383,-0.237 0.701,-0.475 0.975,-0.741c0.264,-0.271 0.491,-0.546 0.692,-0.829c-0.182,0.904 -0.465,1.758 -0.875,2.57c-0.41,0.821 -0.938,1.542 -1.594,2.167c-0.647,0.638 -1.439,1.15 -2.369,1.533c-0.938,0.384 -1.995,0.6 -3.17,0.646c-0.2,0.621 -0.291,1.192 -0.291,1.704c-0,0.363 0.045,0.709 0.109,1.055c0.082,0.345 0.173,0.695 0.282,1.029Zm-14.849,-11.988c1.066,0 1.922,-0.316 2.551,-0.937c0.628,-0.646 0.948,-1.584 0.948,-2.85c-0,-1.35 -0.31,-2.379 -0.921,-3.109c-0.601,-0.712 -1.421,-1.075 -2.459,-1.075c-0.975,0 -1.804,0.33 -2.469,1.005c-0.656,0.662 -0.994,1.666 -0.994,3.02c0,1.413 0.32,2.425 0.948,3.034c0.629,0.612 1.43,0.912 2.396,0.912Zm-4.446,11.988c2.168,-0.079 4.054,-0.509 5.648,-1.284c1.595,-0.775 2.916,-1.795 3.972,-3.07c1.039,-1.267 1.822,-2.767 2.342,-4.463c0.519,-1.712 0.774,-3.533 0.774,-5.483c0,-3.125 -0.71,-5.475 -2.131,-7.034c-1.413,-1.566 -3.453,-2.35 -6.123,-2.35c-1.038,0 -2.049,0.171 -3.024,0.5c-0.993,0.33 -1.859,0.83 -2.615,1.496c-0.747,0.663 -1.348,1.484 -1.813,2.45c-0.464,0.984 -0.692,2.113 -0.692,3.396c-0,1.267 0.201,2.363 0.574,3.3c0.373,0.921 0.875,1.692 1.503,2.313c0.638,0.6 1.367,1.066 2.205,1.375c0.838,0.312 1.703,0.475 2.632,0.475c0.638,-0 1.212,-0.075 1.704,-0.221c0.492,-0.134 0.929,-0.317 1.303,-0.534c0.373,-0.237 0.692,-0.475 0.956,-0.741c0.274,-0.271 0.501,-0.546 0.702,-0.829c-0.173,0.904 -0.465,1.758 -0.875,2.57c-0.4,0.821 -0.938,1.542 -1.585,2.167c-0.656,0.638 -1.448,1.15 -2.387,1.533c-0.92,0.384 -1.977,0.6 -3.161,0.646c-0.191,0.621 -0.291,1.192 -0.291,1.704c-0,0.363 0.036,0.709 0.118,1.055c0.073,0.345 0.173,0.695 0.264,1.029Zm-11.278,-7.042l-2.114,8.238c0.365,0.083 0.711,0.137 1.039,0.154c0.337,0.016 0.674,0.037 1.011,0.037c0.337,0 0.693,-0.021 1.066,-0.037c0.365,-0.017 0.729,-0.071 1.093,-0.154l2.342,-8.238c-0.365,-0.079 -0.747,-0.133 -1.157,-0.171c-0.401,-0.029 -0.775,-0.046 -1.121,-0.046c-0.346,0 -0.701,0.017 -1.066,0.046c-0.364,0.038 -0.729,0.092 -1.093,0.171Zm-20.689,4.146l0.219,0.483l14.685,0c0.137,-0.637 0.2,-1.312 0.2,-2.021c0,-0.62 -0.063,-1.25 -0.2,-1.895l-6.842,-0l1.704,-2.288c0.638,-0.846 1.23,-1.65 1.749,-2.387c0.529,-0.738 0.984,-1.446 1.376,-2.159c0.383,-0.691 0.674,-1.391 0.893,-2.096c0.218,-0.708 0.318,-1.445 0.318,-2.22c0,-1.05 -0.191,-1.971 -0.573,-2.755c-0.392,-0.783 -0.93,-1.42 -1.631,-1.937c-0.693,-0.521 -1.522,-0.904 -2.487,-1.142c-0.966,-0.246 -2.014,-0.371 -3.152,-0.371c-0.611,0 -1.167,0.025 -1.658,0.08c-0.474,0.058 -0.939,0.129 -1.394,0.22c-0.447,0.1 -0.884,0.238 -1.33,0.392c-0.438,0.163 -0.92,0.338 -1.43,0.529c0.036,0.646 0.163,1.275 0.364,1.896c0.209,0.617 0.446,1.238 0.728,1.829c0.347,-0.146 0.675,-0.275 0.975,-0.4c0.31,-0.121 0.629,-0.208 0.948,-0.3c0.328,-0.091 0.665,-0.158 1.02,-0.2c0.355,-0.037 0.765,-0.058 1.239,-0.058c1.139,-0 2.013,0.246 2.651,0.742c0.629,0.479 0.939,1.191 0.939,2.083c-0,0.537 -0.101,1.067 -0.301,1.596c-0.21,0.529 -0.501,1.083 -0.902,1.696c-0.401,0.616 -0.874,1.283 -1.458,2.012c-0.573,0.729 -1.238,1.575 -1.967,2.533l-4.683,6.138Zm138.845,4.946l0,4.966l48.667,0l-0,-4.966l-48.667,-0Zm0,-7.988l0,3.954l48.667,0l-0,-3.954l-48.667,0Zm65.796,-143.575l-7.362,17.575c0.654,0.5 1.329,0.884 2.041,1.154c0.692,0.284 1.429,0.513 2.196,0.675l9.446,-22.937l-0.2,-0.383l-15.796,-0c-0.137,0.637 -0.192,1.291 -0.192,1.995c0,0.638 0.055,1.275 0.192,1.921l9.675,0Zm-21.612,7.45c1.075,0 1.925,-0.308 2.562,-0.946c0.629,-0.629 0.946,-1.575 0.946,-2.841c-0,-1.359 -0.308,-2.388 -0.908,-3.109c-0.621,-0.708 -1.442,-1.075 -2.463,-1.075c-0.983,0 -1.812,0.338 -2.475,0.996c-0.675,0.671 -0.996,1.675 -0.996,3.025c0,1.421 0.313,2.429 0.95,3.034c0.629,0.616 1.429,0.916 2.384,0.916Zm-4.425,11.992c2.158,-0.083 4.033,-0.513 5.629,-1.288c1.604,-0.762 2.933,-1.791 3.983,-3.066c1.046,-1.275 1.821,-2.763 2.338,-4.467c0.512,-1.704 0.775,-3.533 0.775,-5.483c-0,-3.125 -0.709,-5.475 -2.13,-7.034c-1.404,-1.566 -3.454,-2.341 -6.133,-2.341c-1.029,-0 -2.029,0.154 -3.025,0.483c-0.983,0.346 -1.85,0.838 -2.596,1.504c-0.754,0.667 -1.358,1.484 -1.821,2.459c-0.454,0.966 -0.683,2.095 -0.683,3.391c0,1.267 0.183,2.359 0.554,3.288c0.375,0.937 0.884,1.712 1.513,2.312c0.637,0.621 1.366,1.075 2.204,1.396c0.829,0.3 1.712,0.454 2.633,0.454c0.646,0 1.204,-0.062 1.704,-0.2c0.492,-0.146 0.93,-0.329 1.305,-0.554c0.383,-0.221 0.691,-0.467 0.966,-0.737c0.263,-0.267 0.492,-0.538 0.684,-0.813c-0.167,0.892 -0.459,1.75 -0.859,2.567c-0.408,0.812 -0.946,1.541 -1.596,2.171c-0.654,0.629 -1.445,1.137 -2.375,1.52c-0.941,0.384 -1.995,0.6 -3.17,0.638c-0.192,0.629 -0.292,1.192 -0.292,1.712c-0,0.367 0.037,0.721 0.117,1.059c0.075,0.346 0.154,0.683 0.275,1.029Zm-11.28,-7.033l-2.133,8.216c0.367,0.092 0.729,0.146 1.058,0.163c0.33,0.029 0.667,0.037 1.005,0.037c0.345,0 0.7,-0.008 1.062,-0.037c0.367,-0.017 0.721,-0.071 1.088,-0.163l2.35,-8.216c-0.367,-0.092 -0.75,-0.146 -1.159,-0.184c-0.4,-0.037 -0.783,-0.046 -1.121,-0.046c-0.345,0 -0.7,0.009 -1.058,0.046c-0.362,0.038 -0.725,0.092 -1.092,0.184Zm-10.612,-12.409l-7.363,17.575c0.667,0.5 1.35,0.884 2.05,1.154c0.692,0.284 1.421,0.513 2.196,0.675l9.446,-22.937l-0.187,-0.383l-15.817,-0c-0.117,0.637 -0.183,1.291 -0.183,1.995c-0,0.638 0.066,1.275 0.183,1.921l9.675,0Zm-22.812,13.175l-4.664,0c-0.064,0.363 -0.11,0.692 -0.128,0.992c-0.018,0.3 -0.027,0.608 -0.027,0.9c-0,0.346 0.009,0.667 0.027,0.967c0.018,0.3 0.064,0.637 0.128,1.004l13.693,-0c0.062,-0.367 0.108,-0.704 0.125,-1.004c0.029,-0.3 0.037,-0.621 0.037,-0.967c0,-0.292 -0.008,-0.6 -0.037,-0.9c-0.017,-0.3 -0.063,-0.629 -0.125,-0.992l-4.6,0l-0,-17.166l-0.867,-0l-9.22,4.045c0.165,0.63 0.392,1.23 0.675,1.813c0.273,0.546 0.61,1.104 1.02,1.633l3.963,-1.571l-0,11.246Zm18.395,-141.291l0.288,0.458l10.796,-0l-0,4.492c0.383,0.041 0.766,0.079 1.158,0.116c0.383,0.038 0.775,0.046 1.158,0.046c0.363,0 0.709,-0.008 1.054,-0.046c0.346,-0.037 0.692,-0.075 1.067,-0.116l0,-4.492l2.304,-0c0.075,-0.304 0.121,-0.621 0.159,-0.975c0.025,-0.338 0.041,-0.675 0.041,-0.996c0,-0.654 -0.062,-1.3 -0.2,-1.921l-2.304,0l0,-5.137c-0.383,-0.046 -0.762,-0.084 -1.158,-0.121c-0.379,-0.033 -0.763,-0.054 -1.154,-0.054c-0.367,-0 -0.713,0.021 -1.067,0.054c-0.346,0.037 -0.692,0.075 -1.058,0.121l-0,5.137l-4.6,0l6.625,-13.437c-0.605,-0.463 -1.242,-0.821 -1.913,-1.046c-0.675,-0.221 -1.367,-0.375 -2.104,-0.458l-9.092,18.375Zm-9.804,-0.292c0.983,-0 1.804,-0.325 2.479,-0.992c0.654,-0.666 0.992,-1.666 0.992,-3.025c-0,-1.412 -0.321,-2.421 -0.946,-3.033c-0.642,-0.608 -1.442,-0.913 -2.396,-0.913c-1.066,0 -1.925,0.313 -2.554,0.942c-0.637,0.638 -0.954,1.583 -0.954,2.85c-0,1.35 0.308,2.388 0.921,3.108c0.608,0.709 1.429,1.063 2.458,1.063Zm4.554,-19.958c-2.158,0.108 -4.033,0.545 -5.629,1.312c-1.604,0.754 -2.925,1.767 -3.971,3.05c-1.058,1.275 -1.833,2.763 -2.343,4.467c-0.519,1.7 -0.774,3.533 -0.774,5.483c0,3.125 0.711,5.467 2.123,7.033c1.411,1.567 3.461,2.342 6.132,2.342c1.029,0 2.05,-0.167 3.025,-0.492c0.983,-0.337 1.85,-0.829 2.596,-1.504c0.754,-0.658 1.366,-1.475 1.82,-2.45c0.455,-0.975 0.692,-2.104 0.692,-3.391c0,-1.238 -0.179,-2.33 -0.562,-3.28c-0.375,-0.937 -0.884,-1.72 -1.505,-2.333c-0.637,-0.608 -1.366,-1.062 -2.204,-1.383c-0.837,-0.3 -1.721,-0.463 -2.633,-0.463c-0.646,0 -1.213,0.071 -1.713,0.209c-0.483,0.137 -0.92,0.329 -1.295,0.545c-0.371,0.23 -0.692,0.475 -0.963,0.738c-0.267,0.275 -0.492,0.546 -0.696,0.821c0.159,-0.892 0.438,-1.75 0.859,-2.571c0.408,-0.808 0.945,-1.538 1.604,-2.167c0.654,-0.637 1.437,-1.137 2.358,-1.521c0.921,-0.383 1.988,-0.612 3.188,-0.645c0.183,-0.605 0.283,-1.167 0.283,-1.705c-0,-0.366 -0.038,-0.72 -0.108,-1.058c-0.075,-0.346 -0.175,-0.683 -0.284,-1.037Zm-20.688,18.675l-2.123,8.237c0.365,0.071 0.711,0.133 1.048,0.154c0.328,0.017 0.665,0.025 1.011,0.025c0.346,0 0.701,-0.008 1.057,-0.025c0.364,-0.021 0.729,-0.083 1.093,-0.154l2.35,-8.237c-0.364,-0.092 -0.756,-0.138 -1.156,-0.171c-0.41,-0.029 -0.784,-0.046 -1.13,-0.046c-0.338,-0 -0.693,0.017 -1.057,0.046c-0.364,0.033 -0.729,0.079 -1.093,0.171Zm-12.499,1.283c0.984,-0 1.804,-0.325 2.469,-0.992c0.665,-0.666 1.002,-1.666 1.002,-3.025c-0,-1.412 -0.319,-2.421 -0.957,-3.033c-0.62,-0.608 -1.421,-0.913 -2.396,-0.913c-1.066,0 -1.922,0.313 -2.551,0.942c-0.628,0.638 -0.938,1.583 -0.938,2.85c-0,1.35 0.301,2.388 0.911,3.108c0.61,0.709 1.421,1.063 2.46,1.063Zm4.564,-19.958c-2.178,0.108 -4.054,0.545 -5.639,1.312c-1.604,0.754 -2.924,1.767 -3.972,3.05c-1.048,1.275 -1.831,2.763 -2.351,4.467c-0.51,1.7 -0.774,3.533 -0.774,5.483c0,3.125 0.711,5.467 2.132,7.033c1.412,1.567 3.452,2.342 6.131,2.342c1.029,0 2.04,-0.167 3.015,-0.492c0.993,-0.337 1.868,-0.829 2.615,-1.504c0.747,-0.658 1.348,-1.475 1.813,-2.45c0.465,-0.975 0.692,-2.104 0.692,-3.391c0,-1.238 -0.191,-2.33 -0.565,-3.28c-0.382,-0.937 -0.874,-1.72 -1.512,-2.333c-0.628,-0.608 -1.366,-1.062 -2.205,-1.383c-0.838,-0.3 -1.703,-0.463 -2.633,-0.463c-0.637,0 -1.211,0.071 -1.694,0.209c-0.501,0.137 -0.938,0.329 -1.312,0.545c-0.373,0.23 -0.692,0.475 -0.956,0.738c-0.273,0.275 -0.501,0.546 -0.702,0.821c0.155,-0.892 0.437,-1.75 0.857,-2.571c0.419,-0.808 0.956,-1.538 1.612,-2.167c0.647,-0.637 1.44,-1.137 2.36,-1.521c0.91,-0.383 1.985,-0.612 3.179,-0.645c0.191,-0.605 0.292,-1.167 0.292,-1.705c-0,-0.366 -0.037,-0.72 -0.119,-1.058c-0.073,-0.346 -0.164,-0.683 -0.264,-1.037Zm-83.439,20.158l0.173,0.375l11.506,-0c0.091,-0.492 0.136,-1.029 0.136,-1.575c0,-0.483 -0.045,-0.983 -0.136,-1.496l-5.366,0l1.33,-1.775c0.501,-0.675 0.966,-1.296 1.376,-1.875c0.41,-0.575 0.765,-1.142 1.065,-1.687c0.301,-0.546 0.538,-1.092 0.702,-1.65c0.173,-0.555 0.255,-1.13 0.255,-1.738c0,-0.812 -0.146,-1.542 -0.446,-2.15c-0.31,-0.604 -0.738,-1.121 -1.276,-1.521c-0.546,-0.404 -1.193,-0.696 -1.949,-0.896c-0.756,-0.191 -1.576,-0.291 -2.46,-0.291c-0.492,-0 -0.92,0.029 -1.303,0.066c-0.373,0.046 -0.738,0.109 -1.093,0.18c-0.346,0.075 -0.692,0.175 -1.038,0.304c-0.347,0.116 -0.729,0.262 -1.121,0.416c0.027,0.492 0.128,0.992 0.291,1.488c0.146,0.479 0.347,0.954 0.556,1.429c0.283,-0.121 0.529,-0.221 0.774,-0.312c0.247,-0.1 0.483,-0.18 0.738,-0.246c0.255,-0.063 0.52,-0.109 0.793,-0.146c0.274,-0.033 0.602,-0.054 0.975,-0.054c0.884,-0 1.576,0.191 2.068,0.575c0.501,0.391 0.747,0.937 0.747,1.641c-0,0.417 -0.082,0.838 -0.246,1.246c-0.155,0.413 -0.392,0.859 -0.692,1.329c-0.319,0.475 -0.693,1.013 -1.148,1.58c-0.456,0.57 -0.975,1.229 -1.54,1.983l-3.671,4.8Zm-9.958,-2.642l-3.662,0c-0.046,0.292 -0.073,0.55 -0.091,0.784c-0.018,0.237 -0.027,0.475 -0.027,0.704c-0,0.271 0.009,0.516 0.027,0.754c0.018,0.237 0.045,0.492 0.091,0.775l10.723,-0c0.054,-0.283 0.091,-0.538 0.1,-0.775c0.018,-0.238 0.027,-0.483 0.027,-0.754c0,-0.229 -0.009,-0.467 -0.027,-0.704c-0.009,-0.234 -0.046,-0.492 -0.1,-0.784l-3.59,0l0,-13.425l-0.692,0l-7.215,3.171c0.137,0.479 0.318,0.954 0.528,1.408c0.219,0.43 0.492,0.859 0.811,1.275l3.097,-1.237l0,8.808Zm-11.351,-0.6l-1.658,6.442c0.283,0.071 0.556,0.108 0.82,0.129c0.255,0.017 0.519,0.025 0.793,0.025c0.264,0 0.537,-0.008 0.829,-0.025c0.282,-0.021 0.564,-0.058 0.847,-0.129l1.84,-6.442c-0.291,-0.062 -0.592,-0.108 -0.902,-0.137c-0.319,-0.025 -0.619,-0.046 -0.884,-0.046c-0.264,-0 -0.546,0.021 -0.837,0.046c-0.283,0.029 -0.565,0.075 -0.848,0.137Zm-17.209,1.238l0.219,0.35l8.463,-0l0,3.516c0.301,0.034 0.602,0.063 0.902,0.088c0.301,0.029 0.601,0.037 0.902,0.037c0.291,0 0.565,-0.008 0.829,-0.037c0.273,-0.025 0.556,-0.054 0.838,-0.088l0,-3.516l1.804,-0c0.055,-0.238 0.091,-0.484 0.118,-0.75c0.028,-0.279 0.037,-0.538 0.037,-0.784c-0,-0.529 -0.055,-1.029 -0.155,-1.512l-1.804,-0l0,-4.025c-0.3,-0.038 -0.601,-0.063 -0.911,-0.083c-0.3,-0.025 -0.601,-0.038 -0.902,-0.038c-0.291,0 -0.565,0.013 -0.829,0.038c-0.264,0.02 -0.547,0.045 -0.829,0.083l0,4.025l-3.598,-0l5.183,-10.521c-0.473,-0.362 -0.974,-0.637 -1.503,-0.812c-0.528,-0.18 -1.075,-0.3 -1.649,-0.363l-7.115,14.392Zm81.863,125.966c1.066,0 1.923,-0.316 2.56,-0.954c0.629,-0.629 0.939,-1.587 0.939,-2.846c-0,-1.354 -0.301,-2.387 -0.911,-3.095c-0.611,-0.721 -1.431,-1.084 -2.46,-1.084c-0.975,0 -1.804,0.338 -2.478,1c-0.665,0.659 -0.993,1.667 -0.993,3.017c-0,1.412 0.319,2.433 0.957,3.042c0.628,0.612 1.421,0.92 2.386,0.92Zm-4.436,11.98c2.159,-0.092 4.045,-0.509 5.639,-1.284c1.594,-0.766 2.916,-1.796 3.972,-3.071c1.048,-1.275 1.831,-2.758 2.341,-4.47c0.52,-1.696 0.775,-3.517 0.775,-5.475c-0,-3.125 -0.711,-5.475 -2.123,-7.046c-1.412,-1.554 -3.462,-2.329 -6.14,-2.329c-1.02,-0 -2.032,0.154 -3.016,0.491c-0.983,0.329 -1.858,0.829 -2.605,1.484c-0.747,0.675 -1.348,1.487 -1.813,2.47c-0.465,0.975 -0.683,2.096 -0.683,3.388c-0,1.267 0.173,2.371 0.555,3.287c0.374,0.942 0.875,1.713 1.504,2.317c0.637,0.617 1.375,1.075 2.204,1.392c0.838,0.312 1.713,0.458 2.633,0.458c0.647,0 1.212,-0.075 1.713,-0.204c0.491,-0.146 0.92,-0.317 1.294,-0.554c0.382,-0.217 0.701,-0.463 0.965,-0.738c0.265,-0.262 0.501,-0.537 0.692,-0.821c-0.164,0.905 -0.464,1.767 -0.874,2.58c-0.401,0.812 -0.929,1.537 -1.576,2.166c-0.665,0.629 -1.458,1.142 -2.387,1.521c-0.938,0.392 -1.986,0.604 -3.17,0.65c-0.183,0.617 -0.283,1.183 -0.283,1.704c0,0.363 0.037,0.717 0.11,1.054c0.073,0.346 0.163,0.684 0.273,1.03Zm-20.407,-23.359l-0.483,12.271l0.483,0.383c0.602,-0.3 1.203,-0.5 1.786,-0.629c0.583,-0.116 1.193,-0.162 1.813,-0.162c1.585,-0 2.733,0.291 3.434,0.891c0.711,0.605 1.066,1.442 1.066,2.534c0,0.5 -0.082,0.975 -0.255,1.437c-0.173,0.459 -0.465,0.859 -0.875,1.213c-0.41,0.366 -0.929,0.65 -1.567,0.858c-0.646,0.217 -1.448,0.317 -2.413,0.317c-0.747,-0 -1.458,-0.063 -2.123,-0.217c-0.665,-0.154 -1.367,-0.354 -2.123,-0.612c-0.246,0.62 -0.492,1.25 -0.701,1.895c-0.219,0.646 -0.355,1.296 -0.419,1.959c0.491,0.175 1.001,0.329 1.539,0.446c0.537,0.137 1.048,0.237 1.53,0.312c0.483,0.071 0.93,0.125 1.349,0.163c0.419,0.029 0.765,0.045 1.048,0.045c1.503,0 2.851,-0.175 4.063,-0.52c1.211,-0.338 2.241,-0.855 3.088,-1.538c0.847,-0.683 1.494,-1.529 1.959,-2.533c0.455,-1.013 0.692,-2.179 0.692,-3.517c0,-1.083 -0.182,-2.05 -0.519,-2.887c-0.346,-0.83 -0.82,-1.53 -1.43,-2.105c-0.611,-0.566 -1.349,-0.991 -2.196,-1.283c-0.857,-0.283 -1.822,-0.429 -2.87,-0.429c-0.319,-0 -0.628,0.008 -0.92,0.046c-0.309,0.037 -0.656,0.091 -1.039,0.171l0.201,-4.6l7.379,-0c0.137,-0.638 0.201,-1.3 0.201,-1.984c-0,-0.65 -0.064,-1.287 -0.201,-1.925l-11.497,0Zm-10.157,16.325l-2.114,8.217c0.355,0.092 0.71,0.146 1.038,0.175c0.329,0.017 0.675,0.029 1.021,0.029c0.337,0 0.692,-0.012 1.056,-0.029c0.356,-0.029 0.73,-0.083 1.085,-0.175l2.35,-8.217c-0.364,-0.091 -0.747,-0.146 -1.157,-0.179c-0.41,-0.037 -0.783,-0.058 -1.12,-0.058c-0.346,-0 -0.693,0.021 -1.057,0.058c-0.364,0.033 -0.729,0.088 -1.102,0.179Zm-12.755,1.159c1.084,-0 1.941,-0.567 2.551,-1.696c0.62,-1.121 0.92,-2.867 0.92,-5.246c0,-2.388 -0.3,-4.138 -0.92,-5.258c-0.61,-1.13 -1.467,-1.692 -2.551,-1.692c-1.12,-0 -1.995,0.562 -2.624,1.692c-0.628,1.12 -0.947,2.87 -0.947,5.258c-0,2.379 0.328,4.125 0.966,5.246c0.638,1.129 1.512,1.696 2.605,1.696Zm-0.073,3.854c1.44,-0 2.688,-0.275 3.763,-0.804c1.084,-0.538 1.949,-1.292 2.633,-2.25c0.692,-0.963 1.202,-2.105 1.548,-3.425c0.338,-1.321 0.511,-2.759 0.511,-4.317c-0,-1.567 -0.164,-3.017 -0.483,-4.346c-0.319,-1.321 -0.82,-2.471 -1.513,-3.442c-0.682,-0.958 -1.548,-1.712 -2.596,-2.262c-1.047,-0.546 -2.296,-0.808 -3.726,-0.808c-1.458,-0 -2.715,0.262 -3.78,0.808c-1.057,0.55 -1.932,1.304 -2.615,2.262c-0.683,0.971 -1.203,2.121 -1.549,3.442c-0.337,1.329 -0.51,2.779 -0.51,4.346c0,1.558 0.173,2.996 0.492,4.317c0.337,1.32 0.838,2.462 1.512,3.425c0.675,0.958 1.54,1.712 2.587,2.25c1.048,0.529 2.296,0.804 3.726,0.804Zm-20.588,-4.238l-4.665,0c-0.063,0.367 -0.109,0.692 -0.136,0.984c-0.019,0.3 -0.027,0.612 -0.027,0.912c-0,0.338 0.008,0.654 0.027,0.954c0.027,0.304 0.073,0.642 0.136,1.004l13.693,0c0.064,-0.362 0.1,-0.7 0.118,-1.004c0.028,-0.3 0.037,-0.616 0.037,-0.954c-0,-0.3 -0.009,-0.612 -0.037,-0.912c-0.018,-0.292 -0.054,-0.617 -0.118,-0.984l-4.601,0l0,-17.171l-0.865,0l-9.229,4.046c0.173,0.625 0.392,1.229 0.684,1.813c0.273,0.546 0.61,1.1 1.02,1.629l3.963,-1.575l-0,11.258Zm76.506,113.804l-75.495,0l0,-0.758l-41.177,0l-0,19.433l23.093,21.984l93.579,-0l0,-40.659Zm-72.151,-10.083l-0,4.963l72.151,-0l0,-4.963l-72.151,0Zm72.151,-7.992l-72.151,0l-0,3.955l72.151,-0l0,-3.955Zm-79.385,-7.533l83.758,0l0,4.946l7.151,-0l0,-205.129l16.362,-0l0,5.446l-10.914,-0l0,199.683l2.706,-0l0,47.092l29.152,-0l0,-5.667l56.026,-0l0,5.667l35.988,-0l-0,-246.775l-77.629,-0l-0,-5.446l77.629,-0l-0,-3.946l13.937,-0l0,276.108l-13.937,0l-0,-0.266l-38.583,-0l-0,0.266l-50.834,0l0,-0.266l-147.575,-0l0.009,-0.025l-25.909,-24.417l-0.073,-0l0,-315.517l12.263,0l-0,-0.383l285.919,-0l-0,13.937l-21.28,0l0,11.034l-13.937,-0l-0,-11.034l-167.636,0l-0,11.842l-5.457,0l-0,-11.842l-70.194,0l0,100.25l70.194,0l-0,-60.758l5.457,0l-0,60.758l1.366,0l-0,5.455l-77.017,-0l0,98.445l25.709,0l0,25.671l-25.709,0l0,30.046l23.058,0l-0,-5.175Zm81.462,138.863l42.134,-0l0,36.358l-42.134,-0l0,-36.358Zm145.004,73.666l-12.625,-17.621l-31.604,0l44.229,61.667l0,-44.046Zm-1.008,92.775l-79.167,-110.396l-31.595,0l79.158,110.396l31.604,0Zm-67.546,0l-79.164,-110.396l-31.604,0l79.167,110.396l31.601,0Zm-67.549,0l-79.167,-110.396l-31.594,0l79.167,110.396l31.594,0Zm-67.542,0l-44.23,-61.666l0,44.05l12.627,17.616l31.603,0Zm-53.64,6.05l-0,-122.483l266.69,-0l-0,122.483l-266.69,0Zm-29.836,-630.416l326.367,-0c29.838,-0 54.142,24.312 54.142,54.141l-0,339.85c-0,29.829 -24.313,54.142 -54.142,54.142l-326.367,-0c-29.835,-0 -54.141,-24.313 -54.141,-54.142l-0,-339.85c-0,-29.829 24.306,-54.141 54.141,-54.141Zm49.677,281.666l-0.163,-0.158l0.163,0.158Zm13.629,12.671l-0.155,-0.146l0.155,0.146Zm-14.093,-12.671l0.163,-0.158l-0.163,0.158Zm0.163,12.671l-0.163,-0.146l0.163,0.146Zm13.775,-25.662l0.155,-0.155l-0.155,0.155Zm-13.637,12.679l0.163,-0.154l-0.163,0.154Zm0.163,-12.679l-0.163,-0.155l0.163,0.155Zm13.629,12.679l-0.155,-0.154l0.155,0.154Zm-14.093,-12.679l0.163,-0.155l-0.163,0.155Zm0.163,12.679l-0.163,-0.154l0.163,0.154Zm0.138,12.983l0.163,-0.146l-0.163,0.146Z" style="fill:#b23838;"/><path d="M1157.23,1876.29c0,-0.005 0.004,-0.009 0.004,-0.009c0.005,-0.004 0.009,-0.004 0.013,-0.004c0.004,0 0.008,0 0.008,0.004c0.004,0 0.004,0.004 0.004,0.009l0,0.008c0,0.004 -0.004,0.004 -0.004,0.004c-0.004,0.004 -0.004,0.004 -0.008,0.004c-0.004,0 -0.008,0 -0.008,-0.004c-0.005,0 -0.005,0 -0.005,-0.004c-0.004,-0 -0.004,-0.004 -0.004,-0.008Zm0.009,-0c-0,0.004 -0,0.004 0.004,0.008l0.008,-0l0,-0.013c0,-0.004 -0.004,-0.004 -0.004,-0.004l-0.008,0.009Zm0.025,0.016l-0,-0.029l0.02,0l0.009,0.008l-0.009,0.009l0.005,-0l-0,0.004l0.004,0.008l-0.009,0l-0.004,-0.008c0,-0.004 -0.004,-0.004 -0.004,-0.004l0,0.012l-0.012,0Zm0.012,-0.016c0.004,-0 0.004,-0 0.004,-0.005l0.004,0l-0.004,-0.004l-0.004,0l0,0.009Z" style="fill-rule:nonzero;"/><path d="M1347.55,1967.29l50.429,-0l0,13.258l-16.921,0l0,40.429l-16.587,0l-0,-40.429l-16.921,0l0,-13.258Zm57.933,-0l44.459,-0l-0,11.462l-27.829,0l-0,8.534l25.816,-0l0,10.95l-25.816,-0l-0,10.583l28.637,-0l0,12.158l-45.267,0l0,-53.687Zm87.271,44.825l-18.896,-0l-2.6,8.862l-16.958,0l20.179,-53.687l18.092,-0l20.179,53.687l-17.358,0l-2.638,-8.862Zm-3.479,-11.609l-5.933,-19.3l-5.896,19.3l11.829,0Zm28.638,-33.216l21.825,-0l8.425,32.666l8.383,-32.666l21.754,-0l0,53.687l-13.55,0l0,-40.941l-10.508,40.941l-12.271,0l-10.471,-40.941l0,40.941l-13.587,0l-0,-53.687Z" style="fill-rule:nonzero;"/><text x="98.831px" y="831.766px" style="font-family:'Poppins-Bold', 'Poppins';font-weight:700;font-size:75px;">NACRTI</text><text x="1380.88px" y="119.802px" style="font-family:'Poppins-Bold', 'Poppins';font-weight:700;font-size:75px;">GRAĐEVINA</text><path d="M1804.16,2020.98l16.666,29.167l16.667,-29.167l-0,54.167l-33.333,-0l-0,-54.167Z" style="fill:#fffefe;fill-rule:nonzero;"/><path d="M1591.66,2191.81l8.333,15.704l8.333,-15.704l0,29.166l-16.666,0l-0,-29.166Z" style="fill:#fffefe;fill-rule:nonzero;"/><path d="M2029.16,2191.81l8.333,15.704l8.333,-15.704l0,29.166l-16.666,0l-0,-29.166Z" style="fill:#fffefe;fill-rule:nonzero;"/><path d="M2147.3,185.231l6.063,0l2.341,9.074l2.33,-9.074l6.041,0l0,14.913l-3.762,-0l-0,-11.373l-2.921,11.373l-3.408,-0l-2.909,-11.373l0,11.373l-3.775,-0l0,-14.913Zm23.225,7.609l-3.958,-0.417c0.15,-0.692 0.362,-1.234 0.642,-1.628c0.283,-0.4 0.691,-0.746 1.22,-1.037c0.38,-0.21 0.9,-0.373 1.567,-0.489c0.663,-0.115 1.383,-0.173 2.154,-0.173c1.242,0 2.238,0.072 2.992,0.214c0.754,0.136 1.379,0.424 1.883,0.865c0.35,0.305 0.629,0.739 0.834,1.302c0.204,0.556 0.304,1.089 0.304,1.597l-0,4.771c-0,0.509 0.033,0.909 0.091,1.2c0.067,0.285 0.213,0.651 0.43,1.099l-3.888,-0c-0.154,-0.278 -0.258,-0.488 -0.304,-0.631c-0.05,-0.149 -0.096,-0.379 -0.142,-0.692c-0.546,0.523 -1.083,0.896 -1.616,1.12c-0.734,0.298 -1.588,0.447 -2.555,0.447c-1.291,0 -2.27,-0.298 -2.941,-0.895c-0.663,-0.597 -0.996,-1.333 -0.996,-2.207c-0,-0.821 0.242,-1.496 0.721,-2.025c0.483,-0.529 1.371,-0.922 2.666,-1.18c1.555,-0.312 2.559,-0.529 3.021,-0.651c0.463,-0.129 0.95,-0.295 1.467,-0.499c-0,-0.508 -0.108,-0.864 -0.317,-1.067c-0.212,-0.204 -0.579,-0.305 -1.108,-0.305c-0.679,-0 -1.188,0.108 -1.525,0.325c-0.267,0.17 -0.479,0.488 -0.642,0.956Zm3.592,2.177c-0.571,0.204 -1.167,0.383 -1.783,0.539c-0.842,0.224 -1.371,0.444 -1.596,0.661c-0.229,0.224 -0.346,0.479 -0.346,0.763c-0,0.326 0.112,0.594 0.337,0.804c0.23,0.203 0.563,0.305 1.005,0.305c0.462,-0 0.887,-0.112 1.283,-0.335c0.4,-0.224 0.679,-0.495 0.846,-0.814c0.166,-0.326 0.254,-0.746 0.254,-1.262l-0,-0.661Zm6.529,-5.676l3.854,-0l0,1.76c0.579,-0.719 1.163,-1.231 1.75,-1.537c0.592,-0.311 1.309,-0.468 2.159,-0.468c1.145,0 2.041,0.343 2.683,1.028c0.654,0.678 0.979,1.73 0.979,3.154l0,6.866l-4.162,-0l-0,-5.941c-0,-0.678 -0.125,-1.156 -0.375,-1.434c-0.25,-0.285 -0.605,-0.428 -1.059,-0.428c-0.504,0 -0.908,0.19 -1.221,0.57c-0.312,0.38 -0.466,1.062 -0.466,2.045l-0,5.188l-4.142,-0l0,-10.803Zm17.671,3.499l-3.958,-0.417c0.15,-0.692 0.362,-1.234 0.641,-1.628c0.284,-0.4 0.692,-0.746 1.221,-1.037c0.379,-0.21 0.9,-0.373 1.567,-0.489c0.662,-0.115 1.383,-0.173 2.154,-0.173c1.242,0 2.237,0.072 2.992,0.214c0.754,0.136 1.379,0.424 1.883,0.865c0.35,0.305 0.629,0.739 0.833,1.302c0.204,0.556 0.304,1.089 0.304,1.597l0,4.771c0,0.509 0.03,0.909 0.092,1.2c0.067,0.285 0.213,0.651 0.429,1.099l-3.887,-0c-0.154,-0.278 -0.259,-0.488 -0.304,-0.631c-0.05,-0.149 -0.096,-0.379 -0.142,-0.692c-0.546,0.523 -1.083,0.896 -1.621,1.12c-0.729,0.298 -1.583,0.447 -2.55,0.447c-1.292,0 -2.271,-0.298 -2.942,-0.895c-0.662,-0.597 -0.995,-1.333 -0.995,-2.207c-0,-0.821 0.241,-1.496 0.72,-2.025c0.484,-0.529 1.371,-0.922 2.667,-1.18c1.554,-0.312 2.558,-0.529 3.021,-0.651c0.462,-0.129 0.95,-0.295 1.462,-0.499c0,-0.508 -0.104,-0.864 -0.312,-1.067c-0.213,-0.204 -0.579,-0.305 -1.108,-0.305c-0.68,-0 -1.188,0.108 -1.53,0.325c-0.262,0.17 -0.475,0.488 -0.637,0.956Zm3.587,2.177c-0.566,0.204 -1.162,0.383 -1.779,0.539c-0.841,0.224 -1.371,0.444 -1.596,0.661c-0.229,0.224 -0.345,0.479 -0.345,0.763c-0,0.326 0.112,0.594 0.333,0.804c0.233,0.203 0.567,0.305 1.008,0.305c0.463,-0 0.888,-0.112 1.284,-0.335c0.4,-0.224 0.679,-0.495 0.841,-0.814c0.171,-0.326 0.254,-0.746 0.254,-1.262l0,-0.661Zm5.8,2.136l4.109,-0.386c0.171,0.488 0.408,0.837 0.712,1.047c0.309,0.211 0.713,0.316 1.221,0.316c0.558,-0 0.988,-0.119 1.292,-0.356c0.237,-0.177 0.358,-0.397 0.358,-0.661c0,-0.299 -0.158,-0.529 -0.471,-0.692c-0.221,-0.115 -0.816,-0.258 -1.779,-0.427c-1.437,-0.251 -2.437,-0.482 -3,-0.692c-0.554,-0.217 -1.029,-0.58 -1.412,-1.088c-0.38,-0.509 -0.571,-1.089 -0.571,-1.74c-0,-0.712 0.208,-1.326 0.621,-1.841c0.412,-0.516 0.983,-0.899 1.708,-1.15c0.725,-0.257 1.7,-0.387 2.921,-0.387c1.287,0 2.237,0.099 2.846,0.295c0.616,0.197 1.129,0.503 1.537,0.916c0.413,0.414 0.754,0.973 1.029,1.679l-3.929,0.386c-0.1,-0.346 -0.271,-0.6 -0.508,-0.763c-0.325,-0.217 -0.717,-0.325 -1.179,-0.325c-0.467,-0 -0.813,0.085 -1.03,0.254c-0.208,0.163 -0.312,0.363 -0.312,0.6c-0,0.265 0.133,0.465 0.404,0.601c0.271,0.135 0.863,0.257 1.771,0.365c1.375,0.157 2.4,0.374 3.071,0.652c0.675,0.278 1.183,0.674 1.537,1.19c0.359,0.515 0.538,1.081 0.538,1.699c-0,0.624 -0.188,1.231 -0.567,1.821c-0.375,0.59 -0.967,1.061 -1.783,1.413c-0.804,0.346 -1.909,0.519 -3.304,0.519c-1.975,0 -3.38,-0.281 -4.221,-0.844c-0.834,-0.563 -1.371,-1.363 -1.609,-2.401Z" style="fill:#fff;fill-rule:nonzero;"/><path d="M2128.33,184.678l6.25,8.974l6.25,-8.974l0,16.667l-12.5,-0l0,-16.667Z" style="fill:#fffefe;fill-rule:nonzero;"/><path d="M382.106,1380.53l6.25,8.975l6.25,-8.975l-0,16.667l-12.5,-0l-0,-16.667Z" style="fill:#fffefe;fill-rule:nonzero;"/></g></svg>