<svg width="646" height="646" viewBox="0 0 646 646" fill="none" xmlns="http://www.w3.org/2000/svg">
<g clip-path="url(#clip0)">
<path d="M347.311 581.406C490.726 581.406 606.987 465.146 606.987 321.73C606.987 178.315 490.726 62.0544 347.311 62.0544C203.896 62.0544 87.6349 178.315 87.6349 321.73C87.6349 465.146 203.896 581.406 347.311 581.406Z" stroke="black" stroke-width="3" stroke-miterlimit="1.5" stroke-linecap="round" stroke-linejoin="round"/>
<path d="M520.289 422.482H338.856V635.667H520.289V422.482Z" fill="white" stroke="white" stroke-width="0.00431585" stroke-miterlimit="1.5" stroke-linecap="round" stroke-linejoin="round"/>
<path d="M576.016 13.9676H394.583V227.152H576.016V13.9676Z" fill="white" stroke="white" stroke-width="0.00431585" stroke-miterlimit="1.5" stroke-linecap="round" stroke-linejoin="round"/>
<path d="M366.725 15.3087H366.727V15.3127C366.727 15.3131 366.727 15.3135 366.727 15.3139C366.726 15.3142 366.726 15.3146 366.726 15.3148C366.726 15.3151 366.725 15.3153 366.725 15.3154C366.725 15.3155 366.724 15.3156 366.724 15.3156C366.723 15.3156 366.723 15.3156 366.723 15.3155C366.722 15.3155 366.722 15.3154 366.722 15.3153C366.721 15.3151 366.721 15.3149 366.721 15.3147C366.721 15.3144 366.72 15.3142 366.72 15.3139C366.72 15.3135 366.72 15.3131 366.72 15.3127V15.3087H366.722V15.3128C366.722 15.3132 366.722 15.3135 366.723 15.3137C366.723 15.3139 366.723 15.314 366.723 15.314C366.724 15.314 366.724 15.3139 366.724 15.3137C366.725 15.3135 366.725 15.3132 366.725 15.3128V15.3087ZM366.728 15.3087H366.73V15.3155H366.728V15.3087Z" fill="black"/>
<path fill-rule="evenodd" clip-rule="evenodd" d="M375.106 575.63L381.18 602.821H355.484C355.492 599.566 355.507 589.659 355.527 589.439C356.534 578.647 367.146 581.039 375.106 575.63ZM383.851 576.899L383.434 576.887L381.213 580.172L381.269 581.008L383.108 582.874L381.047 586.188L381.822 602.821H385.555L386.246 586.204L384.185 582.889L386.023 581.022L386.08 580.188L383.851 576.899ZM383.647 536.184C390.359 536.184 395.829 542.706 396.072 549.414C395.767 549.337 395.441 549.298 395.1 549.298H372.193C371.853 549.298 371.527 549.337 371.221 549.414C371.465 542.706 376.934 536.184 383.647 536.184ZM372.193 550.681C371.268 550.681 370.512 551.047 370.512 552.082C370.512 556.849 396.782 556.804 396.782 552.082C396.782 551.047 396.025 550.681 395.1 550.681H372.193ZM392.176 575.63C400.136 581.039 410.746 578.647 411.753 589.439C411.774 589.659 411.789 599.566 411.798 602.821H386.101L392.176 575.63ZM383.82 572.336C383.779 572.339 383.739 572.339 383.699 572.339C382.214 572.349 381.475 572.325 380.669 571.984C379.889 571.653 379.511 570.886 378.438 569.854C377.525 568.976 375.888 568.079 375.489 567.122C375.003 565.958 375.118 564.689 374.912 562.994C374.066 563.46 373.159 561.038 372.98 560.242C372.714 559.072 371.87 557.076 371.606 555.738C371.564 555.529 371.542 555.332 371.536 555.151C375.067 556.904 381.472 557.026 383.651 557.024C385.815 557.022 392.195 556.891 395.732 555.151C395.725 555.333 395.702 555.529 395.661 555.738C395.398 557.076 394.552 559.072 394.287 560.242C394.109 561.028 393.222 563.406 392.384 563.008C392.198 564.652 392.3 565.888 391.828 567.034C391.431 567.995 389.805 568.902 388.899 569.789C387.831 570.835 387.454 571.602 386.679 571.945C385.904 572.284 385.192 572.331 383.82 572.336Z" fill="#B23838" stroke="white" stroke-width="0.000282585" stroke-miterlimit="2" stroke-linejoin="round"/>
<path fill-rule="evenodd" clip-rule="evenodd" d="M480.652 575.623L486.735 602.935H461C461.008 599.666 461.023 589.715 461.043 589.493C462.052 578.653 472.68 581.056 480.652 575.623ZM489.41 576.898L488.993 576.885L486.768 580.185L486.824 581.024L488.666 582.899L486.602 586.228L487.378 602.935H491.117L491.808 586.244L489.744 582.914L491.586 581.039L491.642 580.201L489.41 576.898ZM489.206 536C495.929 536 501.407 542.551 501.649 549.289C501.345 549.213 501.017 549.173 500.676 549.173H477.734C477.394 549.173 477.067 549.213 476.761 549.289C477.005 542.551 482.483 536 489.206 536ZM477.734 550.562C476.808 550.562 476.051 550.93 476.051 551.97C476.051 556.758 502.361 556.712 502.361 551.97C502.361 550.93 501.603 550.562 500.676 550.562H477.734ZM497.748 575.623C505.72 581.056 516.346 578.653 517.355 589.493C517.376 589.715 517.391 599.666 517.399 602.935H491.663L497.748 575.623ZM489.379 572.314C489.338 572.317 489.298 572.317 489.258 572.317C487.77 572.327 487.031 572.303 486.223 571.961C485.443 571.628 485.063 570.858 483.989 569.821C483.075 568.939 481.435 568.038 481.035 567.077C480.549 565.907 480.664 564.633 480.458 562.93C479.61 563.398 478.702 560.966 478.522 560.166C478.256 558.99 477.411 556.986 477.147 555.642C477.105 555.432 477.083 555.234 477.076 555.053C480.613 556.813 487.028 556.936 489.21 556.934C491.377 556.931 497.766 556.8 501.309 555.053C501.302 555.235 501.279 555.432 501.238 555.642C500.974 556.986 500.127 558.99 499.863 560.166C499.684 560.956 498.795 563.344 497.956 562.945C497.77 564.596 497.872 565.837 497.399 566.988C497.002 567.954 495.373 568.864 494.465 569.756C493.396 570.807 493.019 571.577 492.243 571.922C491.466 572.262 490.753 572.309 489.379 572.314Z" fill="#B23838" stroke="white" stroke-width="0.000283433" stroke-miterlimit="2" stroke-linejoin="round"/>
<path fill-rule="evenodd" clip-rule="evenodd" d="M533.091 118.547L523.606 97.4787L514.126 118.547H533.091ZM514.13 121.09L523.606 142.141L533.082 121.09H514.13ZM528.211 56.8638L523.606 46.6379L519.004 56.8638H528.211ZM526.827 47.6109L530.992 56.8638H538.961L526.827 47.6109ZM531.667 64.5491H515.545L513.555 68.9678L523.606 91.2977L533.659 68.9678L531.667 64.5491ZM513.435 92.45H521.343L513.435 74.8821V92.45ZM513.435 113.897L521.944 94.9928H513.435V113.897ZM533.777 94.9928H525.27L533.777 113.897V94.9928ZM533.777 74.8821L525.871 92.45H533.777V74.8821ZM509.114 45.4113V56.8638H516.223L521.645 44.8144H512.189L509.114 45.4113ZM505.142 56.8638V46.1831L450.103 56.8638H505.142ZM525.207 144.769H533.777V125.725L525.207 144.769ZM513.435 144.769H522.008L513.435 125.723V144.769ZM510.894 144.769V120.078L510.774 119.811L510.894 119.542V69.2367L510.774 68.9678L510.894 68.7011V64.5491H509.114V144.769H510.894ZM565.539 150.948L561.267 146.485H550.576L565.539 162.109V150.948ZM565.198 174.452L538.412 146.485H527.723L554.509 174.452H565.198ZM542.346 174.452L515.56 146.485H504.868L531.656 174.452H542.346ZM519.491 174.452L492.705 146.485H482.014L508.802 174.452H519.491ZM496.639 174.452L481.673 158.827V169.989L485.949 174.452H496.639ZM440.935 138.594L440.876 138.597H436.947L436.945 139.79C436.945 140.33 437.205 140.873 437.962 141.382C438.725 141.898 439.989 142.381 440.428 142.565C442.912 143.617 443.767 146.995 441.447 149.467C439.263 151.348 436.641 151.007 434.94 150.086C433.027 149.05 432.413 147.128 432.155 147.336C431.245 148.062 431.86 151.221 434.05 153.235C437.332 156.258 443.795 155.83 446.528 151.053C447.75 148.914 447.932 146.218 446.996 143.925C445.573 140.429 443.29 140.252 441.301 138.988C441.121 138.874 441.008 138.741 440.935 138.594ZM436.781 129.291C435.994 129.291 435.349 129.934 435.349 130.721V135.251C435.349 136.041 435.994 136.683 436.781 136.683H440.876C441.663 136.683 442.306 136.041 442.306 135.251V130.721C442.306 129.934 441.663 129.291 440.876 129.291H436.781ZM434.647 56.8638H436.781L505.142 43.5988V43.5485H505.4L511.813 42.3044L511.915 42.2848H512.051L523.591 42.2804H524.019L524.358 42.5406L543.144 56.8638H543.806L549.266 60.7075L543.806 64.5491V64.5469V64.5491H536.32V68.7033L536.44 68.9678L536.32 69.2345V119.544L536.44 119.811L536.32 120.075V144.769H567.354V176.17H479.86V144.769H505.142V64.5491H440.509V127.378H437.146V64.5491H434.647L429.19 60.7075L434.647 56.8638Z" fill="#B23838"/>
<path fill-rule="evenodd" clip-rule="evenodd" d="M422.771 558.871L432.606 602.898H391C391.013 597.628 391.038 581.587 391.07 581.231C392.701 563.756 409.883 567.629 422.771 558.871ZM436.931 560.926L436.257 560.907L432.66 566.226L432.75 567.579L435.728 570.6L432.391 575.967L433.646 602.898H439.69L440.809 575.992L437.472 570.625L440.448 567.602L440.54 566.251L436.931 560.926ZM436.601 495C447.47 495 456.326 505.561 456.719 516.422C456.226 516.299 455.697 516.234 455.145 516.234H418.055C417.505 516.234 416.976 516.299 416.481 516.422C416.876 505.561 425.732 495 436.601 495ZM418.055 518.474C416.557 518.474 415.333 519.067 415.333 520.743C415.333 528.461 457.869 528.388 457.869 520.743C457.869 519.067 456.643 518.474 455.145 518.474H418.055ZM450.411 558.871C463.299 567.629 480.48 563.756 482.11 581.231C482.144 581.587 482.168 597.628 482.182 602.898H440.574L450.411 558.871ZM436.88 553.538C436.814 553.543 436.75 553.543 436.685 553.543C434.28 553.559 433.085 553.52 431.778 552.968C430.517 552.432 429.904 551.19 428.167 549.518C426.689 548.097 424.038 546.645 423.392 545.095C422.605 543.21 422.791 541.156 422.458 538.411C421.087 539.165 419.619 535.244 419.329 533.956C418.899 532.06 417.532 528.829 417.105 526.662C417.037 526.324 417.001 526.004 416.99 525.712C422.709 528.551 433.079 528.748 436.608 528.745C440.112 528.741 450.441 528.529 456.168 525.712C456.158 526.006 456.12 526.324 456.054 526.662C455.627 528.829 454.258 532.06 453.83 533.956C453.541 535.228 452.104 539.078 450.747 538.434C450.446 541.096 450.611 543.097 449.848 544.952C449.204 546.509 446.572 547.977 445.104 549.414C443.375 551.108 442.766 552.35 441.511 552.905C440.255 553.454 439.103 553.529 436.88 553.538Z" fill="#B23838" stroke="white" stroke-width="0.000282324" stroke-miterlimit="2" stroke-linejoin="round"/>
<path d="M185.028 209.015H3.59509V422.199H185.028V209.015Z" fill="white" stroke="white" stroke-width="0.00431585" stroke-miterlimit="1.5" stroke-linecap="round" stroke-linejoin="round"/>
<path d="M0.000723785 199.118H0.00384627C0.00446179 199.118 0.00495824 199.118 0.00533559 199.118C0.00571604 199.118 0.00602999 199.119 0.00627744 199.119C0.00652489 199.119 0.00670429 199.12 0.00681564 199.12C0.00692699 199.121 0.00698267 199.121 0.00698267 199.121C0.00698267 199.122 0.00689915 199.123 0.00673213 199.123C0.00656819 199.124 0.0063393 199.124 0.00604546 199.124C0.00575161 199.124 0.00543612 199.125 0.00509897 199.125C0.0046381 199.125 0.00422053 199.125 0.00384627 199.125H0.000723785V199.118ZM0.00282554 199.12V199.123H0.00334055C0.00377977 199.123 0.00409217 199.123 0.00427775 199.123C0.00446334 199.123 0.00460872 199.123 0.00471388 199.123C0.00481905 199.122 0.00487163 199.122 0.00487163 199.121C0.00487163 199.121 0.00475409 199.12 0.00451902 199.12C0.00428394 199.12 0.00389421 199.12 0.00334982 199.12H0.00282554ZM0.00811938 199.125V199.118H0.0116223C0.0122719 199.118 0.0127683 199.118 0.0131116 199.118C0.013455 199.118 0.0137318 199.119 0.0139421 199.119C0.0141525 199.119 0.0142576 199.12 0.0142576 199.12C0.0142576 199.12 0.0141772 199.121 0.0140164 199.121C0.0138555 199.121 0.0136344 199.121 0.0133529 199.122C0.0131735 199.122 0.0129276 199.122 0.0126152 199.122C0.0128657 199.122 0.0130482 199.122 0.0131627 199.122C0.01324 199.122 0.0133514 199.122 0.0134967 199.122C0.0136452 199.123 0.0137442 199.123 0.0137937 199.123L0.0148098 199.125H0.0124343L0.0113115 199.123C0.0111692 199.123 0.0110424 199.122 0.010931 199.122C0.0107794 199.122 0.0106078 199.122 0.010416 199.122H0.0102304V199.125H0.00811938ZM0.0102304 199.121H0.0111166C0.0112125 199.121 0.0113981 199.121 0.0116734 199.121C0.0118125 199.121 0.0119254 199.121 0.012012 199.121C0.0121017 199.12 0.0121466 199.12 0.0121466 199.12C0.0121466 199.12 0.012077 199.12 0.0119378 199.12C0.0117986 199.12 0.0115373 199.119 0.0111537 199.119H0.0102304V199.121ZM0.0196721 199.124H0.017278L0.0169486 199.125H0.0148005L0.0173569 199.118H0.0196489L0.0222053 199.125H0.0200062L0.0196721 199.124ZM0.0192313 199.122L0.0184797 199.12L0.0177327 199.122H0.0192313ZM0.022892 199.118H0.0280884V199.12H0.0250031V199.121H0.0276384V199.122H0.0250031V199.125H0.022892V199.118ZM0.0287426 199.118H0.0351314V199.12H0.0329879V199.125H0.0308861V199.12H0.0287426V199.118ZM0.0357206 199.123L0.0377203 199.123C0.0377636 199.123 0.0378518 199.123 0.0379848 199.123C0.0382013 199.124 0.0385106 199.124 0.0389127 199.124C0.0392127 199.124 0.0394432 199.124 0.039604 199.123C0.039768 199.123 0.0398499 199.123 0.0398499 199.123C0.0398499 199.123 0.0397726 199.123 0.0396179 199.122C0.0394633 199.122 0.0391045 199.122 0.0385415 199.122C0.0376198 199.122 0.0369625 199.122 0.0365697 199.121C0.0361738 199.121 0.0359758 199.12 0.0359758 199.12C0.0359758 199.12 0.0360763 199.119 0.0362774 199.119C0.0364815 199.119 0.0367862 199.118 0.0371914 199.118C0.0375997 199.118 0.038158 199.118 0.0388663 199.118C0.0397355 199.118 0.0403974 199.118 0.0408521 199.118C0.0413099 199.119 0.0415821 199.119 0.0416687 199.12L0.0396875 199.12C0.039635 199.12 0.0395236 199.12 0.0393535 199.119C0.0391865 199.119 0.0389545 199.119 0.0386575 199.119C0.0384132 199.119 0.0382291 199.119 0.0381054 199.119C0.0379817 199.119 0.0379198 199.12 0.0379198 199.12C0.0379198 199.12 0.0379709 199.12 0.0380729 199.12C0.0381719 199.12 0.038407 199.12 0.0387782 199.12C0.0396968 199.121 0.0403541 199.121 0.04075 199.121C0.041149 199.121 0.0414382 199.121 0.0416176 199.122C0.0418001 199.122 0.0418914 199.122 0.0418914 199.123C0.0418914 199.123 0.0417707 199.124 0.0415295 199.124C0.0412882 199.124 0.0409511 199.125 0.040518 199.125C0.040085 199.125 0.0395391 199.125 0.0388802 199.125C0.0377234 199.125 0.0369223 199.125 0.0364769 199.124C0.0360315 199.124 0.0357794 199.123 0.0357206 199.123Z" fill="black"/>
<path fill-rule="evenodd" clip-rule="evenodd" d="M54.3399 239.64H132.668C136.317 239.64 139.302 242.627 139.302 246.274V327.838C139.302 331.487 136.315 334.472 132.668 334.472H54.3399C50.6929 334.472 47.7062 331.487 47.7062 327.838V246.274C47.7062 242.625 50.6908 239.64 54.3399 239.64ZM80.5747 321.34C80.8327 321.34 81.0361 321.264 81.1869 321.115C81.3422 320.96 81.4164 320.735 81.4164 320.431C81.4164 320.107 81.3421 319.86 81.1957 319.685C81.0514 319.514 80.8524 319.427 80.6075 319.427C80.3692 319.427 80.1702 319.506 80.0128 319.668C79.8532 319.827 79.7745 320.068 79.7745 320.393C79.7745 320.732 79.8488 320.975 79.9997 321.121C80.1527 321.268 80.343 321.34 80.5747 321.34ZM79.5121 324.217C80.0303 324.198 80.4807 324.095 80.8655 323.909C81.2481 323.723 81.5652 323.478 81.8166 323.172C82.0702 322.868 82.2561 322.508 82.3807 322.101C82.5031 321.69 82.5644 321.253 82.5644 320.785C82.5644 320.035 82.396 319.471 82.0571 319.097C81.7161 318.721 81.2263 318.533 80.5835 318.533C80.3364 318.533 80.0937 318.574 79.8598 318.653C79.6215 318.732 79.4137 318.852 79.2344 319.012C79.0551 319.171 78.9065 319.368 78.795 319.6C78.6879 319.836 78.631 320.107 78.631 320.415C78.631 320.719 78.6769 320.982 78.7666 321.207C78.8562 321.428 78.9764 321.613 79.1295 321.762C79.2803 321.906 79.4574 322.018 79.6586 322.092C79.8597 322.167 80.0675 322.206 80.2905 322.206C80.4435 322.206 80.5813 322.188 80.6994 322.153C80.8152 322.121 80.9202 322.077 81.0098 322.025C81.1017 321.968 81.1782 321.911 81.2438 321.847C81.3072 321.782 81.3618 321.716 81.4099 321.648C81.3662 321.865 81.2984 322.07 81.2 322.265C81.1016 322.462 80.9748 322.635 80.8174 322.785C80.6622 322.938 80.4719 323.061 80.2489 323.153C80.0237 323.245 79.7701 323.297 79.4881 323.308C79.44 323.457 79.4181 323.594 79.4181 323.717C79.4181 323.804 79.429 323.887 79.4443 323.97C79.464 324.053 79.4859 324.137 79.5121 324.217ZM75.9483 321.34C76.2041 321.34 76.4096 321.264 76.5605 321.115C76.7113 320.96 76.7879 320.735 76.7879 320.431C76.7879 320.107 76.7135 319.86 76.567 319.685C76.4227 319.514 76.2259 319.427 75.9767 319.427C75.7427 319.427 75.5438 319.506 75.3842 319.668C75.2268 319.827 75.1458 320.068 75.1458 320.393C75.1458 320.732 75.2224 320.975 75.3732 321.121C75.5241 321.268 75.7165 321.34 75.9483 321.34ZM74.8813 324.217C75.4016 324.198 75.8542 324.095 76.2368 323.909C76.6195 323.723 76.9365 323.478 77.1901 323.172C77.4394 322.868 77.6274 322.508 77.752 322.101C77.8766 321.69 77.9379 321.253 77.9379 320.785C77.9379 320.035 77.7674 319.471 77.4263 319.097C77.0874 318.721 76.5976 318.533 75.957 318.533C75.7078 318.533 75.4651 318.574 75.2311 318.653C74.9928 318.732 74.785 318.852 74.6036 319.012C74.4243 319.171 74.28 319.368 74.1685 319.6C74.057 319.836 74.0023 320.107 74.0023 320.415C74.0023 320.719 74.0505 320.982 74.1401 321.207C74.2297 321.428 74.35 321.613 74.5008 321.762C74.6539 321.906 74.8288 322.018 75.0299 322.092C75.2311 322.167 75.4388 322.206 75.6618 322.206C75.8149 322.206 75.9526 322.188 76.0707 322.153C76.1888 322.121 76.2937 322.077 76.3834 322.025C76.473 321.968 76.5495 321.911 76.6129 321.847C76.6785 321.782 76.7331 321.716 76.7812 321.648C76.7397 321.865 76.6698 322.07 76.5714 322.265C76.4752 322.462 76.3462 322.635 76.1909 322.785C76.0335 322.938 75.8433 323.061 75.6181 323.153C75.3973 323.245 75.1436 323.297 74.8594 323.308C74.8135 323.457 74.7895 323.594 74.7895 323.717C74.7895 323.804 74.7982 323.887 74.8179 323.97C74.8354 324.053 74.8594 324.137 74.8813 324.217ZM72.1745 322.527L71.6672 324.504C71.7547 324.524 71.8378 324.537 71.9165 324.541C71.9974 324.545 72.0783 324.55 72.1592 324.55C72.2401 324.55 72.3254 324.545 72.415 324.541C72.5025 324.537 72.5899 324.524 72.6774 324.504L73.2393 322.527C73.1518 322.508 73.06 322.495 72.9616 322.486C72.8654 322.479 72.7757 322.475 72.6927 322.475C72.6096 322.475 72.5243 322.479 72.4368 322.486C72.3494 322.495 72.2619 322.508 72.1745 322.527ZM67.2091 323.522L67.2616 323.638H70.7861C70.8189 323.485 70.8342 323.323 70.8342 323.153C70.8342 323.004 70.8189 322.853 70.7861 322.698H69.1441L69.5529 322.149C69.706 321.946 69.8482 321.753 69.9728 321.576C70.0996 321.399 70.2089 321.229 70.3029 321.058C70.3948 320.892 70.4647 320.724 70.5172 320.555C70.5697 320.385 70.5937 320.208 70.5937 320.022C70.5937 319.77 70.5478 319.549 70.456 319.361C70.362 319.173 70.2329 319.02 70.0646 318.896C69.8984 318.771 69.6994 318.679 69.4677 318.622C69.2359 318.563 68.9845 318.533 68.7112 318.533C68.5647 318.533 68.4313 318.539 68.3133 318.552C68.1996 318.566 68.088 318.583 67.9787 318.605C67.8716 318.629 67.7666 318.662 67.6595 318.699C67.5546 318.738 67.4387 318.78 67.3163 318.826C67.325 318.981 67.3556 319.132 67.4037 319.281C67.454 319.429 67.5109 319.578 67.5786 319.72C67.6617 319.685 67.7404 319.654 67.8126 319.624C67.8869 319.595 67.9635 319.574 68.04 319.552C68.1187 319.53 68.1996 319.514 68.2849 319.504C68.3701 319.495 68.4685 319.49 68.5822 319.49C68.8555 319.49 69.0654 319.549 69.2185 319.668C69.3693 319.783 69.4437 319.954 69.4437 320.168C69.4437 320.297 69.4196 320.424 69.3715 320.551C69.3212 320.678 69.2513 320.811 69.1551 320.958C69.0589 321.106 68.9452 321.266 68.8052 321.441C68.6675 321.616 68.5079 321.819 68.333 322.049L67.2091 323.522ZM100.532 324.709V325.901H112.212V324.709H100.532ZM100.532 322.792V323.741H112.212V322.792H100.532ZM116.323 288.334L114.556 292.552C114.713 292.672 114.875 292.764 115.046 292.829C115.212 292.897 115.389 292.952 115.573 292.991L117.84 287.486L117.792 287.394H114.001C113.968 287.547 113.955 287.704 113.955 287.873C113.955 288.026 113.968 288.179 114.001 288.334H116.323ZM111.136 290.122C111.394 290.122 111.598 290.048 111.751 289.895C111.902 289.744 111.978 289.517 111.978 289.213C111.978 288.887 111.904 288.64 111.76 288.467C111.611 288.297 111.414 288.209 111.169 288.209C110.933 288.209 110.734 288.29 110.575 288.448C110.413 288.609 110.336 288.85 110.336 289.174C110.336 289.515 110.411 289.757 110.564 289.902C110.715 290.05 110.907 290.122 111.136 290.122ZM110.074 293C110.592 292.98 111.042 292.877 111.425 292.691C111.81 292.508 112.129 292.261 112.381 291.955C112.632 291.649 112.818 291.292 112.942 290.883C113.065 290.474 113.128 290.035 113.128 289.567C113.128 288.817 112.958 288.253 112.617 287.879C112.28 287.503 111.788 287.317 111.145 287.317C110.898 287.317 110.658 287.354 110.419 287.433C110.183 287.516 109.975 287.634 109.796 287.794C109.615 287.954 109.47 288.15 109.359 288.384C109.25 288.616 109.195 288.887 109.195 289.198C109.195 289.502 109.239 289.764 109.328 289.987C109.418 290.212 109.54 290.398 109.691 290.542C109.844 290.691 110.019 290.8 110.22 290.877C110.419 290.949 110.631 290.986 110.852 290.986C111.007 290.986 111.141 290.971 111.261 290.938C111.379 290.903 111.484 290.859 111.574 290.805C111.666 290.752 111.74 290.693 111.806 290.628C111.869 290.564 111.924 290.499 111.97 290.433C111.93 290.647 111.86 290.853 111.764 291.049C111.666 291.244 111.537 291.419 111.381 291.57C111.224 291.721 111.034 291.843 110.811 291.935C110.585 292.027 110.332 292.079 110.05 292.088C110.004 292.239 109.98 292.374 109.98 292.499C109.98 292.587 109.989 292.672 110.008 292.753C110.026 292.836 110.045 292.917 110.074 293ZM107.367 291.312L106.855 293.284C106.943 293.306 107.03 293.319 107.109 293.323C107.188 293.33 107.269 293.332 107.35 293.332C107.433 293.332 107.518 293.33 107.605 293.323C107.693 293.319 107.778 293.306 107.866 293.284L108.43 291.312C108.342 291.29 108.25 291.277 108.152 291.268C108.056 291.259 107.964 291.257 107.883 291.257C107.8 291.257 107.715 291.259 107.629 291.268C107.542 291.277 107.455 291.29 107.367 291.312ZM104.82 288.334L103.053 292.552C103.213 292.672 103.377 292.764 103.545 292.829C103.711 292.897 103.886 292.952 104.072 292.991L106.339 287.486L106.294 287.394H102.498C102.47 287.547 102.454 287.704 102.454 287.873C102.454 288.026 102.47 288.179 102.498 288.334H104.82ZM99.3451 291.496H98.2257C98.2104 291.583 98.1994 291.662 98.1951 291.734C98.1907 291.806 98.1885 291.88 98.1885 291.95C98.1885 292.033 98.1907 292.11 98.1951 292.182C98.1994 292.254 98.2104 292.335 98.2257 292.423H101.512C101.527 292.335 101.538 292.254 101.542 292.182C101.549 292.11 101.551 292.033 101.551 291.95C101.551 291.88 101.549 291.806 101.542 291.734C101.538 291.662 101.527 291.583 101.512 291.496H100.408V287.376H100.2L97.9873 288.347C98.0267 288.498 98.0814 288.642 98.1491 288.782C98.2147 288.913 98.2956 289.047 98.394 289.174L99.3451 288.797V291.496ZM103.76 257.586L103.829 257.696H106.42V258.774C106.512 258.784 106.604 258.793 106.698 258.802C106.79 258.811 106.884 258.813 106.976 258.813C107.063 258.813 107.146 258.811 107.229 258.802C107.312 258.793 107.395 258.784 107.485 258.774V257.696H108.038C108.056 257.623 108.067 257.547 108.076 257.462C108.082 257.381 108.086 257.3 108.086 257.223C108.086 257.066 108.071 256.911 108.038 256.762H107.485V255.529C107.393 255.518 107.302 255.509 107.207 255.5C107.116 255.492 107.024 255.487 106.93 255.487C106.842 255.487 106.759 255.492 106.674 255.5C106.591 255.509 106.508 255.518 106.42 255.529V256.762H105.316L106.906 253.537C106.761 253.426 106.608 253.34 106.447 253.286C106.285 253.233 106.119 253.196 105.942 253.176L103.76 257.586ZM101.407 257.516C101.643 257.516 101.84 257.438 102.002 257.278C102.159 257.118 102.24 256.878 102.24 256.552C102.24 256.213 102.163 255.971 102.013 255.824C101.859 255.678 101.667 255.605 101.438 255.605C101.182 255.605 100.976 255.68 100.825 255.831C100.672 255.984 100.596 256.211 100.596 256.515C100.596 256.839 100.67 257.088 100.817 257.261C100.963 257.431 101.16 257.516 101.407 257.516ZM102.5 252.726C101.982 252.752 101.532 252.857 101.149 253.041C100.764 253.222 100.447 253.465 100.196 253.773C99.942 254.079 99.7561 254.436 99.6337 254.845C99.5091 255.253 99.4479 255.693 99.4479 256.161C99.4479 256.911 99.6184 257.473 99.9573 257.849C100.296 258.225 100.788 258.411 101.429 258.411C101.676 258.411 101.921 258.371 102.155 258.293C102.391 258.212 102.599 258.094 102.778 257.932C102.959 257.774 103.106 257.578 103.215 257.344C103.324 257.11 103.381 256.839 103.381 256.53C103.381 256.233 103.338 255.971 103.246 255.743C103.156 255.518 103.034 255.33 102.885 255.183C102.732 255.037 102.557 254.928 102.356 254.851C102.155 254.779 101.943 254.74 101.724 254.74C101.569 254.74 101.433 254.757 101.313 254.79C101.197 254.823 101.092 254.869 101.002 254.921C100.913 254.976 100.836 255.035 100.771 255.098C100.707 255.164 100.653 255.229 100.604 255.295C100.642 255.081 100.709 254.875 100.81 254.678C100.908 254.484 101.037 254.309 101.195 254.158C101.352 254.005 101.54 253.885 101.761 253.793C101.982 253.701 102.238 253.646 102.526 253.638C102.57 253.493 102.594 253.358 102.594 253.229C102.594 253.141 102.585 253.056 102.568 252.975C102.55 252.892 102.526 252.811 102.5 252.726ZM97.5348 257.208L97.0253 259.185C97.1128 259.202 97.1959 259.217 97.2768 259.222C97.3555 259.226 97.4364 259.228 97.5195 259.228C97.6026 259.228 97.6878 259.226 97.7731 259.222C97.8605 259.217 97.948 259.202 98.0355 259.185L98.5995 257.208C98.5121 257.186 98.4181 257.175 98.3219 257.167C98.2235 257.16 98.1338 257.156 98.0507 257.156C97.9698 257.156 97.8846 257.16 97.7971 257.167C97.7097 257.175 97.6222 257.186 97.5348 257.208ZM94.535 257.516C94.7711 257.516 94.9679 257.438 95.1275 257.278C95.2872 257.118 95.368 256.878 95.368 256.552C95.368 256.213 95.2915 255.971 95.1384 255.824C94.9897 255.678 94.7973 255.605 94.5634 255.605C94.3076 255.605 94.1021 255.68 93.9512 255.831C93.8003 255.984 93.726 256.211 93.726 256.515C93.726 256.839 93.7982 257.088 93.9447 257.261C94.0911 257.431 94.2857 257.516 94.535 257.516ZM95.6304 252.726C95.1078 252.752 94.6574 252.857 94.277 253.041C93.8922 253.222 93.5752 253.465 93.3237 253.773C93.0723 254.079 92.8843 254.436 92.7596 254.845C92.6372 255.253 92.5738 255.693 92.5738 256.161C92.5738 256.911 92.7443 257.473 93.0854 257.849C93.4243 258.225 93.914 258.411 94.5569 258.411C94.8039 258.411 95.0466 258.371 95.2805 258.293C95.5189 258.212 95.7288 258.094 95.9081 257.932C96.0874 257.774 96.2317 257.578 96.3432 257.344C96.4547 257.11 96.5093 256.839 96.5093 256.53C96.5093 256.233 96.4634 255.971 96.3738 255.743C96.2819 255.518 96.1639 255.33 96.0108 255.183C95.86 255.037 95.6829 254.928 95.4817 254.851C95.2806 254.779 95.0729 254.74 94.8498 254.74C94.6968 254.74 94.559 254.757 94.4432 254.79C94.3229 254.823 94.218 254.869 94.1283 254.921C94.0387 254.976 93.9622 255.035 93.8987 255.098C93.8332 255.164 93.7785 255.229 93.7304 255.295C93.7676 255.081 93.8353 254.875 93.9359 254.678C94.0365 254.484 94.1655 254.309 94.3229 254.158C94.4782 254.005 94.6684 253.885 94.8892 253.793C95.1078 253.701 95.3658 253.646 95.6523 253.638C95.6982 253.493 95.7223 253.358 95.7223 253.229C95.7223 253.141 95.7135 253.056 95.6938 252.975C95.6763 252.892 95.6544 252.811 95.6304 252.726ZM75.605 257.564L75.6465 257.654H78.408C78.4299 257.536 78.4407 257.407 78.4407 257.276C78.4407 257.16 78.4299 257.04 78.408 256.917H77.1201L77.4394 256.491C77.5597 256.329 77.6711 256.18 77.7695 256.041C77.8679 255.903 77.9532 255.767 78.0253 255.636C78.0975 255.505 78.1543 255.374 78.1937 255.24C78.2352 255.107 78.2549 254.969 78.2549 254.823C78.2549 254.628 78.2199 254.453 78.1478 254.307C78.0734 254.162 77.9707 254.038 77.8417 253.942C77.7105 253.845 77.5552 253.775 77.3738 253.727C77.1923 253.681 76.9955 253.657 76.7835 253.657C76.6654 253.657 76.5626 253.664 76.4708 253.673C76.3811 253.684 76.2937 253.699 76.2084 253.716C76.1253 253.734 76.0423 253.758 75.9592 253.789C75.8761 253.817 75.7843 253.852 75.6902 253.889C75.6968 254.007 75.7209 254.127 75.7602 254.246C75.7952 254.361 75.8433 254.475 75.8936 254.589C75.9614 254.56 76.0204 254.536 76.0794 254.514C76.1385 254.49 76.1953 254.471 76.2565 254.455C76.3177 254.44 76.3812 254.429 76.4468 254.42C76.5124 254.412 76.5911 254.407 76.6807 254.407C76.8928 254.407 77.0589 254.453 77.177 254.545C77.2972 254.639 77.3563 254.77 77.3563 254.939C77.3563 255.039 77.3367 255.14 77.2973 255.238C77.2601 255.337 77.2032 255.444 77.1311 255.557C77.0546 255.671 76.9649 255.8 76.8556 255.936C76.7463 256.073 76.6217 256.231 76.4861 256.412L75.605 257.564ZM73.2152 256.93H72.3363C72.3253 257 72.3188 257.062 72.3144 257.118C72.31 257.175 72.3079 257.232 72.3079 257.287C72.3079 257.352 72.31 257.411 72.3144 257.468C72.3188 257.525 72.3253 257.586 72.3363 257.654H74.9097C74.9228 257.586 74.9315 257.525 74.9337 257.468C74.9381 257.411 74.9403 257.352 74.9403 257.287C74.9403 257.232 74.9381 257.175 74.9337 257.118C74.9315 257.062 74.9228 257 74.9097 256.93H74.0482V253.708H73.8821L72.1505 254.469C72.1833 254.584 72.2269 254.698 72.2772 254.807C72.3297 254.91 72.3953 255.013 72.4719 255.113L73.2152 254.816V256.93ZM70.491 256.786L70.093 258.332C70.1608 258.349 70.2264 258.358 70.2898 258.363C70.351 258.367 70.4144 258.369 70.48 258.369C70.5434 258.369 70.609 258.367 70.679 258.363C70.7468 258.358 70.8145 258.349 70.8823 258.332L71.3239 256.786C71.254 256.771 71.1818 256.76 71.1075 256.753C71.031 256.747 70.9588 256.742 70.8954 256.742C70.832 256.742 70.7642 256.747 70.6943 256.753C70.6265 256.76 70.5587 256.771 70.491 256.786ZM66.3608 257.083L66.4132 257.167H68.4445V258.011C68.5166 258.019 68.5888 258.026 68.6609 258.032C68.7331 258.039 68.8052 258.041 68.8774 258.041C68.9473 258.041 69.0129 258.039 69.0763 258.032C69.1419 258.026 69.2097 258.019 69.2775 258.011V257.167H69.7104C69.7235 257.11 69.7323 257.051 69.7388 256.987C69.7454 256.92 69.7476 256.858 69.7476 256.799C69.7476 256.672 69.7345 256.552 69.7104 256.436H69.2775V255.47C69.2054 255.461 69.1332 255.455 69.0589 255.45C68.9867 255.444 68.9146 255.441 68.8424 255.441C68.7724 255.441 68.7068 255.444 68.6434 255.45C68.58 255.455 68.5122 255.461 68.4445 255.47V256.436H67.5808L68.8249 253.911C68.7112 253.824 68.591 253.758 68.4641 253.716C68.3373 253.673 68.2061 253.644 68.0684 253.629L66.3608 257.083ZM86.0079 287.315C86.2638 287.315 86.4693 287.239 86.6223 287.086C86.7732 286.935 86.8475 286.705 86.8475 286.403C86.8475 286.078 86.7754 285.83 86.6289 285.66C86.4824 285.487 86.2856 285.4 86.0386 285.4C85.8046 285.4 85.6057 285.481 85.4439 285.64C85.2842 285.798 85.2055 286.04 85.2055 286.364C85.2055 286.703 85.2821 286.948 85.4351 287.094C85.586 287.241 85.7762 287.315 86.0079 287.315ZM84.9432 290.19C85.4613 290.168 85.914 290.068 86.2966 289.882C86.6792 289.698 86.9963 289.451 87.2499 289.145C87.5013 288.839 87.6893 288.483 87.8118 288.072C87.9364 287.665 87.9976 287.228 87.9976 286.758C87.9976 286.008 87.827 285.444 87.4882 285.067C87.1493 284.694 86.6574 284.508 86.0145 284.508C85.7697 284.508 85.5269 284.545 85.2908 284.626C85.0547 284.705 84.8448 284.825 84.6655 284.982C84.4862 285.144 84.3419 285.339 84.2304 285.575C84.1189 285.809 84.0664 286.078 84.0664 286.388C84.0664 286.692 84.108 286.957 84.1998 287.177C84.2894 287.403 84.4097 287.588 84.5606 287.733C84.7136 287.881 84.8907 287.991 85.0897 288.067C85.2908 288.142 85.5007 288.177 85.7216 288.177C85.8768 288.177 86.0123 288.159 86.1326 288.128C86.2506 288.093 86.3534 288.052 86.4431 287.995C86.5349 287.943 86.6114 287.884 86.6749 287.818C86.7383 287.755 86.7951 287.689 86.841 287.621C86.8016 287.838 86.7295 288.045 86.6311 288.24C86.5349 288.435 86.4081 288.609 86.2528 288.76C86.0932 288.911 85.903 289.034 85.68 289.125C85.4548 289.219 85.2034 289.27 84.9191 289.281C84.8754 289.429 84.8513 289.565 84.8513 289.69C84.8513 289.777 84.8601 289.862 84.8776 289.943C84.8951 290.026 84.9169 290.107 84.9432 290.19ZM80.0456 284.584L79.9297 287.529L80.0456 287.621C80.1899 287.549 80.3342 287.501 80.4741 287.47C80.614 287.442 80.7605 287.431 80.9092 287.431C81.2896 287.431 81.5652 287.501 81.7335 287.645C81.9041 287.79 81.9893 287.991 81.9893 288.253C81.9893 288.373 81.9696 288.487 81.9281 288.598C81.8865 288.708 81.8166 288.804 81.7182 288.889C81.6198 288.977 81.4952 289.045 81.3421 289.095C81.1869 289.147 80.9945 289.171 80.7628 289.171C80.5835 289.171 80.4129 289.156 80.2533 289.119C80.0937 289.082 79.9253 289.034 79.7439 288.972C79.6848 289.121 79.6258 289.272 79.5755 289.427C79.5231 289.582 79.4903 289.738 79.475 289.897C79.593 289.939 79.7154 289.976 79.8444 290.004C79.9734 290.037 80.0959 290.061 80.2117 290.079C80.3276 290.096 80.4348 290.109 80.5354 290.118C80.6359 290.125 80.719 290.129 80.7868 290.129C81.1475 290.129 81.4712 290.087 81.7619 290.004C82.0527 289.923 82.2998 289.799 82.5031 289.635C82.7065 289.471 82.8617 289.268 82.9732 289.027C83.0825 288.784 83.1394 288.504 83.1394 288.183C83.1394 287.923 83.0957 287.691 83.0148 287.49C82.9317 287.291 82.818 287.123 82.6715 286.985C82.525 286.849 82.3479 286.747 82.1445 286.677C81.939 286.609 81.7073 286.574 81.4558 286.574C81.3793 286.574 81.305 286.576 81.235 286.585C81.1607 286.594 81.0776 286.607 80.9857 286.626L81.0339 285.522H82.8048C82.8376 285.369 82.853 285.21 82.853 285.046C82.853 284.89 82.8376 284.737 82.8048 284.584H80.0456ZM77.6078 288.502L77.1005 290.474C77.1857 290.496 77.271 290.509 77.3497 290.516C77.4285 290.52 77.5115 290.523 77.5946 290.523C77.6755 290.523 77.7608 290.52 77.8482 290.516C77.9335 290.509 78.0232 290.496 78.1085 290.474L78.6725 288.502C78.5851 288.48 78.4932 288.467 78.3948 288.459C78.2965 288.45 78.2068 288.445 78.1259 288.445C78.0429 288.445 77.9598 288.45 77.8723 288.459C77.7849 288.467 77.6974 288.48 77.6078 288.502ZM74.5467 288.78C74.8069 288.78 75.0124 288.644 75.1589 288.373C75.3076 288.104 75.3798 287.685 75.3798 287.114C75.3798 286.541 75.3076 286.121 75.1589 285.852C75.0124 285.581 74.8069 285.446 74.5467 285.446C74.2778 285.446 74.0679 285.581 73.917 285.852C73.7662 286.121 73.6896 286.541 73.6896 287.114C73.6896 287.685 73.7684 288.104 73.9214 288.373C74.0745 288.644 74.2844 288.78 74.5467 288.78ZM74.5292 289.705C74.8747 289.705 75.1742 289.639 75.4322 289.512C75.6924 289.383 75.9001 289.202 76.0641 288.972C76.2303 288.741 76.3527 288.467 76.4358 288.15C76.5167 287.833 76.5583 287.488 76.5583 287.114C76.5583 286.738 76.5189 286.39 76.4424 286.071C76.3658 285.754 76.2456 285.478 76.0794 285.245C75.9155 285.015 75.7077 284.834 75.4563 284.702C75.2049 284.571 74.9053 284.508 74.5621 284.508C74.2122 284.508 73.9105 284.571 73.6547 284.702C73.4011 284.834 73.1912 285.015 73.0272 285.245C72.8632 285.478 72.7386 285.754 72.6555 286.071C72.5746 286.39 72.5331 286.738 72.5331 287.114C72.5331 287.488 72.5746 287.833 72.6512 288.15C72.7321 288.467 72.8523 288.741 73.0141 288.972C73.1759 289.202 73.3836 289.383 73.635 289.512C73.8864 289.639 74.186 289.705 74.5292 289.705ZM69.588 288.688H68.4685C68.4532 288.776 68.4423 288.854 68.4357 288.924C68.4313 288.996 68.4292 289.071 68.4292 289.143C68.4292 289.224 68.4313 289.3 68.4357 289.372C68.4423 289.445 68.4532 289.526 68.4685 289.613H71.7547C71.77 289.526 71.7788 289.445 71.7831 289.372C71.7897 289.3 71.7919 289.224 71.7919 289.143C71.7919 289.071 71.7897 288.996 71.7831 288.924C71.7788 288.854 71.77 288.776 71.7547 288.688H70.6506V284.567H70.4428L68.228 285.538C68.2695 285.688 68.322 285.833 68.392 285.973C68.4576 286.104 68.5385 286.237 68.6369 286.364L69.588 285.986V288.688ZM87.9495 316.001H69.8307V315.819H59.9481V320.483L65.4906 325.759H87.9495V316.001ZM70.6331 313.581V314.772H87.9495V313.581H70.6331ZM87.9495 311.663H70.6331V312.612H87.9495V311.663ZM68.897 309.855H88.999V311.042H90.7153V261.811H94.6421V263.118H92.0228V311.042H92.6722V322.344H99.6687V320.984H113.115V322.344H121.752V263.118H103.121V261.811H121.752V260.864H125.097V327.13H121.752V327.066H112.492V327.13H100.292V327.066H64.874L64.8762 327.06L58.658 321.2H58.6405V245.476H61.5835V245.384H130.204V248.729H125.097V251.377H121.752V248.729H81.5193V251.571H80.2096V248.729H63.3632V272.789H80.2096V258.207H81.5193V272.789H81.8472V274.098H63.3632V297.725H69.5333V303.886H63.3632V311.097H68.897V309.855ZM88.448 343.182H98.5602V351.908H88.448V343.182ZM123.249 360.862L120.219 356.633H112.634L123.249 371.433V360.862ZM123.007 383.128L104.007 356.633H96.4241L115.422 383.128H123.007ZM106.796 383.128L87.7965 356.633H80.2117L99.2117 383.128H106.796ZM90.5842 383.128L71.5842 356.633H64.0016L83.0016 383.128H90.5842ZM74.374 383.128L63.7589 368.328V378.9L66.7894 383.128H74.374ZM61.5004 384.58V355.184H125.506V384.58H61.5004ZM54.3399 233.28H132.668C139.829 233.28 145.662 239.115 145.662 246.274V327.838C145.662 334.997 139.827 340.832 132.668 340.832H54.3399C47.1794 340.832 41.3459 334.997 41.3459 327.838V246.274C41.3459 239.115 47.1794 233.28 54.3399 233.28ZM66.2624 300.88L66.2231 300.842L66.2624 300.88ZM69.5333 303.921L69.4961 303.886L69.5333 303.921ZM66.1509 300.88L66.1902 300.842L66.1509 300.88ZM66.1902 303.921L66.1509 303.886L66.1902 303.921ZM69.4961 297.762L69.5333 297.725L69.4961 297.762ZM66.2231 300.805L66.2624 300.768L66.2231 300.805ZM66.2624 297.762L66.2231 297.725L66.2624 297.762ZM69.5333 300.805L69.4961 300.768L69.5333 300.805ZM66.1509 297.762L66.1902 297.725L66.1509 297.762ZM66.1902 300.805L66.1509 300.768L66.1902 300.805ZM66.2231 303.921L66.2624 303.886L66.2231 303.921Z" fill="#B23838"/>
<path d="M277.736 464.274C277.736 464.273 277.737 464.272 277.737 464.272C277.738 464.271 277.739 464.271 277.74 464.271C277.741 464.271 277.742 464.271 277.742 464.272C277.743 464.272 277.743 464.273 277.743 464.274C277.743 464.275 277.743 464.276 277.743 464.276C277.743 464.277 277.742 464.277 277.742 464.277C277.741 464.278 277.741 464.278 277.74 464.278C277.739 464.278 277.738 464.278 277.738 464.277C277.737 464.277 277.737 464.277 277.737 464.276C277.736 464.276 277.736 464.275 277.736 464.274ZM277.738 464.274C277.738 464.275 277.738 464.275 277.739 464.276C277.739 464.276 277.739 464.276 277.74 464.276C277.74 464.276 277.741 464.276 277.741 464.276C277.741 464.275 277.741 464.275 277.741 464.274C277.741 464.273 277.741 464.273 277.741 464.273C277.741 464.272 277.74 464.272 277.74 464.272C277.739 464.272 277.739 464.272 277.739 464.273C277.739 464.273 277.738 464.274 277.738 464.274ZM277.744 464.278V464.271H277.748C277.749 464.271 277.749 464.271 277.749 464.271C277.75 464.271 277.75 464.271 277.75 464.272C277.751 464.272 277.751 464.272 277.751 464.273C277.751 464.273 277.751 464.273 277.75 464.274C277.75 464.274 277.75 464.274 277.75 464.274C277.75 464.274 277.749 464.275 277.749 464.275C277.749 464.275 277.749 464.275 277.75 464.275C277.75 464.275 277.75 464.275 277.75 464.275C277.75 464.275 277.75 464.276 277.75 464.276L277.751 464.278H277.749L277.748 464.276C277.748 464.275 277.747 464.275 277.747 464.275C277.747 464.275 277.747 464.275 277.747 464.275H277.747V464.278H277.744ZM277.747 464.274H277.747C277.748 464.274 277.748 464.274 277.748 464.273C277.748 464.273 277.748 464.273 277.748 464.273C277.748 464.273 277.749 464.273 277.749 464.273C277.749 464.273 277.748 464.272 277.748 464.272C277.748 464.272 277.748 464.272 277.748 464.272H277.747V464.274Z" fill="black"/>
<path d="M323.413 486.115H335.516V489.297H331.455V499H327.474V489.297H323.413V486.115ZM337.317 486.115H347.987V488.866H341.308V490.914H347.504V493.542H341.308V496.082H348.181V499H337.317V486.115ZM358.262 496.873H353.727L353.103 499H349.033L353.876 486.115H358.218L363.061 499H358.895L358.262 496.873ZM357.427 494.087L356.003 489.455L354.588 494.087H357.427ZM364.3 486.115H369.538L371.56 493.955L373.572 486.115H378.793V499H375.541V489.174L373.019 499H370.074L367.561 489.174V499H364.3V486.115Z" fill="black"/>
<path d="M5.37109 203.115H11.2861C12.4521 203.115 13.3926 203.273 14.1074 203.59C14.8281 203.906 15.4229 204.36 15.8916 204.952C16.3604 205.544 16.7002 206.232 16.9111 207.018C17.1221 207.803 17.2275 208.635 17.2275 209.514C17.2275 210.891 17.0693 211.96 16.7529 212.722C16.4424 213.478 16.0088 214.113 15.4521 214.629C14.8955 215.139 14.2979 215.479 13.6592 215.648C12.7861 215.883 11.9951 216 11.2861 216H5.37109V203.115ZM9.35254 206.033V213.073H10.3281C11.1602 213.073 11.752 212.982 12.1035 212.801C12.4551 212.613 12.7305 212.291 12.9297 211.834C13.1289 211.371 13.2285 210.624 13.2285 209.593C13.2285 208.228 13.0059 207.293 12.5605 206.789C12.1152 206.285 11.377 206.033 10.3457 206.033H9.35254ZM19.3809 216V203.115H26.0166C27.2471 203.115 28.1875 203.221 28.8379 203.432C29.4883 203.643 30.0127 204.035 30.4111 204.609C30.8096 205.178 31.0088 205.872 31.0088 206.692C31.0088 207.407 30.8564 208.025 30.5518 208.547C30.2471 209.062 29.8281 209.481 29.2949 209.804C28.9551 210.009 28.4893 210.179 27.8975 210.313C28.3721 210.472 28.7178 210.63 28.9346 210.788C29.0811 210.894 29.292 211.119 29.5674 211.465C29.8486 211.811 30.0361 212.077 30.1299 212.265L32.0547 216H27.5547L25.4277 212.062C25.1582 211.553 24.918 211.222 24.707 211.069C24.4199 210.87 24.0947 210.771 23.7314 210.771H23.3799V216H19.3809ZM23.3799 208.336H25.0586C25.2402 208.336 25.5918 208.277 26.1133 208.16C26.377 208.107 26.5908 207.973 26.7549 207.756C26.9248 207.539 27.0098 207.29 27.0098 207.009C27.0098 206.593 26.8779 206.273 26.6143 206.051C26.3506 205.828 25.8555 205.717 25.1289 205.717H23.3799V208.336ZM41.2656 213.873H36.7305L36.1064 216H32.0371L36.8799 203.115H41.2217L46.0645 216H41.8984L41.2656 213.873ZM40.4307 211.087L39.0068 206.455L37.5918 211.087H40.4307ZM47.3652 203.115H57.209V205.884H51.3643V208.134H56.3564V210.735H51.3643V216H47.3652V203.115ZM58.4482 203.115H70.5508V206.297H66.4902V216H62.5088V206.297H58.4482V203.115ZM71.667 211.737L75.4551 211.5C75.5371 212.115 75.7041 212.584 75.9561 212.906C76.3662 213.428 76.9521 213.688 77.7139 213.688C78.2822 213.688 78.7188 213.557 79.0234 213.293C79.334 213.023 79.4893 212.713 79.4893 212.361C79.4893 212.027 79.3428 211.729 79.0498 211.465C78.7568 211.201 78.0771 210.952 77.0107 210.718C75.2646 210.325 74.0195 209.804 73.2754 209.153C72.5254 208.503 72.1504 207.674 72.1504 206.666C72.1504 206.004 72.3408 205.38 72.7217 204.794C73.1084 204.202 73.6855 203.739 74.4531 203.405C75.2266 203.065 76.2842 202.896 77.626 202.896C79.2725 202.896 80.5264 203.203 81.3877 203.818C82.2549 204.428 82.7705 205.4 82.9346 206.736L79.1816 206.956C79.082 206.376 78.8711 205.954 78.5488 205.69C78.2324 205.427 77.793 205.295 77.2305 205.295C76.7676 205.295 76.4189 205.395 76.1846 205.594C75.9502 205.787 75.833 206.024 75.833 206.306C75.833 206.511 75.9297 206.695 76.123 206.859C76.3105 207.029 76.7559 207.188 77.459 207.334C79.1992 207.709 80.4443 208.09 81.1943 208.477C81.9502 208.857 82.498 209.332 82.8379 209.9C83.1836 210.469 83.3564 211.104 83.3564 211.808C83.3564 212.634 83.1279 213.396 82.6709 214.093C82.2139 214.79 81.5752 215.32 80.7549 215.684C79.9346 216.041 78.9004 216.22 77.6523 216.22C75.4609 216.22 73.9434 215.798 73.0996 214.954C72.2559 214.11 71.7783 213.038 71.667 211.737Z" fill="black"/>
<path d="M346.327 29.1152H353.78C355.022 29.1152 355.975 29.4229 356.637 30.0381C357.305 30.6533 357.639 31.415 357.639 32.3232C357.639 33.085 357.401 33.7383 356.927 34.2832C356.61 34.6465 356.147 34.9336 355.538 35.1445C356.464 35.3672 357.144 35.751 357.577 36.2959C358.017 36.835 358.236 37.5146 358.236 38.335C358.236 39.0029 358.081 39.6035 357.771 40.1367C357.46 40.6699 357.035 41.0918 356.496 41.4023C356.162 41.5957 355.658 41.7363 354.984 41.8242C354.088 41.9414 353.493 42 353.2 42H346.327V29.1152ZM350.344 34.1689H352.075C352.696 34.1689 353.127 34.0635 353.367 33.8525C353.613 33.6357 353.736 33.3252 353.736 32.9209C353.736 32.5459 353.613 32.2529 353.367 32.042C353.127 31.8311 352.705 31.7256 352.102 31.7256H350.344V34.1689ZM350.344 39.2314H352.374C353.06 39.2314 353.543 39.1113 353.824 38.8711C354.105 38.625 354.246 38.2969 354.246 37.8867C354.246 37.5059 354.105 37.2012 353.824 36.9727C353.549 36.7383 353.062 36.6211 352.365 36.6211H350.344V39.2314ZM368.238 29.1152H372.211V36.7969C372.211 37.5586 372.091 38.2793 371.851 38.959C371.616 39.6328 371.244 40.2246 370.734 40.7344C370.23 41.2383 369.7 41.5928 369.144 41.7979C368.37 42.085 367.441 42.2285 366.357 42.2285C365.73 42.2285 365.045 42.1846 364.301 42.0967C363.562 42.0088 362.944 41.8359 362.446 41.5781C361.948 41.3145 361.491 40.9424 361.075 40.4619C360.665 39.9814 360.384 39.4863 360.231 38.9766C359.985 38.1562 359.862 37.4297 359.862 36.7969V29.1152H363.835V36.9814C363.835 37.6846 364.028 38.2354 364.415 38.6338C364.808 39.0264 365.35 39.2227 366.041 39.2227C366.727 39.2227 367.263 39.0293 367.649 38.6426C368.042 38.25 368.238 37.6963 368.238 36.9814V29.1152ZM375.006 29.1152H378.996V42H375.006V29.1152ZM381.861 29.1152H385.843V38.8271H392.057V42H381.861V29.1152ZM393.92 29.1152H399.835C401.001 29.1152 401.941 29.2734 402.656 29.5898C403.377 29.9062 403.972 30.3604 404.44 30.9521C404.909 31.5439 405.249 32.2324 405.46 33.0176C405.671 33.8027 405.776 34.6348 405.776 35.5137C405.776 36.8906 405.618 37.96 405.302 38.7217C404.991 39.4775 404.558 40.1133 404.001 40.6289C403.444 41.1387 402.847 41.4785 402.208 41.6484C401.335 41.8828 400.544 42 399.835 42H393.92V29.1152ZM397.901 32.0332V39.0732H398.877C399.709 39.0732 400.301 38.9824 400.652 38.8008C401.004 38.6133 401.279 38.291 401.479 37.834C401.678 37.3711 401.777 36.624 401.777 35.5928C401.777 34.2275 401.555 33.293 401.109 32.7891C400.664 32.2852 399.926 32.0332 398.895 32.0332H397.901ZM408.035 29.1152H412.025V42H408.035V29.1152ZM414.917 29.1152H418.635L423.486 36.2432V29.1152H427.239V42H423.486L418.661 34.9248V42H414.917V29.1152ZM436.362 37.333V34.6523H442.515V40.1455C441.337 40.9482 440.294 41.4961 439.386 41.7891C438.483 42.0762 437.411 42.2197 436.169 42.2197C434.64 42.2197 433.392 41.959 432.425 41.4375C431.464 40.916 430.717 40.1396 430.184 39.1084C429.656 38.0771 429.393 36.8936 429.393 35.5576C429.393 34.1514 429.683 32.9297 430.263 31.8926C430.843 30.8496 431.692 30.0586 432.812 29.5195C433.685 29.1035 434.859 28.8955 436.336 28.8955C437.76 28.8955 438.823 29.0244 439.526 29.2822C440.235 29.54 440.821 29.9414 441.284 30.4863C441.753 31.0254 442.104 31.7109 442.339 32.543L438.498 33.2285C438.34 32.7422 438.07 32.3701 437.689 32.1123C437.314 31.8545 436.834 31.7256 436.248 31.7256C435.375 31.7256 434.678 32.0303 434.156 32.6396C433.641 33.2432 433.383 34.2012 433.383 35.5137C433.383 36.9082 433.644 37.9043 434.165 38.502C434.692 39.0996 435.425 39.3984 436.362 39.3984C436.808 39.3984 437.232 39.334 437.637 39.2051C438.041 39.0762 438.504 38.8564 439.025 38.5459V37.333H436.362Z" fill="black"/>
<path d="M433 499L437 506L441 499V512H433V499Z" fill="#FFFEFE"/>
<path d="M382 540L384 543.769L386 540V547H382V540Z" fill="#FFFEFE"/>
<path d="M487 540L489 543.769L491 540V547H487V540Z" fill="#FFFEFE"/>
<path d="M515.354 58.4209H516.809L517.371 60.5986L517.93 58.4209H519.38V62H518.477V59.2705L517.776 62H516.958L516.26 59.2705V62H515.354V58.4209ZM520.928 60.2471L519.978 60.147C520.014 59.981 520.065 59.8507 520.132 59.7563C520.2 59.6603 520.298 59.5773 520.425 59.5073C520.516 59.4569 520.641 59.4178 520.801 59.3901C520.96 59.3625 521.133 59.3486 521.318 59.3486C521.616 59.3486 521.855 59.3657 522.036 59.3999C522.217 59.4325 522.367 59.5016 522.488 59.6074C522.572 59.6807 522.639 59.7848 522.688 59.9199C522.737 60.0534 522.761 60.1812 522.761 60.3032V61.4482C522.761 61.5703 522.769 61.6663 522.783 61.7363C522.799 61.8047 522.834 61.8926 522.886 62H521.953C521.916 61.9333 521.891 61.8828 521.88 61.8486C521.868 61.8128 521.857 61.7575 521.846 61.6826C521.715 61.8079 521.586 61.8975 521.458 61.9512C521.282 62.0228 521.077 62.0586 520.845 62.0586C520.535 62.0586 520.3 61.987 520.139 61.8438C519.98 61.7005 519.9 61.5239 519.9 61.314C519.9 61.117 519.958 60.9551 520.073 60.8281C520.189 60.7012 520.402 60.6068 520.713 60.5449C521.086 60.4701 521.327 60.418 521.438 60.3887C521.549 60.3577 521.666 60.3179 521.79 60.269C521.79 60.147 521.764 60.0615 521.714 60.0127C521.663 59.9639 521.575 59.9395 521.448 59.9395C521.285 59.9395 521.163 59.9655 521.082 60.0176C521.018 60.0583 520.967 60.1348 520.928 60.2471ZM521.79 60.7695C521.653 60.8184 521.51 60.8615 521.362 60.8989C521.16 60.9526 521.033 61.0055 520.979 61.0576C520.924 61.1113 520.896 61.1724 520.896 61.2407C520.896 61.3188 520.923 61.3831 520.977 61.4336C521.032 61.4824 521.112 61.5068 521.218 61.5068C521.329 61.5068 521.431 61.48 521.526 61.4263C521.622 61.3726 521.689 61.3075 521.729 61.231C521.769 61.1528 521.79 61.0519 521.79 60.9282V60.7695ZM523.357 59.4072H524.282V59.8296C524.421 59.6571 524.561 59.5342 524.702 59.4609C524.844 59.3861 525.016 59.3486 525.22 59.3486C525.495 59.3486 525.71 59.4308 525.864 59.5952C526.021 59.758 526.099 60.0103 526.099 60.3521V62H525.1V60.5742C525.1 60.4115 525.07 60.2967 525.01 60.23C524.95 60.1616 524.865 60.1274 524.756 60.1274C524.635 60.1274 524.538 60.173 524.463 60.2642C524.388 60.3553 524.351 60.5189 524.351 60.7549V62H523.357V59.4072ZM527.598 60.2471L526.648 60.147C526.684 59.981 526.735 59.8507 526.802 59.7563C526.87 59.6603 526.968 59.5773 527.095 59.5073C527.186 59.4569 527.311 59.4178 527.471 59.3901C527.63 59.3625 527.803 59.3486 527.988 59.3486C528.286 59.3486 528.525 59.3657 528.706 59.3999C528.887 59.4325 529.037 59.5016 529.158 59.6074C529.242 59.6807 529.309 59.7848 529.358 59.9199C529.407 60.0534 529.431 60.1812 529.431 60.3032V61.4482C529.431 61.5703 529.438 61.6663 529.453 61.7363C529.469 61.8047 529.504 61.8926 529.556 62H528.623C528.586 61.9333 528.561 61.8828 528.55 61.8486C528.538 61.8128 528.527 61.7575 528.516 61.6826C528.385 61.8079 528.256 61.8975 528.127 61.9512C527.952 62.0228 527.747 62.0586 527.515 62.0586C527.205 62.0586 526.97 61.987 526.809 61.8438C526.65 61.7005 526.57 61.5239 526.57 61.314C526.57 61.117 526.628 60.9551 526.743 60.8281C526.859 60.7012 527.072 60.6068 527.383 60.5449C527.756 60.4701 527.997 60.418 528.108 60.3887C528.219 60.3577 528.336 60.3179 528.459 60.269C528.459 60.147 528.434 60.0615 528.384 60.0127C528.333 59.9639 528.245 59.9395 528.118 59.9395C527.955 59.9395 527.833 59.9655 527.751 60.0176C527.688 60.0583 527.637 60.1348 527.598 60.2471ZM528.459 60.7695C528.323 60.8184 528.18 60.8615 528.032 60.8989C527.83 60.9526 527.703 61.0055 527.649 61.0576C527.594 61.1113 527.566 61.1724 527.566 61.2407C527.566 61.3188 527.593 61.3831 527.646 61.4336C527.702 61.4824 527.782 61.5068 527.888 61.5068C527.999 61.5068 528.101 61.48 528.196 61.4263C528.292 61.3726 528.359 61.3075 528.398 61.231C528.439 61.1528 528.459 61.0519 528.459 60.9282V60.7695ZM529.851 61.2822L530.837 61.1895C530.878 61.3066 530.935 61.3905 531.008 61.4409C531.082 61.4914 531.179 61.5166 531.301 61.5166C531.435 61.5166 531.538 61.4881 531.611 61.4312C531.668 61.3888 531.697 61.3359 531.697 61.2725C531.697 61.2008 531.659 61.1455 531.584 61.1064C531.531 61.0788 531.388 61.0446 531.157 61.0039C530.812 60.9437 530.572 60.8883 530.437 60.8379C530.304 60.7858 530.19 60.6987 530.098 60.5767C530.007 60.4546 529.961 60.3154 529.961 60.1592C529.961 59.9883 530.011 59.841 530.11 59.7173C530.209 59.5936 530.346 59.5016 530.52 59.4414C530.694 59.3796 530.928 59.3486 531.221 59.3486C531.53 59.3486 531.758 59.3722 531.904 59.4194C532.052 59.4666 532.175 59.5399 532.273 59.6392C532.372 59.7384 532.454 59.8727 532.52 60.042L531.577 60.1348C531.553 60.0518 531.512 59.9907 531.455 59.9517C531.377 59.8996 531.283 59.8735 531.172 59.8735C531.06 59.8735 530.977 59.8939 530.925 59.9346C530.875 59.9736 530.85 60.0216 530.85 60.0786C530.85 60.1421 530.882 60.1901 530.947 60.2227C531.012 60.2552 531.154 60.2845 531.372 60.3105C531.702 60.348 531.948 60.4001 532.109 60.4668C532.271 60.5335 532.393 60.6287 532.478 60.7524C532.564 60.8761 532.607 61.012 532.607 61.1602C532.607 61.3099 532.562 61.4556 532.471 61.5972C532.381 61.7388 532.239 61.8519 532.043 61.9365C531.85 62.0195 531.585 62.061 531.25 62.061C530.776 62.061 530.439 61.9935 530.237 61.8584C530.037 61.7233 529.908 61.5312 529.851 61.2822Z" fill="white"/>
</g>
<path d="M511 58L512.5 60.1538L514 58V62H511V58Z" fill="#FFFEFE"/>
<path d="M92 346L93.5 348.154L95 346V350H92V346Z" fill="#FFFEFE"/>
<defs>
<clipPath id="clip0">
<rect width="646" height="646" fill="white"/>
</clipPath>
</defs>
</svg>
