<?xml version="1.0" encoding="UTF-8" standalone="no"?><!DOCTYPE svg PUBLIC "-//W3C//DTD SVG 1.1//EN" "http://www.w3.org/Graphics/SVG/1.1/DTD/svg11.dtd"><svg width="100%" height="100%" viewBox="0 0 2692 2692" version="1.1" xmlns="http://www.w3.org/2000/svg" xmlns:xlink="http://www.w3.org/1999/xlink" xml:space="preserve" xmlns:serif="http://www.serif.com/" style="fill-rule:evenodd;clip-rule:evenodd;stroke-linecap:round;stroke-linejoin:round;stroke-miterlimit:1.5;"><g><path d="M1447.13,2422.53c597.563,0 1081.98,-484.417 1081.98,-1081.98c-0.001,-597.563 -484.421,-1081.98 -1081.98,-1081.98c-597.562,-0 -1081.98,484.419 -1081.98,1081.98c0,597.566 484.422,1081.98 1081.98,1081.98Z" style="fill:none;fill-rule:nonzero;stroke:#000;stroke-width:12.5px;"/><rect x="1411.9" y="1760.34" width="755.971" height="888.271" style="fill:#fff;fill-rule:nonzero;stroke:#fff;stroke-width:0.02px;"/><rect x="1644.1" y="58.198" width="755.971" height="888.268" style="fill:#fff;fill-rule:nonzero;stroke:#fff;stroke-width:0.02px;"/><path d="M1528.02,63.786l0.008,0l0,0.022c-0.004,0.001 -0.004,0.003 -0.004,0.004c0,0.001 -0.004,0.002 -0.004,0.002c-0,0.001 -0.004,0.001 -0.004,0.001c-0.005,0 -0.005,0 -0.005,-0c-0.004,-0 -0.004,-0.001 -0.004,-0.001c-0.004,-0.001 -0.004,-0.002 -0.004,-0.003c0,-0.001 -0.004,-0.002 -0.004,-0.003l-0,-0.022l0.008,0l0,0.017c0,0.002 0,0.003 0.004,0.004l0,0.001c0.005,0 0.005,-0 0.005,-0.001c0.004,-0.001 0.004,-0.002 0.004,-0.004l-0,-0.017Zm0.012,0l0.009,0l-0,0.029l-0.009,-0l0,-0.029Z" style="fill-rule:nonzero;"/><path d="M1562.94,2398.46l25.308,113.296l-107.067,0c0.034,-13.562 0.096,-54.841 0.179,-55.758c4.196,-44.967 48.413,-35 81.58,-57.538Zm36.437,5.288l-1.737,-0.05l-9.254,13.687l0.233,3.484l7.662,7.775l-8.587,13.808l3.229,69.304l15.554,0l2.879,-69.237l-8.587,-13.813l7.658,-7.779l0.238,-3.475l-9.288,-13.704Zm-0.85,-169.646c27.967,0 50.759,27.175 51.771,55.125c-1.271,-0.321 -2.629,-0.483 -4.05,-0.483l-95.446,-0c-1.417,-0 -2.775,0.162 -4.05,0.483c1.017,-27.95 23.804,-55.125 51.775,-55.125Zm-47.725,60.404c-3.854,0 -7.004,1.525 -7.004,5.838c-0,19.862 109.458,19.675 109.458,-0c0,-4.313 -3.154,-5.838 -7.008,-5.838l-95.446,0Zm83.263,103.954c33.166,22.538 77.375,12.571 81.57,57.538c0.088,0.917 0.15,42.196 0.188,55.758l-107.071,0l25.313,-113.296Zm-34.817,-13.725c-0.171,0.013 -0.338,0.013 -0.504,0.013c-6.188,0.042 -9.267,-0.058 -12.625,-1.479c-3.25,-1.379 -4.825,-4.575 -9.296,-8.875c-3.804,-3.659 -10.625,-7.396 -12.288,-11.384c-2.025,-4.85 -1.545,-10.137 -2.404,-17.2c-3.525,1.942 -7.304,-8.15 -8.05,-11.466c-1.108,-4.875 -4.625,-13.192 -5.725,-18.767c-0.175,-0.871 -0.266,-1.692 -0.291,-2.446c14.712,7.304 41.4,7.813 50.479,7.804c9.016,-0.008 35.6,-0.554 50.337,-7.804c-0.029,0.758 -0.125,1.575 -0.296,2.446c-1.095,5.575 -4.62,13.892 -5.725,18.767c-0.741,3.275 -4.437,13.183 -7.929,11.525c-0.775,6.85 -0.35,12 -2.316,16.775c-1.655,4.004 -8.43,7.783 -12.205,11.479c-4.45,4.358 -6.02,7.554 -9.25,8.983c-3.229,1.413 -6.195,1.608 -11.912,1.629Z" style="fill:#b23838;"/><path d="M2002.72,2398.43l25.346,113.8l-107.23,0c0.034,-13.621 0.096,-55.083 0.18,-56.008c4.204,-45.167 48.487,-35.154 81.704,-57.792Zm36.491,5.313l-1.737,-0.055l-9.271,13.75l0.233,3.496l7.675,7.813l-8.6,13.871l3.234,69.612l15.579,0l2.879,-69.546l-8.6,-13.875l7.675,-7.812l0.233,-3.492l-9.3,-13.762Zm-0.85,-170.409c28.013,0 50.838,27.296 51.846,55.371c-1.267,-0.317 -2.633,-0.483 -4.054,-0.483l-95.592,-0c-1.416,-0 -2.779,0.166 -4.054,0.483c1.017,-28.075 23.842,-55.371 51.854,-55.371Zm-47.8,60.675c-3.858,0 -7.012,1.534 -7.012,5.867c-0,19.95 109.625,19.758 109.625,-0c-0,-4.333 -3.159,-5.867 -7.021,-5.867l-95.592,0Zm83.392,104.421c33.217,22.638 77.492,12.625 81.696,57.792c0.087,0.925 0.15,42.387 0.183,56.008l-107.233,0l25.354,-113.8Zm-34.871,-13.787c-0.171,0.012 -0.337,0.012 -0.504,0.012c-6.2,0.042 -9.279,-0.058 -12.646,-1.483c-3.25,-1.388 -4.833,-4.596 -9.308,-8.917c-3.808,-3.675 -10.642,-7.429 -12.308,-11.433c-2.025,-4.875 -1.546,-10.184 -2.405,-17.279c-3.533,1.95 -7.316,-8.184 -8.066,-11.517c-1.109,-4.9 -4.629,-13.25 -5.729,-18.85c-0.175,-0.875 -0.267,-1.7 -0.296,-2.454c14.737,7.333 41.466,7.846 50.558,7.837c9.029,-0.012 35.65,-0.558 50.413,-7.837c-0.03,0.758 -0.125,1.579 -0.296,2.454c-1.1,5.6 -4.629,13.95 -5.729,18.85c-0.746,3.292 -4.45,13.242 -7.946,11.579c-0.775,6.879 -0.35,12.05 -2.321,16.846c-1.654,4.025 -8.442,7.817 -12.225,11.533c-4.454,4.379 -6.025,7.588 -9.258,9.025c-3.238,1.417 -6.209,1.613 -11.934,1.634Z" style="fill:#b23838;"/><path d="M2221.21,493.946l-39.521,-87.785l-39.5,87.785l79.021,-0Zm-79.005,10.596l39.484,87.712l39.483,-87.712l-78.967,-0Zm58.671,-267.61l-19.187,-42.607l-19.175,42.607l38.362,0Zm-5.766,-38.553l17.354,38.553l33.204,0l-50.558,-38.553Zm20.166,70.576l-67.175,-0l-8.291,18.411l41.879,93.041l41.887,-93.041l-8.3,-18.411Zm-75.966,116.253l32.95,0l-32.95,-73.199l-0,73.199Zm-0,89.363l35.454,-78.768l-35.454,0l-0,78.768Zm84.758,-78.768l-35.446,0l35.446,78.768l-0,-78.768Zm-0,-83.794l-32.942,73.199l32.942,0l-0,-73.199Zm-102.763,-122.795l0,47.719l29.621,-0l22.592,-50.206l-39.4,-0l-12.813,2.487Zm-16.55,47.719l0,-44.503l-229.329,44.503l229.329,-0Zm83.605,366.271l35.708,0l-0,-79.35l-35.708,79.35Zm-49.05,0l35.72,0l-35.72,-79.358l-0,79.358Zm-10.588,0l0,-102.879l-0.5,-1.112l0.5,-1.121l0,-209.606l-0.5,-1.12l0.5,-1.111l0,-17.3l-7.417,-0l0,334.249l7.417,0Zm227.688,25.746l-17.8,-18.596l-44.546,0l62.346,65.1l-0,-46.504Zm-1.421,97.933l-111.609,-116.529l-44.537,0l111.608,116.529l44.538,0Zm-95.217,0l-111.608,-116.529l-44.55,0l111.616,116.529l44.542,0Zm-95.229,0l-111.608,-116.529l-44.546,0l111.616,116.529l44.538,0Zm-95.217,0l-62.358,-65.104l-0,46.509l17.817,18.595l44.541,0Zm-232.1,-149.408l-0.246,0.013l-16.37,-0l-0.009,4.97c0,2.25 1.084,4.513 4.238,6.634c3.179,2.15 8.446,4.162 10.275,4.929c10.35,4.383 13.912,18.458 4.246,28.758c-9.1,7.838 -20.025,6.417 -27.113,2.579c-7.971,-4.316 -10.529,-12.325 -11.604,-11.458c-3.792,3.025 -1.229,16.188 7.896,24.579c13.675,12.596 40.604,10.813 51.991,-9.091c5.092,-8.913 5.85,-20.146 1.95,-29.7c-5.929,-14.567 -15.441,-15.305 -23.729,-20.571c-0.75,-0.475 -1.221,-1.029 -1.525,-1.642Zm-17.308,-38.762c-3.279,-0 -5.967,2.679 -5.967,5.958l0,18.875c0,3.292 2.688,5.967 5.967,5.967l17.062,-0c3.28,-0 5.959,-2.675 5.959,-5.967l-0,-18.875c-0,-3.279 -2.679,-5.958 -5.959,-5.958l-17.062,-0Zm-8.892,-301.78l8.892,-0l284.837,-55.271l0,-0.21l1.075,0l26.721,-5.184l0.425,-0.081l0.567,-0l48.083,-0.019l1.784,0l1.412,1.085l78.275,59.68l2.758,-0l22.75,16.015l-22.75,16.007l0,-0.01l0,0.01l-31.191,-0l-0,17.309l0.5,1.102l-0.5,1.111l-0,209.623l0.5,1.113l-0.5,1.1l-0,102.891l129.308,0l0,130.838l-364.558,-0l-0,-130.838l105.341,0l0,-334.249l-269.304,-0l0,261.787l-14.012,-0l-0,-261.787l-10.413,-0l-22.737,-16.007l22.737,-16.015Z" style="fill:#b23838;"/><path d="M1761.55,2328.63l40.979,183.446l-173.358,0c0.054,-21.958 0.158,-88.796 0.291,-90.279c6.796,-72.813 78.388,-56.675 132.088,-93.167Zm59,8.563l-2.808,-0.079l-14.988,22.162l0.375,5.638l12.408,12.587l-13.904,22.363l5.229,112.212l25.184,0l4.662,-112.108l-13.904,-22.363l12.4,-12.596l0.383,-5.629l-15.037,-22.187Zm-1.375,-274.692c45.287,0 82.187,44.004 83.825,89.258c-2.054,-0.512 -4.258,-0.783 -6.559,-0.783l-154.541,0c-2.292,0 -4.496,0.271 -6.559,0.783c1.646,-45.254 38.546,-89.258 83.834,-89.258Zm-77.275,97.808c-6.242,0 -11.342,2.471 -11.342,9.455c0,32.158 177.234,31.854 177.234,-0c-0,-6.984 -5.109,-9.455 -11.351,-9.455l-154.541,0Zm134.817,168.321c53.7,36.492 125.287,20.354 132.079,93.167c0.141,1.483 0.241,68.321 0.3,90.279l-173.367,0l40.988,-183.446Zm-56.38,-22.221c-0.275,0.021 -0.541,0.021 -0.812,0.021c-10.021,0.067 -15,-0.096 -20.446,-2.396c-5.254,-2.233 -7.808,-7.408 -15.046,-14.375c-6.158,-5.92 -17.204,-11.97 -19.896,-18.429c-3.279,-7.854 -2.504,-16.412 -3.891,-27.85c-5.713,3.142 -11.829,-13.196 -13.038,-18.562c-1.791,-7.9 -7.487,-21.363 -9.266,-30.392c-0.284,-1.408 -0.434,-2.742 -0.48,-3.958c23.83,11.829 67.038,12.65 81.742,12.637c14.6,-0.016 57.638,-0.9 81.5,-12.637c-0.042,1.225 -0.2,2.55 -0.475,3.958c-1.779,9.029 -7.483,22.492 -9.267,30.392c-1.204,5.3 -7.191,21.341 -12.845,18.658c-1.255,11.092 -0.567,19.429 -3.746,27.158c-2.684,6.488 -13.65,12.605 -19.767,18.592c-7.204,7.058 -9.742,12.233 -14.971,14.546c-5.233,2.287 -10.033,2.6 -19.296,2.637Z" style="fill:#b23838;"/><rect x="14.98" y="870.896" width="755.97" height="888.267" style="fill:#fff;fill-rule:nonzero;stroke:#fff;stroke-width:0.02px;"/><path d="M0.003,829.658l0.019,0c0.002,0 0.003,0.005 0.004,0.005c0.001,-0 0.002,0.004 0.002,0.004c0.001,0.004 0.001,0.004 0.001,0.004c0,0.004 -0,0.008 -0.001,0.008c-0.001,0.004 -0.002,0.004 -0.003,0.004c-0.001,0 -0.002,0.005 -0.004,0.005l-0.018,-0l0,-0.03Zm0.009,0.009l-0,0.012l0.008,0c0,-0.004 0,-0.004 0,-0.008c0,-0 -0,-0.004 -0.001,-0.004l-0.007,-0Zm0.022,0.021l-0,-0.03l0.021,0c0.001,0 0.002,0.005 0.003,0.005c0.001,-0 0.001,0.004 0.001,0.004c0,-0 0,0.004 -0.001,0.004c-0,-0 -0.001,-0 -0.002,0.004l-0.003,0l0.003,0c0.001,0.004 0.001,0.004 0.001,0.004l0.005,0.009l-0.01,-0l-0.005,-0.009c-0,0 -0.001,-0.004 -0.001,-0.004l-0.003,0l-0,0.013l-0.009,-0Zm0.009,-0.017l0.007,-0c0,-0.004 0.001,-0.004 0.001,-0.004l-0.001,-0c-0.001,-0 -0.002,-0.005 -0.004,-0.005l-0.003,0l-0,0.009Zm0.039,0.012l-0.01,0l-0.001,0.005l-0.009,-0l0.01,-0.03l0.01,0l0.011,0.03l-0.01,-0l-0.001,-0.005Zm-0.002,-0.008l-0.003,-0.008l-0.003,0.008l0.006,0Zm0.015,-0.017l0.022,0l0,0.009l-0.013,-0l0,0.004l0.011,-0l0,0.004l-0.011,0l0,0.013l-0.009,-0l0,-0.03Zm0.025,0l0.026,0l0,0.009l-0.009,-0l0,0.021l-0.008,-0l-0,-0.021l-0.009,-0l-0,-0.009Zm0.029,0.021l0.009,0c0.001,0.004 0.002,0.004 0.004,0.004c0.001,0 0.002,0 0.003,-0.004l0.001,0c0,0 -0,0 -0.001,-0.004l-0.004,0c-0.004,0 -0.007,0 -0.009,-0.004c-0.001,-0 -0.002,-0.004 -0.002,-0.004c-0,-0 0,-0.004 0.001,-0.004c0.001,-0 0.002,-0.005 0.004,-0.005l0.015,0c0.002,0.005 0.003,0.005 0.004,0.009l-0.009,-0c0,-0 -0,-0 -0.001,-0.004l-0.005,-0c-0.001,-0 -0.001,0.004 -0.001,0.004l0.004,-0c0.003,0.004 0.006,0.004 0.008,0.004c0.001,-0 0.003,-0 0.003,0.004c0.001,0 0.002,0 0.002,0.004c-0,0 -0.001,0.004 -0.002,0.004c-0.001,0 -0.002,0.005 -0.004,0.005l-0.007,-0c-0.005,-0 -0.008,-0 -0.01,-0.005c-0.002,0 -0.003,-0.004 -0.003,-0.004Z" style="fill-rule:nonzero;"/><path d="M226.416,998.5l326.367,0c15.205,0 27.642,12.446 27.642,27.642l-0,339.85c-0,15.204 -12.446,27.641 -27.642,27.641l-326.367,0c-15.196,0 -27.64,-12.437 -27.64,-27.641l-0,-339.85c-0,-15.205 12.436,-27.642 27.64,-27.642Zm109.312,340.417c1.075,-0 1.922,-0.317 2.551,-0.938c0.647,-0.646 0.956,-1.583 0.956,-2.85c0,-1.35 -0.31,-2.379 -0.92,-3.108c-0.601,-0.713 -1.43,-1.075 -2.45,-1.075c-0.993,-0 -1.822,0.329 -2.478,1.004c-0.665,0.662 -0.993,1.667 -0.993,3.021c-0,1.412 0.309,2.425 0.938,3.033c0.638,0.613 1.431,0.913 2.396,0.913Zm-4.428,11.987c2.16,-0.079 4.036,-0.508 5.64,-1.283c1.594,-0.775 2.915,-1.796 3.962,-3.071c1.057,-1.267 1.832,-2.767 2.351,-4.463c0.51,-1.712 0.765,-3.533 0.765,-5.483c0,-3.125 -0.701,-5.475 -2.113,-7.033c-1.421,-1.567 -3.462,-2.35 -6.14,-2.35c-1.03,-0 -2.041,0.171 -3.016,0.5c-0.993,0.329 -1.859,0.829 -2.606,1.496c-0.747,0.662 -1.366,1.483 -1.83,2.45c-0.447,0.983 -0.684,2.112 -0.684,3.395c0,1.267 0.191,2.363 0.565,3.3c0.374,0.921 0.874,1.692 1.512,2.313c0.629,0.6 1.367,1.067 2.205,1.375c0.838,0.312 1.704,0.475 2.633,0.475c0.637,-0 1.211,-0.075 1.704,-0.221c0.482,-0.133 0.92,-0.317 1.293,-0.533c0.383,-0.238 0.702,-0.475 0.975,-0.742c0.264,-0.271 0.492,-0.546 0.692,-0.829c-0.182,0.904 -0.465,1.758 -0.875,2.571c-0.41,0.821 -0.938,1.541 -1.594,2.166c-0.646,0.638 -1.439,1.15 -2.369,1.534c-0.938,0.383 -1.995,0.6 -3.17,0.646c-0.2,0.62 -0.291,1.191 -0.291,1.704c-0,0.362 0.045,0.708 0.109,1.054c0.082,0.346 0.173,0.696 0.282,1.029Zm-14.849,-11.987c1.066,-0 1.922,-0.317 2.551,-0.938c0.628,-0.646 0.948,-1.583 0.948,-2.85c-0,-1.35 -0.31,-2.379 -0.921,-3.108c-0.601,-0.713 -1.421,-1.075 -2.459,-1.075c-0.975,-0 -1.804,0.329 -2.469,1.004c-0.656,0.662 -0.993,1.667 -0.993,3.021c-0,1.412 0.319,2.425 0.947,3.033c0.629,0.613 1.43,0.913 2.396,0.913Zm-4.446,11.987c2.168,-0.079 4.054,-0.508 5.648,-1.283c1.595,-0.775 2.916,-1.796 3.972,-3.071c1.039,-1.267 1.823,-2.767 2.342,-4.463c0.519,-1.712 0.774,-3.533 0.774,-5.483c0,-3.125 -0.71,-5.475 -2.131,-7.033c-1.412,-1.567 -3.453,-2.35 -6.122,-2.35c-1.039,-0 -2.05,0.171 -3.025,0.5c-0.993,0.329 -1.859,0.829 -2.615,1.496c-0.747,0.662 -1.348,1.483 -1.813,2.45c-0.464,0.983 -0.692,2.112 -0.692,3.395c-0,1.267 0.201,2.363 0.574,3.3c0.373,0.921 0.875,1.692 1.503,2.313c0.638,0.6 1.367,1.067 2.205,1.375c0.838,0.312 1.703,0.475 2.633,0.475c0.637,-0 1.211,-0.075 1.703,-0.221c0.492,-0.133 0.929,-0.317 1.303,-0.533c0.374,-0.238 0.692,-0.475 0.956,-0.742c0.274,-0.271 0.501,-0.546 0.702,-0.829c-0.173,0.904 -0.464,1.758 -0.874,2.571c-0.401,0.821 -0.939,1.541 -1.586,2.166c-0.656,0.638 -1.448,1.15 -2.387,1.534c-0.92,0.383 -1.977,0.6 -3.161,0.646c-0.191,0.62 -0.291,1.191 -0.291,1.704c-0,0.362 0.036,0.708 0.118,1.054c0.073,0.346 0.173,0.696 0.264,1.029Zm-11.278,-7.042l-2.114,8.238c0.365,0.083 0.711,0.137 1.039,0.154c0.337,0.017 0.674,0.038 1.011,0.038c0.337,-0 0.693,-0.021 1.066,-0.038c0.365,-0.017 0.729,-0.071 1.094,-0.154l2.341,-8.238c-0.365,-0.079 -0.747,-0.133 -1.157,-0.17c-0.401,-0.03 -0.775,-0.046 -1.121,-0.046c-0.346,-0 -0.701,0.016 -1.066,0.046c-0.364,0.037 -0.729,0.091 -1.093,0.17Zm-20.689,4.146l0.219,0.484l14.685,-0c0.137,-0.638 0.201,-1.313 0.201,-2.021c-0,-0.621 -0.064,-1.25 -0.201,-1.896l-6.842,-0l1.704,-2.288c0.638,-0.845 1.23,-1.65 1.749,-2.387c0.529,-0.738 0.984,-1.446 1.376,-2.158c0.383,-0.692 0.674,-1.392 0.893,-2.096c0.218,-0.709 0.318,-1.446 0.318,-2.221c0,-1.05 -0.191,-1.971 -0.573,-2.754c-0.392,-0.784 -0.93,-1.421 -1.631,-1.938c-0.693,-0.521 -1.522,-0.904 -2.487,-1.141c-0.966,-0.246 -2.014,-0.371 -3.152,-0.371c-0.611,-0 -1.167,0.025 -1.658,0.079c-0.474,0.058 -0.939,0.129 -1.394,0.221c-0.447,0.1 -0.884,0.237 -1.33,0.391c-0.437,0.163 -0.92,0.338 -1.43,0.53c0.036,0.645 0.163,1.275 0.364,1.895c0.209,0.617 0.446,1.238 0.729,1.83c0.346,-0.146 0.674,-0.275 0.975,-0.4c0.309,-0.121 0.628,-0.209 0.947,-0.3c0.328,-0.092 0.665,-0.159 1.02,-0.2c0.355,-0.038 0.765,-0.059 1.239,-0.059c1.139,0 2.014,0.246 2.651,0.742c0.629,0.479 0.939,1.192 0.939,2.083c-0,0.538 -0.101,1.067 -0.301,1.596c-0.21,0.529 -0.501,1.083 -0.902,1.696c-0.401,0.617 -0.874,1.283 -1.458,2.012c-0.573,0.73 -1.238,1.575 -1.967,2.534l-4.683,6.137Zm138.845,4.946l0,4.967l48.667,-0l0,-4.967l-48.667,0Zm0,-7.987l0,3.954l48.667,-0l0,-3.954l-48.667,-0Zm65.796,-143.575l-7.362,17.575c0.654,0.5 1.329,0.883 2.041,1.154c0.692,0.283 1.43,0.512 2.196,0.675l9.446,-22.938l-0.2,-0.383l-15.796,-0c-0.137,0.637 -0.191,1.292 -0.191,1.996c-0,0.637 0.054,1.275 0.191,1.921l9.675,-0Zm-21.612,7.45c1.075,-0 1.925,-0.309 2.562,-0.946c0.629,-0.629 0.946,-1.575 0.946,-2.842c0,-1.358 -0.308,-2.387 -0.908,-3.108c-0.621,-0.709 -1.442,-1.075 -2.463,-1.075c-0.983,-0 -1.812,0.337 -2.475,0.996c-0.675,0.67 -0.996,1.675 -0.996,3.025c0,1.42 0.313,2.429 0.95,3.033c0.63,0.617 1.43,0.917 2.384,0.917Zm-4.425,11.991c2.158,-0.083 4.033,-0.512 5.629,-1.287c1.604,-0.763 2.933,-1.792 3.983,-3.067c1.046,-1.275 1.821,-2.762 2.338,-4.467c0.512,-1.704 0.775,-3.533 0.775,-5.483c-0,-3.125 -0.709,-5.475 -2.129,-7.033c-1.405,-1.567 -3.455,-2.342 -6.134,-2.342c-1.029,0 -2.029,0.154 -3.025,0.483c-0.983,0.346 -1.85,0.838 -2.596,1.505c-0.754,0.666 -1.358,1.483 -1.82,2.458c-0.455,0.967 -0.684,2.096 -0.684,3.392c0,1.266 0.184,2.358 0.554,3.287c0.375,0.938 0.884,1.713 1.513,2.313c0.637,0.62 1.367,1.075 2.204,1.395c0.829,0.3 1.713,0.455 2.633,0.455c0.646,-0 1.205,-0.063 1.705,-0.2c0.491,-0.146 0.929,-0.33 1.304,-0.555c0.383,-0.22 0.691,-0.466 0.966,-0.737c0.263,-0.267 0.492,-0.538 0.684,-0.813c-0.167,0.892 -0.459,1.75 -0.859,2.567c-0.408,0.813 -0.945,1.542 -1.595,2.171c-0.655,0.629 -1.446,1.137 -2.375,1.521c-0.942,0.383 -1.996,0.6 -3.171,0.637c-0.192,0.629 -0.292,1.192 -0.292,1.713c0,0.366 0.038,0.721 0.117,1.058c0.075,0.346 0.154,0.683 0.275,1.029Zm-11.279,-7.033l-2.134,8.217c0.367,0.091 0.729,0.145 1.059,0.162c0.329,0.029 0.666,0.038 1.004,0.038c0.346,-0 0.7,-0.009 1.062,-0.038c0.367,-0.017 0.721,-0.071 1.088,-0.162l2.35,-8.217c-0.367,-0.092 -0.75,-0.146 -1.159,-0.183c-0.4,-0.038 -0.783,-0.046 -1.12,-0.046c-0.346,-0 -0.7,0.008 -1.059,0.046c-0.362,0.037 -0.725,0.091 -1.091,0.183Zm-10.613,-12.408l-7.362,17.575c0.666,0.5 1.35,0.883 2.05,1.154c0.691,0.283 1.42,0.512 2.195,0.675l9.446,-22.938l-0.187,-0.383l-15.817,-0c-0.117,0.637 -0.183,1.292 -0.183,1.996c-0,0.637 0.066,1.275 0.183,1.921l9.675,-0Zm-22.812,13.175l-4.664,-0c-0.064,0.362 -0.11,0.691 -0.128,0.991c-0.018,0.3 -0.027,0.609 -0.027,0.9c-0,0.346 0.009,0.667 0.027,0.967c0.018,0.3 0.064,0.637 0.128,1.004l13.693,0c0.062,-0.367 0.108,-0.704 0.125,-1.004c0.029,-0.3 0.037,-0.621 0.037,-0.967c0,-0.291 -0.008,-0.6 -0.037,-0.9c-0.017,-0.3 -0.063,-0.629 -0.125,-0.991l-4.6,-0l-0,-17.167l-0.867,-0l-9.22,4.046c0.165,0.629 0.393,1.229 0.675,1.812c0.273,0.546 0.61,1.104 1.02,1.634l3.963,-1.571l-0,11.246Zm18.395,-141.292l0.288,0.458l10.796,0l-0,4.492c0.383,0.042 0.766,0.079 1.158,0.117c0.383,0.037 0.775,0.045 1.158,0.045c0.363,0 0.709,-0.008 1.055,-0.045c0.345,-0.038 0.691,-0.075 1.066,-0.117l0,-4.492l2.304,0c0.075,-0.304 0.121,-0.621 0.159,-0.975c0.025,-0.337 0.041,-0.675 0.041,-0.996c0,-0.654 -0.062,-1.3 -0.2,-1.92l-2.304,-0l0,-5.138c-0.383,-0.046 -0.762,-0.083 -1.158,-0.121c-0.379,-0.033 -0.763,-0.054 -1.154,-0.054c-0.367,0 -0.713,0.021 -1.067,0.054c-0.346,0.038 -0.692,0.075 -1.058,0.121l-0,5.138l-4.6,-0l6.625,-13.438c-0.604,-0.462 -1.242,-0.821 -1.913,-1.046c-0.675,-0.221 -1.366,-0.375 -2.104,-0.458l-9.092,18.375Zm-9.804,-0.292c0.984,0 1.804,-0.325 2.479,-0.991c0.655,-0.667 0.992,-1.667 0.992,-3.025c0,-1.413 -0.321,-2.421 -0.946,-3.034c-0.641,-0.608 -1.441,-0.912 -2.396,-0.912c-1.066,-0 -1.925,0.312 -2.554,0.941c-0.637,0.638 -0.954,1.584 -0.954,2.85c0,1.35 0.308,2.388 0.921,3.109c0.608,0.708 1.429,1.062 2.458,1.062Zm4.554,-19.958c-2.158,0.108 -4.033,0.546 -5.629,1.312c-1.604,0.755 -2.925,1.767 -3.971,3.05c-1.058,1.275 -1.833,2.763 -2.343,4.467c-0.519,1.7 -0.774,3.533 -0.774,5.483c0,3.125 0.711,5.467 2.123,7.034c1.411,1.566 3.461,2.341 6.132,2.341c1.029,0 2.05,-0.166 3.025,-0.491c0.983,-0.338 1.85,-0.829 2.596,-1.504c0.754,-0.659 1.366,-1.475 1.821,-2.45c0.454,-0.975 0.691,-2.105 0.691,-3.392c0,-1.238 -0.179,-2.329 -0.562,-3.279c-0.375,-0.938 -0.884,-1.721 -1.504,-2.334c-0.638,-0.608 -1.367,-1.062 -2.205,-1.383c-0.837,-0.3 -1.72,-0.462 -2.633,-0.462c-0.646,-0 -1.212,0.07 -1.712,0.208c-0.484,0.137 -0.921,0.329 -1.296,0.546c-0.371,0.229 -0.692,0.475 -0.963,0.737c-0.266,0.275 -0.491,0.546 -0.696,0.821c0.159,-0.892 0.438,-1.75 0.859,-2.571c0.408,-0.808 0.946,-1.537 1.604,-2.166c0.654,-0.638 1.437,-1.138 2.358,-1.521c0.921,-0.384 1.988,-0.613 3.188,-0.646c0.183,-0.604 0.283,-1.167 0.283,-1.704c0,-0.367 -0.037,-0.721 -0.108,-1.059c-0.075,-0.345 -0.175,-0.683 -0.284,-1.037Zm-20.688,18.675l-2.123,8.237c0.365,0.071 0.711,0.134 1.048,0.155c0.328,0.016 0.665,0.025 1.011,0.025c0.347,-0 0.702,-0.009 1.057,-0.025c0.364,-0.021 0.729,-0.084 1.093,-0.155l2.35,-8.237c-0.364,-0.092 -0.756,-0.138 -1.156,-0.171c-0.41,-0.029 -0.784,-0.046 -1.13,-0.046c-0.337,0 -0.692,0.017 -1.057,0.046c-0.364,0.033 -0.729,0.079 -1.093,0.171Zm-12.499,1.283c0.984,0 1.804,-0.325 2.469,-0.991c0.665,-0.667 1.002,-1.667 1.002,-3.025c-0,-1.413 -0.319,-2.421 -0.957,-3.034c-0.62,-0.608 -1.421,-0.912 -2.396,-0.912c-1.066,-0 -1.922,0.312 -2.551,0.941c-0.628,0.638 -0.938,1.584 -0.938,2.85c0,1.35 0.301,2.388 0.911,3.109c0.61,0.708 1.421,1.062 2.46,1.062Zm4.564,-19.958c-2.177,0.108 -4.054,0.546 -5.639,1.313c-1.603,0.754 -2.924,1.766 -3.972,3.049c-1.048,1.275 -1.831,2.763 -2.351,4.467c-0.51,1.7 -0.774,3.533 -0.774,5.483c0,3.125 0.711,5.467 2.132,7.034c1.412,1.566 3.452,2.341 6.131,2.341c1.029,0 2.041,-0.166 3.015,-0.491c0.993,-0.338 1.868,-0.829 2.615,-1.504c0.747,-0.659 1.348,-1.475 1.813,-2.45c0.465,-0.975 0.692,-2.105 0.692,-3.392c0,-1.238 -0.191,-2.329 -0.564,-3.279c-0.383,-0.938 -0.875,-1.721 -1.513,-2.334c-0.628,-0.608 -1.366,-1.062 -2.205,-1.383c-0.837,-0.3 -1.703,-0.462 -2.632,-0.462c-0.638,-0 -1.212,0.071 -1.695,0.208c-0.501,0.137 -0.938,0.329 -1.312,0.546c-0.373,0.229 -0.692,0.475 -0.956,0.737c-0.273,0.275 -0.501,0.546 -0.702,0.821c0.155,-0.892 0.437,-1.75 0.857,-2.571c0.419,-0.808 0.956,-1.537 1.612,-2.166c0.647,-0.638 1.44,-1.138 2.36,-1.521c0.911,-0.384 1.986,-0.613 3.179,-0.646c0.192,-0.604 0.292,-1.167 0.292,-1.704c-0,-0.367 -0.037,-0.721 -0.119,-1.059c-0.073,-0.345 -0.164,-0.683 -0.264,-1.037Zm-83.439,20.158l0.173,0.375l11.506,0c0.091,-0.491 0.136,-1.029 0.136,-1.575c0,-0.483 -0.045,-0.983 -0.136,-1.496l-5.366,0l1.33,-1.775c0.501,-0.675 0.966,-1.295 1.376,-1.875c0.41,-0.575 0.765,-1.141 1.065,-1.687c0.301,-0.546 0.538,-1.092 0.702,-1.65c0.173,-0.554 0.255,-1.129 0.255,-1.738c0,-0.812 -0.146,-1.541 -0.446,-2.15c-0.31,-0.604 -0.738,-1.12 -1.276,-1.52c-0.546,-0.405 -1.193,-0.696 -1.949,-0.896c-0.756,-0.192 -1.576,-0.292 -2.46,-0.292c-0.492,0 -0.92,0.029 -1.303,0.067c-0.373,0.046 -0.738,0.108 -1.093,0.179c-0.346,0.075 -0.692,0.175 -1.038,0.304c-0.347,0.117 -0.729,0.263 -1.121,0.417c0.027,0.491 0.128,0.991 0.292,1.487c0.145,0.479 0.346,0.954 0.555,1.429c0.283,-0.12 0.529,-0.22 0.775,-0.312c0.246,-0.1 0.482,-0.179 0.737,-0.246c0.255,-0.062 0.52,-0.108 0.793,-0.146c0.274,-0.033 0.602,-0.054 0.975,-0.054c0.884,0 1.576,0.192 2.068,0.575c0.501,0.392 0.747,0.938 0.747,1.642c-0,0.416 -0.082,0.837 -0.246,1.246c-0.155,0.412 -0.392,0.858 -0.692,1.329c-0.319,0.475 -0.693,1.012 -1.148,1.579c-0.456,0.571 -0.975,1.229 -1.54,1.983l-3.671,4.8Zm-9.958,-2.641l-3.662,-0c-0.046,0.291 -0.073,0.55 -0.091,0.783c-0.018,0.237 -0.027,0.475 -0.027,0.704c-0,0.271 0.009,0.517 0.027,0.754c0.018,0.238 0.045,0.492 0.091,0.775l10.723,0c0.054,-0.283 0.091,-0.537 0.1,-0.775c0.018,-0.237 0.027,-0.483 0.027,-0.754c0,-0.229 -0.009,-0.466 -0.027,-0.704c-0.009,-0.233 -0.046,-0.492 -0.1,-0.783l-3.59,-0l0,-13.425l-0.692,-0l-7.215,3.17c0.137,0.48 0.318,0.955 0.528,1.409c0.219,0.429 0.492,0.858 0.811,1.275l3.097,-1.238l0,8.809Zm-11.35,-0.6l-1.659,6.441c0.283,0.071 0.556,0.109 0.82,0.129c0.255,0.017 0.519,0.025 0.793,0.025c0.264,0 0.537,-0.008 0.829,-0.025c0.282,-0.02 0.564,-0.058 0.847,-0.129l1.84,-6.441c-0.291,-0.063 -0.592,-0.109 -0.902,-0.138c-0.318,-0.025 -0.619,-0.046 -0.883,-0.046c-0.265,0 -0.547,0.021 -0.838,0.046c-0.283,0.029 -0.565,0.075 -0.847,0.138Zm-17.21,1.237l0.219,0.35l8.463,0l0,3.517c0.301,0.033 0.602,0.062 0.902,0.087c0.301,0.029 0.601,0.038 0.902,0.038c0.291,-0 0.565,-0.009 0.829,-0.038c0.273,-0.025 0.556,-0.054 0.838,-0.087l0,-3.517l1.804,0c0.055,-0.237 0.091,-0.483 0.118,-0.75c0.028,-0.279 0.037,-0.537 0.037,-0.783c0,-0.529 -0.055,-1.029 -0.155,-1.513l-1.804,0l0,-4.025c-0.3,-0.037 -0.601,-0.062 -0.911,-0.083c-0.3,-0.025 -0.601,-0.038 -0.902,-0.038c-0.291,0 -0.565,0.013 -0.829,0.038c-0.264,0.021 -0.546,0.046 -0.829,0.083l0,4.025l-3.598,0l5.183,-10.521c-0.473,-0.362 -0.974,-0.637 -1.503,-0.812c-0.528,-0.179 -1.075,-0.3 -1.649,-0.363l-7.115,14.392Zm81.863,125.967c1.067,-0 1.923,-0.317 2.56,-0.954c0.629,-0.63 0.939,-1.588 0.939,-2.846c-0,-1.354 -0.301,-2.388 -0.911,-3.096c-0.611,-0.721 -1.431,-1.083 -2.46,-1.083c-0.975,-0 -1.804,0.337 -2.478,1c-0.665,0.658 -0.993,1.666 -0.993,3.016c-0,1.413 0.319,2.434 0.957,3.042c0.628,0.612 1.421,0.921 2.386,0.921Zm-4.436,11.979c2.159,-0.092 4.045,-0.508 5.639,-1.283c1.594,-0.767 2.916,-1.796 3.972,-3.071c1.048,-1.275 1.831,-2.759 2.342,-4.471c0.519,-1.696 0.774,-3.517 0.774,-5.475c-0,-3.125 -0.711,-5.475 -2.123,-7.046c-1.412,-1.554 -3.461,-2.329 -6.14,-2.329c-1.02,-0 -2.032,0.154 -3.016,0.492c-0.983,0.329 -1.858,0.829 -2.605,1.483c-0.747,0.675 -1.348,1.487 -1.813,2.471c-0.465,0.975 -0.683,2.096 -0.683,3.387c-0,1.267 0.173,2.371 0.556,3.288c0.373,0.941 0.874,1.712 1.503,2.316c0.637,0.617 1.375,1.075 2.204,1.392c0.838,0.313 1.713,0.458 2.633,0.458c0.647,0 1.212,-0.075 1.713,-0.204c0.492,-0.146 0.92,-0.316 1.294,-0.554c0.382,-0.217 0.701,-0.462 0.965,-0.737c0.265,-0.263 0.501,-0.538 0.693,-0.821c-0.165,0.904 -0.465,1.766 -0.875,2.579c-0.401,0.812 -0.929,1.537 -1.576,2.167c-0.665,0.629 -1.458,1.141 -2.387,1.52c-0.938,0.392 -1.986,0.605 -3.17,0.65c-0.182,0.617 -0.283,1.184 -0.283,1.705c0,0.362 0.037,0.716 0.11,1.054c0.073,0.346 0.163,0.683 0.273,1.029Zm-20.407,-23.358l-0.483,12.27l0.483,0.384c0.602,-0.3 1.203,-0.5 1.786,-0.629c0.583,-0.117 1.193,-0.163 1.813,-0.163c1.585,0 2.733,0.292 3.434,0.892c0.711,0.604 1.066,1.441 1.066,2.533c0,0.5 -0.082,0.975 -0.255,1.438c-0.173,0.458 -0.464,0.858 -0.874,1.212c-0.41,0.367 -0.93,0.65 -1.568,0.858c-0.646,0.217 -1.448,0.317 -2.413,0.317c-0.747,0 -1.458,-0.062 -2.123,-0.217c-0.665,-0.154 -1.367,-0.354 -2.123,-0.612c-0.246,0.621 -0.492,1.25 -0.701,1.896c-0.219,0.646 -0.355,1.296 -0.419,1.958c0.492,0.175 1.002,0.329 1.539,0.446c0.538,0.137 1.048,0.237 1.53,0.312c0.483,0.071 0.93,0.125 1.349,0.163c0.419,0.029 0.765,0.046 1.048,0.046c1.503,-0 2.851,-0.175 4.063,-0.521c1.211,-0.338 2.241,-0.854 3.088,-1.538c0.847,-0.683 1.494,-1.529 1.959,-2.533c0.455,-1.012 0.692,-2.179 0.692,-3.517c0,-1.083 -0.182,-2.05 -0.519,-2.887c-0.346,-0.829 -0.82,-1.529 -1.43,-2.104c-0.611,-0.567 -1.349,-0.992 -2.196,-1.284c-0.856,-0.283 -1.822,-0.429 -2.87,-0.429c-0.319,0 -0.628,0.009 -0.92,0.046c-0.309,0.038 -0.656,0.092 -1.039,0.171l0.201,-4.6l7.379,-0c0.137,-0.638 0.201,-1.3 0.201,-1.983c-0,-0.65 -0.064,-1.288 -0.201,-1.925l-11.497,-0Zm-10.157,16.325l-2.114,8.216c0.355,0.092 0.711,0.146 1.038,0.175c0.329,0.017 0.675,0.029 1.021,0.029c0.337,0 0.692,-0.012 1.057,-0.029c0.355,-0.029 0.729,-0.083 1.084,-0.175l2.35,-8.216c-0.364,-0.092 -0.747,-0.146 -1.157,-0.18c-0.41,-0.037 -0.783,-0.058 -1.12,-0.058c-0.346,0 -0.692,0.021 -1.057,0.058c-0.364,0.034 -0.729,0.088 -1.102,0.18Zm-12.755,1.158c1.084,-0 1.941,-0.567 2.551,-1.696c0.62,-1.121 0.921,-2.867 0.921,-5.246c-0,-2.387 -0.301,-4.137 -0.921,-5.258c-0.61,-1.129 -1.467,-1.692 -2.551,-1.692c-1.12,0 -1.995,0.563 -2.623,1.692c-0.629,1.121 -0.948,2.871 -0.948,5.258c0,2.379 0.328,4.125 0.966,5.246c0.638,1.129 1.512,1.696 2.605,1.696Zm-0.073,3.854c1.44,0 2.688,-0.275 3.763,-0.804c1.084,-0.538 1.949,-1.292 2.633,-2.25c0.692,-0.963 1.202,-2.104 1.549,-3.425c0.337,-1.321 0.51,-2.758 0.51,-4.317c-0,-1.566 -0.164,-3.016 -0.483,-4.346c-0.319,-1.32 -0.82,-2.47 -1.512,-3.441c-0.683,-0.959 -1.549,-1.713 -2.597,-2.263c-1.047,-0.546 -2.296,-0.808 -3.726,-0.808c-1.457,-0 -2.715,0.262 -3.78,0.808c-1.057,0.55 -1.932,1.304 -2.615,2.263c-0.683,0.971 -1.202,2.121 -1.549,3.441c-0.337,1.33 -0.51,2.78 -0.51,4.346c0,1.559 0.173,2.996 0.492,4.317c0.337,1.321 0.838,2.462 1.512,3.425c0.675,0.958 1.54,1.712 2.588,2.25c1.047,0.529 2.295,0.804 3.725,0.804Zm-20.588,-4.237l-4.665,-0c-0.063,0.366 -0.109,0.691 -0.136,0.983c-0.019,0.3 -0.027,0.612 -0.027,0.912c-0,0.338 0.008,0.655 0.027,0.955c0.027,0.304 0.073,0.641 0.136,1.004l13.693,-0c0.064,-0.363 0.1,-0.7 0.118,-1.004c0.028,-0.3 0.037,-0.617 0.037,-0.955c-0,-0.3 -0.009,-0.612 -0.037,-0.912c-0.018,-0.292 -0.054,-0.617 -0.118,-0.983l-4.6,-0l-0,-17.171l-0.866,-0l-9.229,4.046c0.173,0.625 0.392,1.229 0.684,1.812c0.273,0.546 0.61,1.1 1.02,1.629l3.963,-1.575l0,11.259Zm76.506,113.804l-75.495,-0l0,-0.759l-41.177,0l-0,19.434l23.094,21.983l93.578,0l0,-40.658Zm-72.151,-10.084l-0,4.963l72.151,-0l0,-4.963l-72.151,0Zm72.151,-7.991l-72.151,-0l-0,3.954l72.151,-0l0,-3.954Zm-79.385,-7.534l83.758,0l0,4.946l7.151,0l0,-205.129l16.362,0l0,5.446l-10.914,-0l0,199.683l2.706,0l0,47.092l29.152,-0l0,-5.667l56.027,0l-0,5.667l35.987,-0l0,-246.775l-77.629,-0l-0,-5.446l77.629,0l0,-3.946l13.938,0l-0,276.109l-13.938,-0l0,-0.267l-38.583,-0l-0,0.267l-50.834,-0l0,-0.267l-147.575,-0l0.01,-0.025l-25.91,-24.417l-0.073,0l0,-315.516l12.263,-0l-0,-0.384l285.919,0l-0,13.938l-21.279,-0l-0,11.033l-13.938,0l0,-11.033l-167.636,-0l-0,11.841l-5.457,0l-0,-11.841l-70.194,-0l0,100.25l70.194,-0l-0,-60.759l5.457,0l-0,60.759l1.366,-0l0,5.454l-77.017,-0l0,98.446l25.709,-0l0,25.671l-25.709,-0l0,30.045l23.058,0l-0,-5.175Zm81.462,138.863l42.135,-0l-0,36.358l-42.135,0l0,-36.358Zm145.005,73.667l-12.625,-17.621l-31.605,-0l44.23,61.666l-0,-44.045Zm-1.009,92.775l-79.166,-110.396l-31.596,-0l79.158,110.396l31.604,-0Zm-67.546,-0l-79.164,-110.396l-31.604,-0l79.167,110.396l31.601,-0Zm-67.549,-0l-79.166,-110.396l-31.595,-0l79.167,110.396l31.594,-0Zm-67.542,-0l-44.23,-61.667l0,44.05l12.627,17.617l31.603,-0Zm-53.64,6.05l-0,-122.484l266.69,0l-0,122.484l-266.69,-0Zm-29.836,-630.417l326.367,-0c29.838,-0 54.142,24.312 54.142,54.142l0,339.85c0,29.829 -24.312,54.141 -54.142,54.141l-326.367,0c-29.835,0 -54.141,-24.312 -54.141,-54.141l-0,-339.85c-0,-29.83 24.306,-54.142 54.141,-54.142Zm49.677,281.667l-0.163,-0.159l0.163,0.159Zm13.629,12.67l-0.155,-0.145l0.155,0.145Zm-14.093,-12.67l0.164,-0.159l-0.164,0.159Zm0.164,12.67l-0.164,-0.145l0.164,0.145Zm13.774,-25.662l0.155,-0.154l-0.155,0.154Zm-13.637,12.679l0.163,-0.154l-0.163,0.154Zm0.163,-12.679l-0.163,-0.154l0.163,0.154Zm13.629,12.679l-0.155,-0.154l0.155,0.154Zm-14.093,-12.679l0.164,-0.154l-0.164,0.154Zm0.164,12.679l-0.164,-0.154l0.164,0.154Zm0.137,12.983l0.163,-0.145l-0.163,0.145Z" style="fill:#b23838;"/><path d="M1157.23,1934.48c0,-0.004 0.005,-0.008 0.005,-0.008c0.004,-0.005 0.008,-0.005 0.012,-0.005c0.004,0.001 0.008,0.001 0.008,0.005c0.005,-0 0.005,0.004 0.005,0.008l-0.001,0.008c0,0.005 -0.004,0.005 -0.004,0.005c-0.004,0.004 -0.004,0.004 -0.008,0.004c-0.004,-0 -0.008,-0 -0.008,-0.005c-0.005,0.001 -0.005,0.001 -0.005,-0.004c-0.004,0 -0.004,-0.004 -0.004,-0.008Zm0.009,0c-0,0.004 -0,0.004 0.004,0.008l0.008,0l0,-0.012c0,-0.004 -0.004,-0.004 -0.004,-0.004l-0.008,0.008Zm0.025,0.017l-0,-0.03l0.02,0l0.009,0.009l-0.009,0.008l0.005,0l-0,0.004l0.004,0.009l-0.009,-0l-0.004,-0.009c0,-0.004 -0.004,-0.004 -0.004,-0.004l0,0.013l-0.012,-0Zm0.012,-0.017c0.004,-0 0.004,-0 0.004,-0.004l0.004,-0l-0.004,-0.004l-0.004,-0l0,0.008Z" style="fill-rule:nonzero;"/><path d="M1347.55,2025.48l50.429,0l0,13.259l-16.921,-0l0,40.429l-16.587,-0l0,-40.429l-16.921,-0l0,-13.259Zm57.934,0l44.458,0l-0,11.463l-27.829,-0l-0,8.533l25.816,0l0,10.95l-25.816,0l-0,10.583l28.637,0l0,12.159l-45.266,-0l-0,-53.688Zm87.27,44.825l-18.896,0l-2.6,8.863l-16.958,-0l20.179,-53.688l18.092,0l20.179,53.688l-17.358,-0l-2.638,-8.863Zm-3.479,-11.608l-5.933,-19.3l-5.896,19.3l11.829,-0Zm28.638,-33.217l21.825,0l8.425,32.667l8.383,-32.667l21.754,0l0,53.688l-13.55,-0l0,-40.942l-10.508,40.942l-12.271,-0l-10.471,-40.942l0,40.942l-13.587,-0l-0,-53.688Z" style="fill-rule:nonzero;"/><text x="98.834px" y="889.955px" style="font-family:'Poppins-Bold', 'Poppins';font-weight:700;font-size:75px;">NACRTI</text><text x="1380.88px" y="177.991px" style="font-family:'Poppins-Bold', 'Poppins';font-weight:700;font-size:75px;">GRAĐEVINA</text><path d="M1804.17,2079.17l16.666,29.166l16.667,-29.166l0,54.166l-33.333,0l-0,-54.166Z" style="fill:#fffefe;fill-rule:nonzero;"/><path d="M1591.67,2250l8.333,15.704l8.333,-15.704l0,29.167l-16.666,-0l-0,-29.167Z" style="fill:#fffefe;fill-rule:nonzero;"/><path d="M2029.17,2250l8.333,15.704l8.333,-15.704l0,29.167l-16.666,-0l-0,-29.167Z" style="fill:#fffefe;fill-rule:nonzero;"/><path d="M2147.31,243.42l6.063,0l2.341,9.074l2.33,-9.074l6.041,0l0,14.913l-3.762,0l-0,-11.373l-2.921,11.373l-3.408,0l-2.909,-11.373l0,11.373l-3.775,0l0,-14.913Zm23.225,7.61l-3.958,-0.418c0.15,-0.691 0.363,-1.234 0.642,-1.627c0.283,-0.4 0.691,-0.746 1.221,-1.038c0.379,-0.21 0.9,-0.373 1.566,-0.488c0.663,-0.115 1.384,-0.173 2.154,-0.173c1.242,-0 2.238,0.071 2.992,0.214c0.754,0.135 1.379,0.423 1.883,0.864c0.35,0.306 0.63,0.739 0.834,1.302c0.204,0.557 0.304,1.089 0.304,1.597l-0,4.771c-0,0.509 0.033,0.909 0.092,1.201c0.066,0.285 0.212,0.651 0.429,1.098l-3.888,0c-0.154,-0.278 -0.258,-0.488 -0.304,-0.631c-0.05,-0.149 -0.096,-0.379 -0.142,-0.691c-0.545,0.522 -1.083,0.895 -1.616,1.119c-0.734,0.298 -1.588,0.447 -2.554,0.447c-1.292,0 -2.271,-0.298 -2.942,-0.895c-0.663,-0.597 -0.996,-1.332 -0.996,-2.207c0,-0.821 0.242,-1.495 0.721,-2.025c0.483,-0.528 1.371,-0.922 2.667,-1.18c1.554,-0.311 2.558,-0.528 3.02,-0.65c0.463,-0.13 0.95,-0.295 1.467,-0.499c0,-0.509 -0.108,-0.865 -0.317,-1.068c-0.212,-0.203 -0.579,-0.305 -1.108,-0.305c-0.679,-0 -1.187,0.108 -1.525,0.325c-0.267,0.17 -0.479,0.489 -0.642,0.957Zm3.592,2.176c-0.571,0.204 -1.167,0.384 -1.783,0.539c-0.842,0.224 -1.371,0.445 -1.596,0.662c-0.229,0.223 -0.346,0.478 -0.346,0.763c0,0.325 0.113,0.593 0.338,0.803c0.229,0.204 0.562,0.305 1.004,0.305c0.462,0 0.887,-0.111 1.283,-0.335c0.4,-0.224 0.679,-0.495 0.846,-0.814c0.167,-0.326 0.254,-0.746 0.254,-1.262l0,-0.661Zm6.529,-5.676l3.854,-0l0,1.76c0.58,-0.719 1.163,-1.231 1.75,-1.536c0.592,-0.312 1.309,-0.468 2.159,-0.468c1.146,-0 2.041,0.342 2.683,1.027c0.654,0.679 0.979,1.73 0.979,3.154l0,6.866l-4.162,0l-0,-5.941c-0,-0.677 -0.125,-1.156 -0.375,-1.434c-0.25,-0.285 -0.604,-0.427 -1.059,-0.427c-0.504,-0 -0.908,0.19 -1.22,0.57c-0.313,0.379 -0.467,1.061 -0.467,2.044l-0,5.188l-4.142,0l0,-10.803Zm17.671,3.5l-3.958,-0.418c0.15,-0.691 0.362,-1.234 0.641,-1.627c0.284,-0.4 0.692,-0.746 1.221,-1.038c0.379,-0.21 0.9,-0.373 1.567,-0.488c0.662,-0.115 1.383,-0.173 2.154,-0.173c1.242,-0 2.238,0.071 2.992,0.214c0.754,0.135 1.379,0.423 1.883,0.864c0.35,0.306 0.629,0.739 0.833,1.302c0.205,0.556 0.305,1.089 0.305,1.597l-0,4.771c-0,0.509 0.029,0.909 0.091,1.201c0.067,0.285 0.213,0.651 0.429,1.098l-3.887,0c-0.154,-0.278 -0.258,-0.488 -0.304,-0.631c-0.05,-0.149 -0.096,-0.379 -0.142,-0.691c-0.546,0.522 -1.083,0.895 -1.621,1.119c-0.729,0.298 -1.583,0.447 -2.55,0.447c-1.291,0 -2.271,-0.298 -2.941,-0.895c-0.663,-0.597 -0.996,-1.332 -0.996,-2.207c-0,-0.821 0.241,-1.495 0.721,-2.025c0.483,-0.528 1.37,-0.922 2.666,-1.18c1.554,-0.311 2.559,-0.528 3.021,-0.65c0.463,-0.13 0.95,-0.295 1.463,-0.499c-0,-0.509 -0.105,-0.865 -0.313,-1.068c-0.212,-0.203 -0.579,-0.305 -1.108,-0.305c-0.679,-0 -1.188,0.108 -1.529,0.325c-0.263,0.17 -0.475,0.489 -0.638,0.957Zm3.588,2.176c-0.567,0.204 -1.163,0.384 -1.78,0.539c-0.841,0.224 -1.37,0.445 -1.595,0.662c-0.23,0.223 -0.346,0.478 -0.346,0.763c-0,0.325 0.112,0.593 0.333,0.803c0.233,0.204 0.567,0.305 1.008,0.305c0.463,0 0.888,-0.111 1.284,-0.335c0.4,-0.224 0.679,-0.495 0.841,-0.814c0.171,-0.326 0.255,-0.746 0.255,-1.262l-0,-0.661Zm5.8,2.136l4.108,-0.386c0.171,0.488 0.408,0.838 0.712,1.048c0.309,0.21 0.713,0.315 1.221,0.315c0.559,0 0.988,-0.119 1.292,-0.356c0.237,-0.176 0.358,-0.397 0.358,-0.661c0,-0.299 -0.158,-0.529 -0.471,-0.692c-0.22,-0.115 -0.816,-0.258 -1.779,-0.427c-1.437,-0.251 -2.437,-0.482 -3,-0.692c-0.554,-0.217 -1.029,-0.58 -1.412,-1.088c-0.38,-0.509 -0.571,-1.089 -0.571,-1.74c-0,-0.712 0.208,-1.326 0.621,-1.841c0.412,-0.515 0.983,-0.899 1.708,-1.15c0.725,-0.257 1.7,-0.386 2.921,-0.386c1.287,-0 2.237,0.098 2.846,0.295c0.616,0.196 1.129,0.502 1.537,0.916c0.413,0.413 0.754,0.973 1.029,1.678l-3.929,0.387c-0.1,-0.346 -0.271,-0.601 -0.508,-0.763c-0.325,-0.217 -0.717,-0.326 -1.179,-0.326c-0.467,-0 -0.813,0.085 -1.03,0.254c-0.208,0.163 -0.312,0.363 -0.312,0.6c0,0.265 0.133,0.465 0.404,0.601c0.271,0.135 0.863,0.257 1.771,0.366c1.375,0.156 2.4,0.373 3.071,0.651c0.675,0.278 1.183,0.675 1.537,1.19c0.359,0.515 0.538,1.082 0.538,1.699c-0,0.624 -0.188,1.231 -0.567,1.821c-0.375,0.59 -0.966,1.061 -1.783,1.414c-0.804,0.346 -1.908,0.518 -3.304,0.518c-1.975,0 -3.38,-0.281 -4.221,-0.844c-0.833,-0.563 -1.371,-1.363 -1.608,-2.401Z" style="fill:#fff;fill-rule:nonzero;"/></g><path d="M2129.17,241.667l6.25,8.974l6.25,-8.974l-0,16.666l-12.5,0l-0,-16.666Z" style="fill:#fffefe;fill-rule:nonzero;"/><path d="M383.333,1441.67l6.25,8.975l6.25,-8.975l0,16.666l-12.5,0l0,-16.666Z" style="fill:#fffefe;fill-rule:nonzero;"/></svg>