<svg width="44" height="99" viewBox="0 0 44 99" fill="none" xmlns="http://www.w3.org/2000/svg">
<path d="M2.63355 61.9301C6.42813 63.2608 10.5023 63.5941 14.4635 62.898C18.4247 62.2019 22.1394 60.4998 25.2498 57.9557C33.1712 51.3228 35.6578 40.3958 37.6755 30.2769L43.6524 0.348633L31.1391 8.94508C22.1398 15.1267 12.9385 21.5066 6.7071 30.4608C0.475697 39.415 -2.24378 51.6385 2.76236 61.3267" fill="#B23838"/>
<path d="M3.70322 98.1646C2.43675 88.9606 1.13421 79.6394 2.02249 70.3367C2.81185 62.0754 5.33759 54.0063 10.4818 47.3899C13.2121 43.8845 16.5344 40.8812 20.2993 38.5148C21.2814 37.898 22.1841 39.4493 21.2072 40.0641C14.6932 44.1711 9.65479 50.2356 6.81842 57.3834C3.68572 65.3322 3.18284 73.9976 3.72694 82.4408C4.0536 87.5471 4.74506 92.6184 5.4427 97.6866C5.49888 97.9159 5.46507 98.158 5.34822 98.3632C5.23136 98.5685 5.04028 98.7214 4.8141 98.7907C4.58402 98.8527 4.33872 98.8215 4.1315 98.7041C3.92428 98.5867 3.77185 98.3925 3.70734 98.1636L3.70322 98.1646Z" fill="#F2F2F2"/>
</svg>
