<svg width="73" height="116" viewBox="0 0 73 116" fill="none" xmlns="http://www.w3.org/2000/svg">
<path d="M69.8397 66.2198C65.7969 67.6375 61.4562 67.9927 57.2359 67.251C53.0155 66.5094 49.0578 64.696 45.7439 61.9855C37.3044 54.9184 34.6578 43.2794 32.5054 32.4995L26.1372 0.613281L39.4695 9.77143C49.0579 16.3575 58.8617 23.1551 65.5 32.6945C72.1383 42.2338 75.0344 55.2568 69.7022 65.5793" fill="#B23838"/>
<path d="M67.7809 107.044C69.459 94.8473 71.1855 82.4932 70.0056 70.1661C68.96 59.2182 65.6118 48.5272 58.7956 39.7574C55.1775 35.1122 50.7749 31.1321 45.7859 27.9962C44.4852 27.1774 43.2879 29.2335 44.583 30.0492C53.2156 35.4917 59.8927 43.5285 63.6517 53.0008C67.8031 63.5342 68.4697 75.0171 67.7546 86.2067C67.3224 92.9735 66.4039 99.6958 65.4815 106.41C65.4087 106.714 65.4541 107.034 65.6087 107.305C65.7632 107.577 66.0154 107.78 66.3141 107.873C66.6189 107.955 66.9437 107.913 67.2181 107.758C67.4926 107.602 67.6945 107.345 67.7801 107.042L67.7809 107.044Z" fill="#F2F2F2"/>
<path d="M55.7025 87.4734C53.9688 90.1029 51.5856 92.2427 48.7823 93.6865C45.979 95.1304 42.8502 95.8296 39.6974 95.7168C31.5932 95.3332 24.8397 89.6927 18.7607 84.3361L0.776611 68.4953L12.6787 67.9269C21.2381 67.5179 30.0185 67.1343 38.1712 69.7706C46.3238 72.4069 53.8425 78.7417 55.333 87.1603" fill="#B23838"/>
<path d="M72.5243 114.055C64.4455 99.7943 55.0756 83.9455 38.3316 78.8797C33.6764 77.4761 28.7951 76.9733 23.9506 77.3983C22.4235 77.5299 22.8049 79.8777 24.3288 79.7469C32.4496 79.0743 40.5547 81.2134 47.2796 85.8043C53.7511 90.1986 58.79 96.3083 63.0543 102.786C65.6667 106.755 68.0065 110.892 70.3464 115.023C71.0941 116.344 73.2807 115.39 72.5243 114.055Z" fill="#F2F2F2"/>
</svg>
