<svg width="252" height="44" viewBox="0 0 252 44" fill="none" xmlns="http://www.w3.org/2000/svg">
<path d="M0 21.7172V43.4029H18.1125H36.225V21.7172C36.225 9.7743 36.1305 0.0314369 36.0045 0.0628662C35.847 0.0628662 31.7205 4.9343 26.775 10.8743C21.8295 16.8143 17.703 21.6857 17.6085 21.6857C17.514 21.7172 13.545 16.8457 8.82 10.8743C4.095 4.90287 0.189 0.0314407 0.126 0.0314407C0.063 0.0314407 0 9.7743 0 21.7172Z" fill="#E30613"/>
<path d="M43.47 21.7171V43.4029H47.25H51.03L50.9985 33.0943C50.9985 27.4372 50.8725 20.2714 50.7465 17.16C50.589 14.0486 50.4945 11.4714 50.526 11.44C50.5575 11.4086 53.3295 18.5743 56.7 27.4057L62.8425 43.4029H65.709H68.5755L74.655 27.5314C78.0255 18.8257 80.7975 11.7229 80.8605 11.7857C80.9235 11.8486 80.829 15.0543 80.6715 18.92C80.4825 22.7857 80.325 29.8886 80.325 34.6657V43.4029H84.2625H88.2V21.7171V0.0314369L83.097 0.0942955L77.994 0.18858L71.9775 16.1229C68.67 24.9229 65.8665 32.1514 65.8035 32.2457C65.709 32.34 62.9055 25.1114 59.5665 16.2172L53.487 0.0314369H48.4785H43.47V21.7171Z" fill="#F2F2F2"/>
<path d="M109.179 1.03715C108.329 3.11144 93.24 43.0257 93.24 43.2143C93.24 43.3086 95.067 43.4029 97.3035 43.4029H101.336L103.068 38.4371L104.801 33.5029L113.022 33.4086L121.212 33.3457L121.842 34.98C122.157 35.8914 122.976 38.1543 123.606 40.0086L124.803 43.4029H128.866C131.103 43.4029 132.93 43.3086 132.93 43.1514C132.898 43.0257 129.276 33.3143 124.803 21.56L116.707 0.18858L113.148 0.0942955L109.588 1.14441e-05L109.179 1.03715ZM116.14 18.6372L119.007 26.9029L113.148 26.9972C109.935 27.0286 107.289 27.0286 107.226 26.9657C107.069 26.8086 112.864 10.4029 113.085 10.4029C113.179 10.4029 114.534 14.1114 116.14 18.6372Z" fill="#F2F2F2"/>
<path d="M137.34 21.7171V43.4029H141.277H145.215L145.278 28.4114L145.372 13.42L154.791 28.4114L164.209 43.4029H168.115H171.99V21.7171V0.0314369H168.21H164.43L164.367 15.0857L164.272 30.14L154.822 15.0857L145.372 0.0314369H141.372H137.34V21.7171Z" fill="#F2F2F2"/>
<path d="M185.44 21.4657C180.999 33.2829 177.345 43.0257 177.345 43.1514C177.345 43.3086 179.172 43.4029 181.377 43.4029H185.409L187.11 38.3743L188.842 33.3457H197.064H205.317L207.05 38.28L208.782 43.2457L212.909 43.34C215.177 43.3714 217.035 43.3714 217.035 43.3086C217.035 43.2771 213.381 33.5343 208.877 21.7171L200.749 0.18858L197.158 0.0942955L193.567 0.0314369L185.44 21.4657ZM200.182 18.6372L203.049 26.9029L197.253 26.9972C194.04 27.0286 191.362 27.0286 191.299 26.9657C191.236 26.9029 192.496 23.0686 194.103 18.48C195.709 13.8914 197.095 10.1829 197.158 10.2457C197.221 10.34 198.576 14.1114 200.182 18.6372Z" fill="#F2F2F2"/>
<path d="M231.683 0.345722C228.218 1.06858 224.847 3.04858 223.146 5.34286C221.634 7.38572 221.036 9.64858 221.193 12.6029C221.351 15.5257 222.422 17.6629 224.721 19.7372C226.832 21.6229 229.1 22.7229 235.242 24.8914C242.393 27.4057 243.936 28.7257 243.747 32.12C243.59 34.2886 242.739 35.5457 240.723 36.5514C239.495 37.1486 238.77 37.2743 236.25 37.2743C233.604 37.2743 233.037 37.1486 231.431 36.3629C229.163 35.2629 227.84 33.5657 227.556 31.4286L227.336 29.8886H223.587H219.807L219.933 31.7429C220.28 36.6143 224.154 40.7314 230.202 42.6486C232.124 43.2772 238.424 43.56 240.66 43.1514C248.346 41.7057 252.283 36.8029 251.307 29.8572C250.614 24.6086 246.739 21.34 237.825 18.4172C232.218 16.5629 230.139 15.4 229.131 13.4829C228.281 11.8172 228.785 9.36572 230.297 7.98286C232.754 5.72001 238.203 5.50001 241.133 7.51144C242.582 8.48572 243.81 10.6543 243.81 12.1943V13.2314H247.621H251.464L251.307 11.2514C250.897 6.28572 246.645 1.85429 240.944 0.502865C238.802 7.62939e-06 233.793 -0.062851 231.683 0.345722Z" fill="#F2F2F2"/>
</svg>
