<svg width="980" height="440" viewBox="0 0 980 440" fill="none" xmlns="http://www.w3.org/2000/svg">
<g clip-path="url(#clip0)">
<path d="M703.211 265.509H298.227V179.154H703.211V265.509Z" fill="white"/>
<path d="M350.704 244.268C362.848 244.268 372.693 234.447 372.693 222.331C372.693 210.216 362.848 200.395 350.704 200.395C338.56 200.395 328.715 210.216 328.715 222.331C328.715 234.447 338.56 244.268 350.704 244.268Z" fill="#B23838"/>
<path d="M401.488 207.707C400.516 207.707 399.584 208.092 398.897 208.778C398.21 209.464 397.823 210.393 397.823 211.363C397.823 212.333 398.21 213.263 398.897 213.948C399.584 214.634 400.516 215.019 401.488 215.019H669.066C670.036 215.017 670.966 214.631 671.652 213.945C672.337 213.26 672.722 212.331 672.722 211.363C672.722 210.395 672.337 209.466 671.652 208.781C670.966 208.096 670.036 207.709 669.066 207.707H401.488Z" fill="#B23838"/>
<path d="M401.488 229.644C400.516 229.642 399.583 230.025 398.895 230.709C398.206 231.393 397.818 232.322 397.816 233.292C397.814 234.262 398.198 235.192 398.884 235.879C399.569 236.567 400.501 236.954 401.473 236.956H570.638C571.12 236.957 571.597 236.863 572.042 236.679C572.488 236.496 572.893 236.227 573.234 235.887C573.574 235.548 573.845 235.144 574.03 234.7C574.214 234.256 574.309 233.78 574.309 233.3C574.309 232.819 574.214 232.343 574.03 231.899C573.845 231.455 573.574 231.052 573.234 230.712C572.893 230.373 572.488 230.103 572.042 229.92C571.597 229.737 571.12 229.643 570.638 229.644H401.488Z" fill="#B23838"/>
<path d="M703.211 265.509H298.227V179.154H703.211V265.509ZM304.41 259.341H697.028V185.322H304.41V259.341Z" fill="#CCCCCC"/>
<path d="M817.258 244.059C816.864 242.904 816.73 241.677 816.863 240.465C816.996 239.253 817.395 238.085 818.029 237.043C818.664 236.001 819.521 235.11 820.538 234.434C821.555 233.758 822.708 233.312 823.917 233.129L828.501 214.624L840.453 214.66L833.611 240.702C833.786 242.748 833.201 244.786 831.97 246.431C830.738 248.076 828.945 249.213 826.929 249.627C824.913 250.04 822.815 249.702 821.033 248.676C819.25 247.65 817.907 246.007 817.258 244.059Z" fill="#FFB7B7"/>
<path d="M837.436 232.084L819.131 230.818L827.996 178.113L822.355 120.079L840.859 112.511L853.198 176.958L853.164 177.075L837.436 232.084Z" fill="#B23838"/>
<path d="M695.901 225.907C695.88 224.687 696.127 223.478 696.624 222.365C697.122 221.251 697.859 220.26 698.782 219.46C699.706 218.661 700.793 218.074 701.969 217.74C703.144 217.406 704.379 217.332 705.586 217.526L715.612 201.299L726.982 204.973L712.501 227.689C712.041 229.69 710.862 231.454 709.186 232.645C707.51 233.837 705.454 234.373 703.407 234.154C701.361 233.934 699.467 232.973 698.083 231.453C696.7 229.933 695.923 227.96 695.901 225.907Z" fill="#FFB7B7"/>
<path d="M752.349 428.798H742.612L737.98 391.33L752.352 391.331L752.349 428.798Z" fill="#FFB7B7"/>
<path d="M754.833 438.215L723.436 438.214V437.818C723.436 434.584 724.724 431.484 727.015 429.197C729.307 426.911 732.415 425.627 735.656 425.626H735.657L754.833 425.627L754.833 438.215Z" fill="black"/>
<path d="M820.28 428.798H810.542L805.91 391.33L820.282 391.331L820.28 428.798Z" fill="#FFB7B7"/>
<path d="M822.763 438.215L791.366 438.214V437.818C791.366 434.584 792.654 431.484 794.946 429.197C797.237 426.911 800.346 425.627 803.587 425.626H803.587L822.763 425.627L822.763 438.215Z" fill="black"/>
<path d="M811.02 76.9518C823.796 76.9518 834.153 66.6195 834.153 53.8741C834.153 41.1286 823.796 30.7964 811.02 30.7964C798.244 30.7964 787.887 41.1286 787.887 53.8741C787.887 66.6195 798.244 76.9518 811.02 76.9518Z" fill="#FFB8B8"/>
<path d="M803.207 52.6087C799.75 54.0512 795.879 54.1581 792.348 52.9087C788.817 51.6593 785.878 49.1431 784.105 45.8503C782.332 42.5576 781.851 38.7242 782.757 35.0971C783.662 31.4701 785.888 28.3092 789.002 26.2303C795.159 22.1198 804.354 23.4803 810.323 28.2476C814.347 26.4215 818.85 25.9202 823.178 26.8164C827.507 27.7126 831.438 29.9597 834.401 33.2325C840.163 39.8821 840.793 50.4373 836.594 58.1891C834.758 62.2303 833.943 66.6591 834.221 71.0875C834.499 75.5159 835.862 79.8086 838.189 83.5896C836.383 83.5161 832.406 83.1822 827.43 82.7539C825.99 82.63 825.367 78.4107 823.789 78.2749C822.396 78.1552 820.06 82.12 818.601 81.9971C807.795 81.0861 795.696 80.1608 790.214 80.3418C794.345 70.6933 798.477 61.0449 803.207 52.6087Z" fill="black"/>
<path d="M828.76 216.453C828.76 216.453 836.278 224.186 831.688 264.115L828.516 348.901L822.905 423.976L804.851 422.778L788.993 249.984L766.792 313.215L754.837 417.748L737.516 416.551L734.557 312.598L742.151 232.261L828.76 216.453Z" fill="black"/>
<path d="M754.35 237.097C745.114 237.098 741.393 235.99 741.121 235.904L740.693 235.77L740.768 235.328C740.83 234.965 747.035 198.869 755.55 179.919L761.538 103.068C761.71 100.784 762.651 98.6263 764.209 96.9451C765.768 95.264 767.851 94.1588 770.119 93.8097L770.199 94.3178L770.119 93.8097L785.349 91.4244L794.666 83.2402L816.985 84.4716L818.953 93.8901C821.623 94.6345 839.238 100.02 840.981 112.917L841.003 113.078L840.928 113.223L808.656 175.156C811.384 177.841 832.935 199.927 834.398 228.162L834.433 228.842L833.769 228.69C833.707 228.677 826.81 227.37 790.543 233.486C773.769 236.314 762.112 237.097 754.35 237.097Z" fill="#B23838"/>
<path d="M718.575 225.533L705.421 215.427L734.78 156.828L762.086 99.3954C762.467 98.5928 763.086 97.9259 763.858 97.4842C764.631 97.0424 765.52 96.847 766.407 96.9242C767.294 97.0013 768.136 97.3473 768.82 97.9158C769.504 98.4842 769.998 99.2478 770.234 100.104L776.993 124.565L755.857 179.424L718.575 225.533Z" fill="#B23838"/>
<path d="M978.97 440H586.351C586.078 440 585.816 439.892 585.623 439.699C585.429 439.506 585.321 439.245 585.321 438.972C585.321 438.699 585.429 438.438 585.623 438.245C585.816 438.052 586.078 437.944 586.351 437.944H978.97C979.243 437.944 979.505 438.052 979.698 438.245C979.891 438.438 980 438.699 980 438.972C980 439.245 979.891 439.506 979.698 439.699C979.505 439.892 979.243 440 978.97 440Z" fill="#CBCBCB"/>
<path d="M181.06 69.1252L182.361 62.6356C182.361 62.6356 201.498 56.146 203.639 69.1252H181.06Z" fill="#B23838"/>
<path d="M217.787 426.452H230.332L236.301 378.178H217.785L217.787 426.452Z" fill="#9F616A"/>
<path d="M214.586 422.366L239.293 422.365H239.294C243.47 422.365 247.475 424.02 250.427 426.966C253.38 429.912 255.039 433.907 255.039 438.073V438.583L214.587 438.585L214.586 422.366Z" fill="black"/>
<path d="M157.309 426.452H169.854L175.823 378.178H157.307L157.309 426.452Z" fill="#9F616A"/>
<path d="M154.109 422.366L178.815 422.365H178.817C182.992 422.365 186.997 424.02 189.95 426.966C192.902 429.912 194.561 433.907 194.562 438.073V438.583L154.11 438.585L154.109 422.366Z" fill="black"/>
<path d="M162.846 96.3814L148.534 95.083L139.428 137.914L140.728 176.852L155.04 228.769L174.555 217.087L164.147 163.873L162.846 96.3814Z" fill="#B23838"/>
<path d="M153.788 224.226L156.992 251.483L160 315.081L153.088 409.854L177.808 408.531L189.923 309.889L197.323 264.462L207.731 316.379L214.237 413.722L239.606 411.694V316.036L240.257 246.291L231.15 219.035L153.788 224.226Z" fill="black"/>
<path d="M207.081 70.4229C207.081 70.4229 197.974 57.4437 181.06 66.5291L173.254 76.9125L148.535 95.0834L153.739 156.086L147.234 232.663L239.606 231.365L223.994 154.788V73.0187L207.081 70.4229Z" fill="#B23838"/>
<path opacity="0.25" d="M156.992 116.627L149.532 205.609L158.943 157.384L156.992 116.627Z" fill="black"/>
<path d="M312.268 191.233C310.94 191.683 309.529 191.837 308.135 191.684C306.74 191.532 305.396 191.076 304.198 190.349C302.999 189.622 301.975 188.642 301.197 187.477C300.419 186.313 299.906 184.992 299.695 183.609L278.408 178.36L278.45 164.677L308.407 172.51C310.761 172.31 313.106 172.979 314.998 174.389C316.89 175.799 318.198 177.853 318.674 180.161C319.15 182.468 318.761 184.87 317.58 186.911C316.4 188.952 314.51 190.489 312.268 191.233H312.268Z" fill="#9F616A"/>
<path d="M290.009 164.514L286.429 184.971L295.401 186.533L298.98 166.076L290.009 164.514Z" fill="#B23838"/>
<path d="M192.602 55.4309C207.031 55.4309 218.728 43.7619 218.728 29.3675C218.728 14.9732 207.031 3.3042 192.602 3.3042C178.173 3.3042 166.477 14.9732 166.477 29.3675C166.477 43.7619 178.173 55.4309 192.602 55.4309Z" fill="#9F616A"/>
<path d="M194.554 52.3587C188.162 53.8896 181.428 52.996 175.66 49.8515C169.891 46.707 165.5 41.536 163.339 35.3428C161.178 29.1495 161.402 22.3761 163.966 16.338C166.53 10.2999 171.253 5.42799 177.216 2.66851C181.808 0.623896 186.83 -0.275154 191.848 0.0489743C199.661 0.458791 207.256 3.33977 215.077 3.12747L216.211 4.94538L220.483 3.91169L221.398 7.29561L222.524 7.25675C224.54 10.994 221.296 16.3445 217.042 16.2992C215.37 16.1068 213.72 15.7484 212.119 15.2293C210.472 14.8772 208.533 14.965 207.397 16.2058C205.921 17.8184 206.564 20.3349 206.871 22.4968C207.179 24.6588 206.41 27.5709 204.223 27.6414C203.105 27.6775 202.042 26.878 200.944 27.0882C199.665 27.333 199.018 28.8738 199.205 30.1596C199.522 31.4212 200.039 32.6244 200.735 33.7236C202.215 36.9413 202.45 40.5907 201.396 43.971C200.343 47.3513 198.074 50.224 195.027 52.0375" fill="black"/>
<path d="M217.784 78.0335L223.994 73.0185C223.994 73.0185 236.527 72.1493 236.3 85.4037L256.353 147.982L294.824 161.577L289.64 188.296L235.21 167.611L207.563 121.895L217.784 78.0335Z" fill="#B23838"/>
<path d="M393.649 440H1.03049C0.75719 440 0.495079 439.892 0.301824 439.699C0.108569 439.506 0 439.245 0 438.972C0 438.699 0.108569 438.438 0.301824 438.245C0.495079 438.052 0.75719 437.944 1.03049 437.944H393.649C393.922 437.944 394.184 438.052 394.377 438.245C394.571 438.438 394.679 438.699 394.679 438.972C394.679 439.245 394.571 439.506 394.377 439.699C394.184 439.892 393.922 440 393.649 440Z" fill="#CBCBCB"/>
</g>
<defs>
<clipPath id="clip0">
<rect width="980" height="440" fill="white"/>
</clipPath>
</defs>
</svg>
